<svg xmlns="http://www.w3.org/2000/svg" width="375" viewBox="0 0 375 375" height="375" version="1.0"><defs><clipPath id="a"><path d="M 1 9.140625 L 358 9.140625 L 358 366.140625 L 1 366.140625 Z M 1 9.140625"/></clipPath><clipPath id="b"><path d="M 1 9.140625 L 336 9.140625 L 336 344 L 1 344 Z M 1 9.140625"/></clipPath></defs><g clip-path="url(#a)"><path fill="#F9C432" d="M 305.871094 313.496094 C 292.398438 327.046875 276.847656 338.277344 259.933594 346.808594 C 251.949219 350.847656 243.652344 354.285156 235.125 357.078125 C 221.917969 361.386719 208.199219 364.199219 194.191406 365.40625 C 189.300781 365.804688 184.28125 366.03125 179.308594 366.03125 C 177.210938 366.03125 175.113281 365.984375 172.996094 365.921875 C 143.234375 364.894531 114.164062 356.429688 88.664062 341.316406 L 16.269531 351.964844 L 19.949219 325.816406 L 26.460938 279.445312 C 15.753906 261.582031 8.324219 242.15625 4.398438 221.636719 C 3.058594 214.648438 2.144531 207.484375 1.652344 200.40625 C 0.00390625 176.917969 2.992188 153.652344 10.15625 131.859375 C 12.941406 123.308594 16.378906 115.027344 20.414062 107.03125 C 28.761719 90.511719 39.671875 75.261719 52.96875 61.90625 C 86.519531 28.105469 131.230469 9.394531 178.886719 9.261719 L 179.464844 9.261719 C 221.71875 9.261719 261.8125 23.90625 293.824219 50.832031 C 297.707031 54.070312 301.457031 57.511719 305.089844 61.125 L 305.492188 61.503906 C 374.785156 130.878906 374.964844 243.898438 305.871094 313.496094"/></g><g clip-path="url(#b)"><path fill="#FFCF36" d="M 283.5625 291.167969 C 270.089844 304.722656 254.539062 315.949219 237.628906 324.476562 C 229.640625 328.519531 221.339844 331.960938 212.820312 334.75 C 199.609375 339.0625 185.886719 341.871094 171.878906 343.078125 C 166.996094 343.480469 161.972656 343.703125 157 343.703125 C 154.902344 343.703125 152.804688 343.660156 150.683594 343.59375 C 120.921875 342.566406 91.851562 334.101562 66.351562 318.988281 L 19.949219 325.816406 L 26.460938 279.445312 C 15.753906 261.582031 8.324219 242.15625 4.398438 221.636719 C 3.058594 214.648438 2.144531 207.484375 1.652344 200.40625 C 0.00390625 176.917969 2.992188 153.652344 10.15625 131.859375 C 12.941406 123.308594 16.378906 115.027344 20.414062 107.03125 C 28.761719 90.511719 39.671875 75.261719 52.96875 61.90625 C 86.519531 28.105469 131.230469 9.394531 178.886719 9.261719 L 179.464844 9.261719 C 221.71875 9.261719 261.8125 23.90625 293.824219 50.832031 C 352.300781 120.671875 348.90625 225.347656 283.5625 291.167969"/></g><path d="M 116.984375 278.132812 C 116.984375 277.078125 117.550781 276.511719 118.605469 276.511719 L 125.988281 276.511719 C 127.042969 276.511719 127.609375 277.078125 127.609375 278.132812 L 127.609375 285.597656 C 127.609375 286.65625 127.042969 287.222656 125.988281 287.222656 L 118.605469 287.222656 C 117.550781 287.222656 116.984375 286.65625 116.984375 285.597656 Z M 126.714844 222.285156 C 127.527344 222.285156 128.015625 222.773438 128.015625 223.582031 L 127.445312 267.824219 C 127.445312 268.636719 126.960938 269.121094 126.148438 269.121094 L 118.441406 269.121094 C 117.550781 269.121094 117.144531 268.636719 117.144531 267.824219 L 116.578125 223.582031 C 116.578125 222.773438 116.984375 222.285156 117.875 222.285156 L 126.714844 222.285156"/><path d="M 166.785156 248.339844 L 162.242188 260.355469 L 173.273438 260.355469 L 177.894531 248.339844 Z M 202.472656 239.578125 C 203.691406 239.578125 204.257812 240.304688 203.769531 241.441406 L 201.742188 247.042969 C 201.417969 247.933594 200.851562 248.339844 199.878906 248.339844 L 188.765625 248.339844 L 184.222656 260.355469 L 196.472656 260.355469 C 197.6875 260.355469 198.253906 261.085938 197.769531 262.222656 L 195.742188 267.824219 C 195.417969 268.71875 194.847656 269.121094 193.875 269.121094 L 180.894531 269.121094 L 174.488281 285.925781 C 174.167969 286.816406 173.597656 287.222656 172.621094 287.222656 L 165 287.304688 C 163.785156 287.304688 163.296875 286.574219 163.703125 285.4375 L 169.949219 269.121094 L 158.917969 269.121094 L 152.507812 285.925781 C 152.183594 286.816406 151.617188 287.222656 150.644531 287.222656 L 143.019531 287.304688 C 141.800781 287.304688 141.316406 286.574219 141.71875 285.4375 L 147.964844 269.121094 L 137.582031 269.121094 C 136.367188 269.121094 135.796875 268.390625 136.285156 267.253906 L 138.3125 261.652344 C 138.636719 260.761719 139.207031 260.355469 140.179688 260.355469 L 151.292969 260.355469 L 155.914062 248.339844 L 143.585938 248.339844 C 142.367188 248.339844 141.800781 247.609375 142.289062 246.472656 L 144.316406 240.871094 C 144.640625 239.980469 145.207031 239.578125 146.179688 239.578125 L 159.242188 239.578125 L 165.324219 223.582031 C 165.648438 222.691406 166.214844 222.285156 167.1875 222.285156 L 174.730469 222.285156 C 175.949219 222.285156 176.4375 223.015625 176.03125 224.148438 L 170.191406 239.578125 L 181.222656 239.578125 L 187.304688 223.582031 C 187.628906 222.691406 188.195312 222.285156 189.171875 222.285156 L 196.714844 222.285156 C 197.929688 222.285156 198.417969 223.015625 198.011719 224.148438 L 192.171875 239.578125 L 202.472656 239.578125"/><path d="M 212.042969 278.132812 C 212.042969 277.078125 212.609375 276.511719 213.664062 276.511719 L 221.046875 276.511719 C 222.097656 276.511719 222.667969 277.078125 222.667969 278.132812 L 222.667969 285.597656 C 222.667969 286.65625 222.097656 287.222656 221.046875 287.222656 L 213.664062 287.222656 C 212.609375 287.222656 212.042969 286.65625 212.042969 285.597656 Z M 221.773438 222.285156 C 222.585938 222.285156 223.070312 222.773438 223.070312 223.582031 L 222.507812 267.824219 C 222.507812 268.636719 222.019531 269.121094 221.207031 269.121094 L 213.503906 269.121094 C 212.609375 269.121094 212.203125 268.636719 212.203125 267.824219 L 211.636719 223.582031 C 211.636719 222.773438 212.042969 222.285156 212.933594 222.285156 L 221.773438 222.285156"/><path d="M 231.183594 278.132812 C 231.183594 277.078125 231.75 276.511719 232.804688 276.511719 L 240.1875 276.511719 C 241.242188 276.511719 241.808594 277.078125 241.808594 278.132812 L 241.808594 285.597656 C 241.808594 286.65625 241.242188 287.222656 240.1875 287.222656 L 232.804688 287.222656 C 231.75 287.222656 231.183594 286.65625 231.183594 285.597656 Z M 240.917969 222.285156 C 241.726562 222.285156 242.214844 222.773438 242.214844 223.582031 L 241.648438 267.824219 C 241.648438 268.636719 241.160156 269.121094 240.347656 269.121094 L 232.640625 269.121094 C 231.75 269.121094 231.34375 268.636719 231.34375 267.824219 L 230.777344 223.582031 C 230.777344 222.773438 231.183594 222.285156 232.074219 222.285156 L 240.917969 222.285156"/><path d="M 29.554688 108.480469 L 18.03125 108.480469 L 18.03125 96.945312 L 29.554688 96.945312 L 29.554688 108.480469"/><path d="M 41.082031 108.480469 L 29.554688 108.480469 L 29.554688 96.945312 L 41.082031 96.945312 L 41.082031 108.480469"/><path d="M 52.609375 108.480469 L 41.082031 108.480469 L 41.082031 96.945312 L 52.609375 96.945312 L 52.609375 108.480469"/><path d="M 64.132812 108.480469 L 52.609375 108.480469 L 52.609375 96.945312 L 64.132812 96.945312 L 64.132812 108.480469"/><path d="M 75.660156 108.480469 L 64.132812 108.480469 L 64.132812 96.945312 L 75.660156 96.945312 L 75.660156 108.480469"/><path d="M 87.1875 108.480469 L 75.660156 108.480469 L 75.660156 96.945312 L 87.1875 96.945312 L 87.1875 108.480469"/><path d="M 98.710938 108.480469 L 87.1875 108.480469 L 87.1875 96.945312 L 98.710938 96.945312 L 98.710938 108.480469"/><path d="M 110.238281 108.480469 L 98.710938 108.480469 L 98.710938 96.945312 L 110.238281 96.945312 L 110.238281 108.480469"/><path d="M 121.765625 108.480469 L 110.238281 108.480469 L 110.238281 96.945312 L 121.765625 96.945312 L 121.765625 108.480469"/><path d="M 133.289062 108.480469 L 121.765625 108.480469 L 121.765625 96.945312 L 133.289062 96.945312 L 133.289062 108.480469"/><path d="M 144.816406 108.480469 L 133.289062 108.480469 L 133.289062 96.945312 L 144.816406 96.945312 L 144.816406 108.480469"/><path d="M 156.339844 108.480469 L 144.816406 108.480469 L 144.816406 96.945312 L 156.339844 96.945312 L 156.339844 108.480469"/><path d="M 167.871094 108.480469 L 156.339844 108.480469 L 156.339844 96.945312 L 167.871094 96.945312 L 167.871094 108.480469"/><path d="M 179.394531 108.480469 L 167.871094 108.480469 L 167.871094 96.945312 L 179.394531 96.945312 L 179.394531 108.480469"/><path d="M 190.921875 108.480469 L 179.394531 108.480469 L 179.394531 96.945312 L 190.921875 96.945312 L 190.921875 108.480469"/><path d="M 202.445312 108.480469 L 190.921875 108.480469 L 190.921875 96.945312 L 202.445312 96.945312 L 202.445312 108.480469"/><path d="M 213.976562 108.480469 L 202.445312 108.480469 L 202.445312 96.945312 L 213.976562 96.945312 L 213.976562 108.480469"/><path d="M 225.5 108.480469 L 213.976562 108.480469 L 213.976562 96.945312 L 225.5 96.945312 L 225.5 108.480469"/><path d="M 237.027344 108.480469 L 225.5 108.480469 L 225.5 96.945312 L 237.027344 96.945312 L 237.027344 108.480469"/><path d="M 248.550781 108.480469 L 237.027344 108.480469 L 237.027344 96.945312 L 248.550781 96.945312 L 248.550781 108.480469"/><path d="M 260.078125 108.480469 L 248.550781 108.480469 L 248.550781 96.945312 L 260.078125 96.945312 L 260.078125 108.480469"/><path d="M 271.605469 108.480469 L 260.078125 108.480469 L 260.078125 96.945312 L 271.605469 96.945312 L 271.605469 108.480469"/><path d="M 283.132812 108.480469 L 271.605469 108.480469 L 271.605469 96.945312 L 283.132812 96.945312 L 283.132812 108.480469"/><path d="M 294.65625 108.480469 L 283.132812 108.480469 L 283.132812 96.945312 L 294.65625 96.945312 L 294.65625 108.480469"/><path d="M 306.183594 108.480469 L 294.65625 108.480469 L 294.65625 96.945312 L 306.183594 96.945312 L 306.183594 108.480469"/><path d="M 317.707031 108.480469 L 306.183594 108.480469 L 306.183594 96.945312 L 317.707031 96.945312 L 317.707031 108.480469"/><path d="M 329.234375 108.480469 L 317.707031 108.480469 L 317.707031 96.945312 L 329.234375 96.945312 L 329.234375 108.480469"/><path d="M 340.761719 108.480469 L 329.234375 108.480469 L 329.234375 96.945312 L 340.761719 96.945312 L 340.761719 108.480469"/><path d="M 352.289062 108.480469 L 340.761719 108.480469 L 340.761719 96.945312 L 352.289062 96.945312 L 352.289062 108.480469"/><path d="M 29.554688 120.011719 L 18.03125 120.011719 L 18.03125 108.480469 L 29.554688 108.480469 L 29.554688 120.011719"/><path d="M 41.082031 120.011719 L 29.554688 120.011719 L 29.554688 108.480469 L 41.082031 108.480469 L 41.082031 120.011719"/><path d="M 52.609375 120.011719 L 41.082031 120.011719 L 41.082031 108.480469 L 52.609375 108.480469 L 52.609375 120.011719"/><path d="M 64.132812 120.011719 L 52.609375 120.011719 L 52.609375 108.480469 L 64.132812 108.480469 L 64.132812 120.011719"/><path d="M 75.660156 120.011719 L 64.132812 120.011719 L 64.132812 108.480469 L 75.660156 108.480469 L 75.660156 120.011719"/><path d="M 87.1875 120.011719 L 75.660156 120.011719 L 75.660156 108.480469 L 87.1875 108.480469 L 87.1875 120.011719"/><path d="M 98.710938 120.011719 L 87.1875 120.011719 L 87.1875 108.480469 L 98.710938 108.480469 L 98.710938 120.011719"/><path d="M 110.238281 120.011719 L 98.710938 120.011719 L 98.710938 108.480469 L 110.238281 108.480469 L 110.238281 120.011719"/><path d="M 121.765625 120.011719 L 110.238281 120.011719 L 110.238281 108.480469 L 121.765625 108.480469 L 121.765625 120.011719"/><path d="M 133.289062 120.011719 L 121.765625 120.011719 L 121.765625 108.480469 L 133.289062 108.480469 L 133.289062 120.011719"/><path d="M 144.816406 120.011719 L 133.289062 120.011719 L 133.289062 108.480469 L 144.816406 108.480469 L 144.816406 120.011719"/><path d="M 156.339844 120.011719 L 144.816406 120.011719 L 144.816406 108.480469 L 156.339844 108.480469 L 156.339844 120.011719"/><path d="M 167.871094 120.011719 L 156.339844 120.011719 L 156.339844 108.480469 L 167.871094 108.480469 L 167.871094 120.011719"/><path d="M 179.394531 120.011719 L 167.871094 120.011719 L 167.871094 108.480469 L 179.394531 108.480469 L 179.394531 120.011719"/><path d="M 18.03125 108.480469 L 6.503906 108.480469 L 6.503906 96.945312 L 18.03125 96.945312 L 18.03125 108.480469"/><path d="M 18.03125 120.011719 L 6.503906 120.011719 L 6.503906 108.480469 L 18.03125 108.480469 L 18.03125 120.011719"/><path d="M 190.921875 120.011719 L 179.394531 120.011719 L 179.394531 108.480469 L 190.921875 108.480469 L 190.921875 120.011719"/><path d="M 202.445312 120.011719 L 190.921875 120.011719 L 190.921875 108.480469 L 202.445312 108.480469 L 202.445312 120.011719"/><path d="M 213.976562 120.011719 L 202.445312 120.011719 L 202.445312 108.480469 L 213.976562 108.480469 L 213.976562 120.011719"/><path d="M 225.5 120.011719 L 213.976562 120.011719 L 213.976562 108.480469 L 225.5 108.480469 L 225.5 120.011719"/><path d="M 237.027344 120.011719 L 225.5 120.011719 L 225.5 108.480469 L 237.027344 108.480469 L 237.027344 120.011719"/><path d="M 248.550781 120.011719 L 237.027344 120.011719 L 237.027344 108.480469 L 248.550781 108.480469 L 248.550781 120.011719"/><path d="M 260.078125 120.011719 L 248.550781 120.011719 L 248.550781 108.480469 L 260.078125 108.480469 L 260.078125 120.011719"/><path d="M 271.605469 120.011719 L 260.078125 120.011719 L 260.078125 108.480469 L 271.605469 108.480469 L 271.605469 120.011719"/><path d="M 283.132812 120.011719 L 271.605469 120.011719 L 271.605469 108.480469 L 283.132812 108.480469 L 283.132812 120.011719"/><path d="M 294.65625 120.011719 L 283.132812 120.011719 L 283.132812 108.480469 L 294.65625 108.480469 L 294.65625 120.011719"/><path d="M 306.183594 120.011719 L 294.65625 120.011719 L 294.65625 108.480469 L 306.183594 108.480469 L 306.183594 120.011719"/><path d="M 317.707031 120.011719 L 306.183594 120.011719 L 306.183594 108.480469 L 317.707031 108.480469 L 317.707031 120.011719"/><path d="M 329.234375 120.011719 L 317.707031 120.011719 L 317.707031 108.480469 L 329.234375 108.480469 L 329.234375 120.011719"/><path d="M 340.761719 120.011719 L 329.234375 120.011719 L 329.234375 108.480469 L 340.761719 108.480469 L 340.761719 120.011719"/><path d="M 352.289062 120.011719 L 340.761719 120.011719 L 340.761719 108.480469 L 352.289062 108.480469 L 352.289062 120.011719"/><path d="M 29.554688 131.546875 L 18.03125 131.546875 L 18.03125 120.011719 L 29.554688 120.011719 L 29.554688 131.546875"/><path d="M 41.082031 131.546875 L 29.554688 131.546875 L 29.554688 120.011719 L 41.082031 120.011719 L 41.082031 131.546875"/><path d="M 52.609375 131.546875 L 41.082031 131.546875 L 41.082031 120.011719 L 52.609375 120.011719 L 52.609375 131.546875"/><path d="M 64.132812 131.546875 L 52.609375 131.546875 L 52.609375 120.011719 L 64.132812 120.011719 L 64.132812 131.546875"/><path d="M 75.660156 131.546875 L 64.132812 131.546875 L 64.132812 120.011719 L 75.660156 120.011719 L 75.660156 131.546875"/><path d="M 87.1875 131.546875 L 75.660156 131.546875 L 75.660156 120.011719 L 87.1875 120.011719 L 87.1875 131.546875"/><path d="M 98.710938 131.546875 L 87.1875 131.546875 L 87.1875 120.011719 L 98.710938 120.011719 L 98.710938 131.546875"/><path d="M 110.238281 131.546875 L 98.710938 131.546875 L 98.710938 120.011719 L 110.238281 120.011719 L 110.238281 131.546875"/><path d="M 121.765625 131.546875 L 110.238281 131.546875 L 110.238281 120.011719 L 121.765625 120.011719 L 121.765625 131.546875"/><path d="M 133.289062 131.546875 L 121.765625 131.546875 L 121.765625 120.011719 L 133.289062 120.011719 L 133.289062 131.546875"/><path fill="#636363" d="M 144.816406 131.546875 L 133.289062 131.546875 L 133.289062 120.011719 L 144.816406 120.011719 L 144.816406 131.546875"/><path d="M 156.339844 131.546875 L 144.816406 131.546875 L 144.816406 120.011719 L 156.339844 120.011719 L 156.339844 131.546875"/><path fill="#636363" d="M 167.871094 131.546875 L 156.339844 131.546875 L 156.339844 120.011719 L 167.871094 120.011719 L 167.871094 131.546875"/><path d="M 179.394531 131.546875 L 167.871094 131.546875 L 167.871094 120.011719 L 179.394531 120.011719 L 179.394531 131.546875"/><path d="M 202.445312 131.546875 L 190.921875 131.546875 L 190.921875 120.011719 L 202.445312 120.011719 L 202.445312 131.546875"/><path d="M 213.976562 131.546875 L 202.445312 131.546875 L 202.445312 120.011719 L 213.976562 120.011719 L 213.976562 131.546875"/><path d="M 225.5 131.546875 L 213.976562 131.546875 L 213.976562 120.011719 L 225.5 120.011719 L 225.5 131.546875"/><path d="M 237.027344 131.546875 L 225.5 131.546875 L 225.5 120.011719 L 237.027344 120.011719 L 237.027344 131.546875"/><path d="M 248.550781 131.546875 L 237.027344 131.546875 L 237.027344 120.011719 L 248.550781 120.011719 L 248.550781 131.546875"/><path d="M 260.078125 131.546875 L 248.550781 131.546875 L 248.550781 120.011719 L 260.078125 120.011719 L 260.078125 131.546875"/><path d="M 271.605469 131.546875 L 260.078125 131.546875 L 260.078125 120.011719 L 271.605469 120.011719 L 271.605469 131.546875"/><path d="M 283.132812 131.546875 L 271.605469 131.546875 L 271.605469 120.011719 L 283.132812 120.011719 L 283.132812 131.546875"/><path d="M 294.65625 131.546875 L 283.132812 131.546875 L 283.132812 120.011719 L 294.65625 120.011719 L 294.65625 131.546875"/><path fill="#636363" d="M 306.183594 131.546875 L 294.65625 131.546875 L 294.65625 120.011719 L 306.183594 120.011719 L 306.183594 131.546875"/><path d="M 317.707031 131.546875 L 306.183594 131.546875 L 306.183594 120.011719 L 317.707031 120.011719 L 317.707031 131.546875"/><path fill="#636363" d="M 329.234375 131.546875 L 317.707031 131.546875 L 317.707031 120.011719 L 329.234375 120.011719 L 329.234375 131.546875"/><path d="M 340.761719 131.546875 L 329.234375 131.546875 L 329.234375 120.011719 L 340.761719 120.011719 L 340.761719 131.546875"/><path d="M 352.289062 131.546875 L 340.761719 131.546875 L 340.761719 120.011719 L 352.289062 120.011719 L 352.289062 131.546875"/><path d="M 41.082031 143.082031 L 29.554688 143.082031 L 29.554688 131.546875 L 41.082031 131.546875 L 41.082031 143.082031"/><path d="M 52.609375 143.082031 L 41.082031 143.082031 L 41.082031 131.546875 L 52.609375 131.546875 L 52.609375 143.082031"/><path d="M 64.132812 143.082031 L 52.609375 143.082031 L 52.609375 131.546875 L 64.132812 131.546875 L 64.132812 143.082031"/><path d="M 75.660156 143.082031 L 64.132812 143.082031 L 64.132812 131.546875 L 75.660156 131.546875 L 75.660156 143.082031"/><path d="M 87.1875 143.082031 L 75.660156 143.082031 L 75.660156 131.546875 L 87.1875 131.546875 L 87.1875 143.082031"/><path d="M 98.710938 143.082031 L 87.1875 143.082031 L 87.1875 131.546875 L 98.710938 131.546875 L 98.710938 143.082031"/><path d="M 110.238281 143.082031 L 98.710938 143.082031 L 98.710938 131.546875 L 110.238281 131.546875 L 110.238281 143.082031"/><path d="M 121.765625 143.082031 L 110.238281 143.082031 L 110.238281 131.546875 L 121.765625 131.546875 L 121.765625 143.082031"/><path fill="#636363" d="M 133.289062 143.082031 L 121.765625 143.082031 L 121.765625 131.546875 L 133.289062 131.546875 L 133.289062 143.082031"/><path d="M 144.816406 143.082031 L 133.289062 143.082031 L 133.289062 131.546875 L 144.816406 131.546875 L 144.816406 143.082031"/><path fill="#636363" d="M 156.339844 143.082031 L 144.816406 143.082031 L 144.816406 131.546875 L 156.339844 131.546875 L 156.339844 143.082031"/><path d="M 167.871094 143.082031 L 156.339844 143.082031 L 156.339844 131.546875 L 167.871094 131.546875 L 167.871094 143.082031"/><path d="M 179.394531 143.082031 L 167.871094 143.082031 L 167.871094 131.546875 L 179.394531 131.546875 L 179.394531 143.082031"/><path d="M 202.445312 143.082031 L 190.921875 143.082031 L 190.921875 131.546875 L 202.445312 131.546875 L 202.445312 143.082031"/><path d="M 213.976562 143.082031 L 202.445312 143.082031 L 202.445312 131.546875 L 213.976562 131.546875 L 213.976562 143.082031"/><path d="M 225.5 143.082031 L 213.976562 143.082031 L 213.976562 131.546875 L 225.5 131.546875 L 225.5 143.082031"/><path d="M 237.027344 143.082031 L 225.5 143.082031 L 225.5 131.546875 L 237.027344 131.546875 L 237.027344 143.082031"/><path d="M 248.550781 143.082031 L 237.027344 143.082031 L 237.027344 131.546875 L 248.550781 131.546875 L 248.550781 143.082031"/><path d="M 260.078125 143.082031 L 248.550781 143.082031 L 248.550781 131.546875 L 260.078125 131.546875 L 260.078125 143.082031"/><path d="M 271.605469 143.082031 L 260.078125 143.082031 L 260.078125 131.546875 L 271.605469 131.546875 L 271.605469 143.082031"/><path d="M 283.132812 143.082031 L 271.605469 143.082031 L 271.605469 131.546875 L 283.132812 131.546875 L 283.132812 143.082031"/><path fill="#636363" d="M 294.65625 143.082031 L 283.132812 143.082031 L 283.132812 131.546875 L 294.65625 131.546875 L 294.65625 143.082031"/><path d="M 306.183594 143.082031 L 294.65625 143.082031 L 294.65625 131.546875 L 306.183594 131.546875 L 306.183594 143.082031"/><path fill="#636363" d="M 317.707031 143.082031 L 306.183594 143.082031 L 306.183594 131.546875 L 317.707031 131.546875 L 317.707031 143.082031"/><path d="M 329.234375 143.082031 L 317.707031 143.082031 L 317.707031 131.546875 L 329.234375 131.546875 L 329.234375 143.082031"/><path d="M 340.761719 143.082031 L 329.234375 143.082031 L 329.234375 131.546875 L 340.761719 131.546875 L 340.761719 143.082031"/><path d="M 41.082031 154.617188 L 29.554688 154.617188 L 29.554688 143.082031 L 41.082031 143.082031 L 41.082031 154.617188"/><path d="M 52.609375 154.617188 L 41.082031 154.617188 L 41.082031 143.082031 L 52.609375 143.082031 L 52.609375 154.617188"/><path d="M 64.132812 154.617188 L 52.609375 154.617188 L 52.609375 143.082031 L 64.132812 143.082031 L 64.132812 154.617188"/><path d="M 75.660156 154.617188 L 64.132812 154.617188 L 64.132812 143.082031 L 75.660156 143.082031 L 75.660156 154.617188"/><path d="M 87.1875 154.617188 L 75.660156 154.617188 L 75.660156 143.082031 L 87.1875 143.082031 L 87.1875 154.617188"/><path d="M 98.710938 154.617188 L 87.1875 154.617188 L 87.1875 143.082031 L 98.710938 143.082031 L 98.710938 154.617188"/><path d="M 110.238281 154.617188 L 98.710938 154.617188 L 98.710938 143.082031 L 110.238281 143.082031 L 110.238281 154.617188"/><path fill="#636363" d="M 121.765625 154.617188 L 110.238281 154.617188 L 110.238281 143.082031 L 121.765625 143.082031 L 121.765625 154.617188"/><path d="M 133.289062 154.617188 L 121.765625 154.617188 L 121.765625 143.082031 L 133.289062 143.082031 L 133.289062 154.617188"/><path fill="#636363" d="M 144.816406 154.617188 L 133.289062 154.617188 L 133.289062 143.082031 L 144.816406 143.082031 L 144.816406 154.617188"/><path d="M 156.339844 154.617188 L 144.816406 154.617188 L 144.816406 143.082031 L 156.339844 143.082031 L 156.339844 154.617188"/><path d="M 167.871094 154.617188 L 156.339844 154.617188 L 156.339844 143.082031 L 167.871094 143.082031 L 167.871094 154.617188"/><path d="M 213.976562 154.617188 L 202.445312 154.617188 L 202.445312 143.082031 L 213.976562 143.082031 L 213.976562 154.617188"/><path d="M 225.5 154.617188 L 213.976562 154.617188 L 213.976562 143.082031 L 225.5 143.082031 L 225.5 154.617188"/><path d="M 237.027344 154.617188 L 225.5 154.617188 L 225.5 143.082031 L 237.027344 143.082031 L 237.027344 154.617188"/><path d="M 248.550781 154.617188 L 237.027344 154.617188 L 237.027344 143.082031 L 248.550781 143.082031 L 248.550781 154.617188"/><path d="M 260.078125 154.617188 L 248.550781 154.617188 L 248.550781 143.082031 L 260.078125 143.082031 L 260.078125 154.617188"/><path d="M 271.605469 154.617188 L 260.078125 154.617188 L 260.078125 143.082031 L 271.605469 143.082031 L 271.605469 154.617188"/><path fill="#636363" d="M 283.132812 154.617188 L 271.605469 154.617188 L 271.605469 143.082031 L 283.132812 143.082031 L 283.132812 154.617188"/><path d="M 294.65625 154.617188 L 283.132812 154.617188 L 283.132812 143.082031 L 294.65625 143.082031 L 294.65625 154.617188"/><path fill="#636363" d="M 306.183594 154.617188 L 294.65625 154.617188 L 294.65625 143.082031 L 306.183594 143.082031 L 306.183594 154.617188"/><path d="M 317.707031 154.617188 L 306.183594 154.617188 L 306.183594 143.082031 L 317.707031 143.082031 L 317.707031 154.617188"/><path d="M 329.234375 154.617188 L 317.707031 154.617188 L 317.707031 143.082031 L 329.234375 143.082031 L 329.234375 154.617188"/><path d="M 340.761719 154.617188 L 329.234375 154.617188 L 329.234375 143.082031 L 340.761719 143.082031 L 340.761719 154.617188"/><path d="M 52.609375 166.15625 L 41.082031 166.15625 L 41.082031 154.617188 L 52.609375 154.617188 L 52.609375 166.15625"/><path d="M 64.132812 166.15625 L 52.609375 166.15625 L 52.609375 154.617188 L 64.132812 154.617188 L 64.132812 166.15625"/><path d="M 75.660156 166.15625 L 64.132812 166.15625 L 64.132812 154.617188 L 75.660156 154.617188 L 75.660156 166.15625"/><path d="M 87.1875 166.15625 L 75.660156 166.15625 L 75.660156 154.617188 L 87.1875 154.617188 L 87.1875 166.15625"/><path d="M 98.710938 166.15625 L 87.1875 166.15625 L 87.1875 154.617188 L 98.710938 154.617188 L 98.710938 166.15625"/><path fill="#636363" d="M 110.238281 166.15625 L 98.710938 166.15625 L 98.710938 154.617188 L 110.238281 154.617188 L 110.238281 166.15625"/><path d="M 121.765625 166.15625 L 110.238281 166.15625 L 110.238281 154.617188 L 121.765625 154.617188 L 121.765625 166.15625"/><path d="M 133.289062 166.15625 L 121.765625 166.15625 L 121.765625 154.617188 L 133.289062 154.617188 L 133.289062 166.15625"/><path d="M 144.816406 166.15625 L 133.289062 166.15625 L 133.289062 154.617188 L 144.816406 154.617188 L 144.816406 166.15625"/><path d="M 156.339844 166.15625 L 144.816406 166.15625 L 144.816406 154.617188 L 156.339844 154.617188 L 156.339844 166.15625"/><path d="M 225.5 166.15625 L 213.976562 166.15625 L 213.976562 154.617188 L 225.5 154.617188 L 225.5 166.15625"/><path d="M 237.027344 166.15625 L 225.5 166.15625 L 225.5 154.617188 L 237.027344 154.617188 L 237.027344 166.15625"/><path d="M 248.550781 166.15625 L 237.027344 166.15625 L 237.027344 154.617188 L 248.550781 154.617188 L 248.550781 166.15625"/><path d="M 260.078125 166.15625 L 248.550781 166.15625 L 248.550781 154.617188 L 260.078125 154.617188 L 260.078125 166.15625"/><path d="M 271.605469 166.15625 L 260.078125 166.15625 L 260.078125 154.617188 L 271.605469 154.617188 L 271.605469 166.15625"/><path d="M 283.132812 166.15625 L 271.605469 166.15625 L 271.605469 154.617188 L 283.132812 154.617188 L 283.132812 166.15625"/><path fill="#636363" d="M 294.65625 166.15625 L 283.132812 166.15625 L 283.132812 154.617188 L 294.65625 154.617188 L 294.65625 166.15625"/><path d="M 306.183594 166.15625 L 294.65625 166.15625 L 294.65625 154.617188 L 306.183594 154.617188 L 306.183594 166.15625"/><path d="M 317.707031 166.15625 L 306.183594 166.15625 L 306.183594 154.617188 L 317.707031 154.617188 L 317.707031 166.15625"/><path d="M 329.234375 166.15625 L 317.707031 166.15625 L 317.707031 154.617188 L 329.234375 154.617188 L 329.234375 166.15625"/><path d="M 75.660156 177.6875 L 64.132812 177.6875 L 64.132812 166.15625 L 75.660156 166.15625 L 75.660156 177.6875"/><path d="M 87.1875 177.6875 L 75.660156 177.6875 L 75.660156 166.15625 L 87.1875 166.15625 L 87.1875 177.6875"/><path d="M 98.710938 177.6875 L 87.1875 177.6875 L 87.1875 166.15625 L 98.710938 166.15625 L 98.710938 177.6875"/><path d="M 110.238281 177.6875 L 98.710938 177.6875 L 98.710938 166.15625 L 110.238281 166.15625 L 110.238281 177.6875"/><path d="M 121.765625 177.6875 L 110.238281 177.6875 L 110.238281 166.15625 L 121.765625 166.15625 L 121.765625 177.6875"/><path d="M 133.289062 177.6875 L 121.765625 177.6875 L 121.765625 166.15625 L 133.289062 166.15625 L 133.289062 177.6875"/><path d="M 144.816406 177.6875 L 133.289062 177.6875 L 133.289062 166.15625 L 144.816406 166.15625 L 144.816406 177.6875"/><path d="M 237.027344 177.6875 L 225.5 177.6875 L 225.5 166.15625 L 237.027344 166.15625 L 237.027344 177.6875"/><path d="M 248.550781 177.6875 L 237.027344 177.6875 L 237.027344 166.15625 L 248.550781 166.15625 L 248.550781 177.6875"/><path d="M 260.078125 177.6875 L 248.550781 177.6875 L 248.550781 166.15625 L 260.078125 166.15625 L 260.078125 177.6875"/><path d="M 271.605469 177.6875 L 260.078125 177.6875 L 260.078125 166.15625 L 271.605469 166.15625 L 271.605469 177.6875"/><path d="M 283.132812 177.6875 L 271.605469 177.6875 L 271.605469 166.15625 L 283.132812 166.15625 L 283.132812 177.6875"/><path d="M 294.65625 177.6875 L 283.132812 177.6875 L 283.132812 166.15625 L 294.65625 166.15625 L 294.65625 177.6875"/><path d="M 306.183594 177.6875 L 294.65625 177.6875 L 294.65625 166.15625 L 306.183594 166.15625 L 306.183594 177.6875"/></svg>