<svg xmlns="http://www.w3.org/2000/svg" width="375" viewBox="0 0 375 375" height="375" version="1.0"><defs><clipPath id="a"><path d="M 10 9.140625 L 368 9.140625 L 368 366.140625 L 10 366.140625 Z M 10 9.140625"/></clipPath><clipPath id="b"><path d="M 10 9.140625 L 345 9.140625 L 345 344 L 10 344 Z M 10 9.140625"/></clipPath></defs><g clip-path="url(#a)"><path fill="#F9C432" d="M 315.515625 313.496094 C 302.042969 327.046875 286.492188 338.277344 269.578125 346.808594 C 261.589844 350.847656 253.292969 354.285156 244.769531 357.078125 C 231.5625 361.386719 217.84375 364.199219 203.832031 365.40625 C 198.945312 365.804688 193.925781 366.03125 188.949219 366.03125 C 186.855469 366.03125 184.757812 365.984375 182.636719 365.921875 C 152.878906 364.894531 123.808594 356.429688 98.304688 341.3125 L 25.910156 351.964844 L 29.59375 325.816406 L 36.105469 279.445312 C 25.398438 261.582031 17.96875 242.15625 14.042969 221.636719 C 12.703125 214.648438 11.785156 207.484375 11.296875 200.40625 C 9.648438 176.917969 12.636719 153.652344 19.796875 131.863281 C 22.585938 123.308594 26.023438 115.023438 30.058594 107.03125 C 38.402344 90.511719 49.3125 75.261719 62.609375 61.90625 C 96.164062 28.105469 140.875 9.394531 188.527344 9.261719 L 189.105469 9.261719 C 231.363281 9.261719 271.453125 23.90625 303.46875 50.832031 C 307.351562 54.070312 311.101562 57.511719 314.734375 61.125 L 315.136719 61.503906 C 384.429688 130.878906 384.609375 243.898438 315.515625 313.496094"/></g><g clip-path="url(#b)"><path fill="#FFCF36" d="M 293.207031 291.167969 C 279.730469 304.722656 264.179688 315.949219 247.269531 324.476562 C 239.285156 328.519531 230.984375 331.960938 222.460938 334.75 C 209.253906 339.0625 195.53125 341.871094 181.523438 343.078125 C 176.636719 343.480469 171.613281 343.703125 166.644531 343.703125 C 164.542969 343.703125 162.445312 343.660156 160.328125 343.59375 C 130.566406 342.566406 101.496094 334.101562 75.996094 318.988281 L 29.59375 325.816406 L 36.105469 279.445312 C 25.398438 261.582031 17.96875 242.15625 14.042969 221.636719 C 12.703125 214.648438 11.785156 207.484375 11.296875 200.40625 C 9.648438 176.917969 12.636719 153.652344 19.796875 131.863281 C 22.585938 123.308594 26.023438 115.023438 30.058594 107.03125 C 38.402344 90.511719 49.3125 75.261719 62.609375 61.90625 C 96.164062 28.105469 140.875 9.394531 188.527344 9.261719 L 189.105469 9.261719 C 231.363281 9.261719 271.453125 23.90625 303.46875 50.832031 C 361.945312 120.671875 358.550781 225.347656 293.207031 291.167969"/></g><path fill="#FF2424" d="M 244.65625 239.695312 L 244.65625 279.1875 C 229.121094 288.1875 211.703125 293.234375 193.757812 293.988281 L 193.757812 239.695312 C 193.757812 225.765625 205.082031 214.433594 219 214.433594 L 219.375 214.433594 C 233.296875 214.433594 244.65625 225.765625 244.65625 239.695312"/><path fill="#191919" d="M 244.65625 239.695312 L 244.65625 274.445312 L 232.882812 274.445312 L 232.882812 239.695312 C 232.882812 232.238281 226.824219 226.179688 219.375 226.179688 L 219 226.179688 C 211.550781 226.179688 205.496094 232.238281 205.496094 239.695312 L 205.496094 290.671875 L 193.757812 290.671875 L 193.757812 239.695312 C 193.757812 225.765625 205.082031 214.433594 219 214.433594 L 219.375 214.433594 C 233.296875 214.433594 244.65625 225.765625 244.65625 239.695312"/><path fill="#191919" d="M 225.074219 281.269531 L 213.328125 281.269531 L 213.328125 255.574219 C 213.328125 252.359375 215.929688 249.753906 219.140625 249.753906 L 219.257812 249.753906 C 222.46875 249.753906 225.074219 252.359375 225.074219 255.574219 L 225.074219 281.269531"/><path fill="#191919" d="M 290.105469 229.757812 C 281.226562 248.695312 267.230469 264.730469 249.625 276.179688 C 248.007812 277.234375 246.351562 278.25 244.65625 279.1875 C 229.121094 288.1875 211.703125 293.234375 193.757812 293.988281 C 192.214844 294.0625 190.632812 294.101562 189.054688 294.101562 C 181.078125 294.101562 173.21875 293.269531 165.542969 291.613281 C 163.289062 291.125 161.066406 290.5625 158.847656 289.917969 C 154.972656 288.867188 151.132812 287.546875 147.410156 286.003906 C 143.308594 284.347656 139.285156 282.429688 135.371094 280.28125 C 133 279.003906 130.703125 277.648438 128.449219 276.179688 C 127.394531 275.503906 126.378906 274.824219 125.363281 274.109375 C 121.601562 271.46875 118.0625 268.648438 114.679688 265.597656 C 111.667969 262.964844 108.808594 260.101562 106.140625 257.128906 C 105.464844 256.375 104.820312 255.625 104.144531 254.867188 C 97.714844 247.300781 92.257812 238.867188 87.96875 229.757812 L 98.617188 224.746094 C 102.378906 232.804688 107.195312 240.222656 112.796875 246.8125 C 114.601562 248.957031 116.523438 251.027344 118.515625 252.984375 C 119.117188 253.625 119.792969 254.265625 120.4375 254.867188 C 120.621094 255.058594 120.8125 255.246094 121 255.398438 C 121.828125 256.183594 122.652344 256.9375 123.519531 257.65625 C 123.707031 257.84375 123.933594 258.03125 124.160156 258.222656 C 125.703125 259.535156 127.28125 260.820312 128.898438 262.058594 C 129.839844 262.738281 130.78125 263.453125 131.757812 264.128906 C 132.285156 264.503906 132.773438 264.84375 133.300781 265.1875 C 134.203125 265.824219 135.144531 266.425781 136.046875 266.992188 C 136.160156 267.027344 136.234375 267.105469 136.3125 267.179688 C 136.347656 267.179688 136.386719 267.21875 136.425781 267.253906 C 136.5 267.292969 136.574219 267.332031 136.648438 267.367188 C 137.515625 267.894531 138.34375 268.386719 139.207031 268.871094 C 140.035156 269.363281 140.902344 269.855469 141.765625 270.304688 L 144.585938 271.773438 C 149.480469 274.21875 154.59375 276.289062 159.863281 277.910156 C 160.730469 278.175781 161.554688 278.4375 162.460938 278.660156 C 163.472656 278.964844 164.492188 279.226562 165.542969 279.492188 C 173.144531 281.335938 181.042969 282.316406 189.054688 282.316406 C 190.632812 282.316406 192.179688 282.277344 193.757812 282.164062 C 197.707031 282.015625 201.621094 281.601562 205.496094 280.921875 C 208.128906 280.472656 210.761719 279.945312 213.320312 279.265625 C 217.308594 278.25 221.257812 277.007812 225.058594 275.503906 C 227.726562 274.484375 230.324219 273.316406 232.882812 272.074219 C 236.945312 270.082031 240.894531 267.785156 244.65625 265.261719 C 259.441406 255.355469 271.632812 241.464844 279.457031 224.746094 L 290.105469 229.757812"/><path fill="#191919" d="M 85.875 236.542969 C 80.523438 236.542969 75.296875 234.566406 71.277344 230.960938 C 68.3125 228.300781 69.097656 223.421875 72.632812 221.589844 L 72.753906 221.527344 C 74.949219 220.386719 77.515625 220.886719 79.421875 222.46875 C 82.429688 224.96875 86.765625 225.574219 90.449219 223.664062 C 94.253906 221.691406 96.265625 217.617188 95.804688 213.59375 C 95.539062 211.269531 96.832031 209.046875 98.910156 207.96875 L 99.015625 207.914062 C 102.609375 206.054688 107.050781 208.328125 107.488281 212.355469 C 108.4375 221.050781 104.066406 229.847656 95.855469 234.101562 C 92.660156 235.757812 89.242188 236.542969 85.875 236.542969"/><path fill="#191919" d="M 292.203125 236.542969 C 288.832031 236.542969 285.417969 235.757812 282.222656 234.101562 C 274.007812 229.847656 269.640625 221.050781 270.585938 212.355469 C 271.023438 208.328125 275.46875 206.054688 279.0625 207.914062 L 279.167969 207.96875 C 281.242188 209.046875 282.535156 211.269531 282.269531 213.59375 C 281.808594 217.617188 283.824219 221.691406 287.625 223.664062 C 291.3125 225.574219 295.644531 224.96875 298.65625 222.46875 C 300.558594 220.886719 303.125 220.386719 305.324219 221.527344 L 305.441406 221.589844 C 308.980469 223.421875 309.765625 228.300781 306.796875 230.960938 C 302.78125 234.566406 297.554688 236.542969 292.203125 236.542969"/><path d="M 39.199219 99.980469 L 27.671875 99.980469 L 27.671875 88.445312 L 39.199219 88.445312 L 39.199219 99.980469"/><path d="M 50.722656 99.980469 L 39.199219 99.980469 L 39.199219 88.445312 L 50.722656 88.445312 L 50.722656 99.980469"/><path d="M 62.25 99.980469 L 50.722656 99.980469 L 50.722656 88.445312 L 62.25 88.445312 L 62.25 99.980469"/><path d="M 73.777344 99.980469 L 62.25 99.980469 L 62.25 88.445312 L 73.777344 88.445312 L 73.777344 99.980469"/><path d="M 85.304688 99.980469 L 73.777344 99.980469 L 73.777344 88.445312 L 85.304688 88.445312 L 85.304688 99.980469"/><path d="M 96.828125 99.980469 L 85.304688 99.980469 L 85.304688 88.445312 L 96.828125 88.445312 L 96.828125 99.980469"/><path d="M 108.355469 99.980469 L 96.828125 99.980469 L 96.828125 88.445312 L 108.355469 88.445312 L 108.355469 99.980469"/><path d="M 119.882812 99.980469 L 108.355469 99.980469 L 108.355469 88.445312 L 119.882812 88.445312 L 119.882812 99.980469"/><path d="M 131.40625 99.980469 L 119.882812 99.980469 L 119.882812 88.445312 L 131.40625 88.445312 L 131.40625 99.980469"/><path d="M 142.933594 99.980469 L 131.40625 99.980469 L 131.40625 88.445312 L 142.933594 88.445312 L 142.933594 99.980469"/><path d="M 154.457031 99.980469 L 142.933594 99.980469 L 142.933594 88.445312 L 154.457031 88.445312 L 154.457031 99.980469"/><path d="M 165.984375 99.980469 L 154.457031 99.980469 L 154.457031 88.445312 L 165.984375 88.445312 L 165.984375 99.980469"/><path d="M 177.511719 99.980469 L 165.984375 99.980469 L 165.984375 88.445312 L 177.511719 88.445312 L 177.511719 99.980469"/><path d="M 189.039062 99.980469 L 177.511719 99.980469 L 177.511719 88.445312 L 189.039062 88.445312 L 189.039062 99.980469"/><path d="M 200.5625 99.980469 L 189.039062 99.980469 L 189.039062 88.445312 L 200.5625 88.445312 L 200.5625 99.980469"/><path d="M 212.089844 99.980469 L 200.5625 99.980469 L 200.5625 88.445312 L 212.089844 88.445312 L 212.089844 99.980469"/><path d="M 223.613281 99.980469 L 212.089844 99.980469 L 212.089844 88.445312 L 223.613281 88.445312 L 223.613281 99.980469"/><path d="M 235.144531 99.980469 L 223.613281 99.980469 L 223.613281 88.445312 L 235.144531 88.445312 L 235.144531 99.980469"/><path d="M 246.667969 99.980469 L 235.144531 99.980469 L 235.144531 88.445312 L 246.667969 88.445312 L 246.667969 99.980469"/><path d="M 258.195312 99.980469 L 246.667969 99.980469 L 246.667969 88.445312 L 258.195312 88.445312 L 258.195312 99.980469"/><path d="M 269.71875 99.980469 L 258.195312 99.980469 L 258.195312 88.445312 L 269.71875 88.445312 L 269.71875 99.980469"/><path d="M 281.25 99.980469 L 269.71875 99.980469 L 269.71875 88.445312 L 281.25 88.445312 L 281.25 99.980469"/><path d="M 292.773438 99.980469 L 281.25 99.980469 L 281.25 88.445312 L 292.773438 88.445312 L 292.773438 99.980469"/><path d="M 304.300781 99.980469 L 292.773438 99.980469 L 292.773438 88.445312 L 304.300781 88.445312 L 304.300781 99.980469"/><path d="M 315.824219 99.980469 L 304.300781 99.980469 L 304.300781 88.445312 L 315.824219 88.445312 L 315.824219 99.980469"/><path d="M 327.351562 99.980469 L 315.824219 99.980469 L 315.824219 88.445312 L 327.351562 88.445312 L 327.351562 99.980469"/><path d="M 338.878906 99.980469 L 327.351562 99.980469 L 327.351562 88.445312 L 338.878906 88.445312 L 338.878906 99.980469"/><path d="M 350.40625 99.980469 L 338.878906 99.980469 L 338.878906 88.445312 L 350.40625 88.445312 L 350.40625 99.980469"/><path d="M 361.929688 99.980469 L 350.40625 99.980469 L 350.40625 88.445312 L 361.929688 88.445312 L 361.929688 99.980469"/><path d="M 39.199219 111.515625 L 27.671875 111.515625 L 27.671875 99.980469 L 39.199219 99.980469 L 39.199219 111.515625"/><path d="M 50.722656 111.515625 L 39.199219 111.515625 L 39.199219 99.980469 L 50.722656 99.980469 L 50.722656 111.515625"/><path d="M 62.25 111.515625 L 50.722656 111.515625 L 50.722656 99.980469 L 62.25 99.980469 L 62.25 111.515625"/><path d="M 73.777344 111.515625 L 62.25 111.515625 L 62.25 99.980469 L 73.777344 99.980469 L 73.777344 111.515625"/><path d="M 85.304688 111.515625 L 73.777344 111.515625 L 73.777344 99.980469 L 85.304688 99.980469 L 85.304688 111.515625"/><path d="M 96.828125 111.515625 L 85.304688 111.515625 L 85.304688 99.980469 L 96.828125 99.980469 L 96.828125 111.515625"/><path d="M 108.355469 111.515625 L 96.828125 111.515625 L 96.828125 99.980469 L 108.355469 99.980469 L 108.355469 111.515625"/><path d="M 119.882812 111.515625 L 108.355469 111.515625 L 108.355469 99.980469 L 119.882812 99.980469 L 119.882812 111.515625"/><path d="M 131.40625 111.515625 L 119.882812 111.515625 L 119.882812 99.980469 L 131.40625 99.980469 L 131.40625 111.515625"/><path d="M 142.933594 111.515625 L 131.40625 111.515625 L 131.40625 99.980469 L 142.933594 99.980469 L 142.933594 111.515625"/><path d="M 154.457031 111.515625 L 142.933594 111.515625 L 142.933594 99.980469 L 154.457031 99.980469 L 154.457031 111.515625"/><path d="M 165.984375 111.515625 L 154.457031 111.515625 L 154.457031 99.980469 L 165.984375 99.980469 L 165.984375 111.515625"/><path d="M 177.511719 111.515625 L 165.984375 111.515625 L 165.984375 99.980469 L 177.511719 99.980469 L 177.511719 111.515625"/><path d="M 189.039062 111.515625 L 177.511719 111.515625 L 177.511719 99.980469 L 189.039062 99.980469 L 189.039062 111.515625"/><path d="M 27.671875 99.980469 L 16.148438 99.980469 L 16.148438 88.445312 L 27.671875 88.445312 L 27.671875 99.980469"/><path d="M 27.671875 111.515625 L 16.148438 111.515625 L 16.148438 99.980469 L 27.671875 99.980469 L 27.671875 111.515625"/><path d="M 200.5625 111.515625 L 189.039062 111.515625 L 189.039062 99.980469 L 200.5625 99.980469 L 200.5625 111.515625"/><path d="M 212.089844 111.515625 L 200.5625 111.515625 L 200.5625 99.980469 L 212.089844 99.980469 L 212.089844 111.515625"/><path d="M 223.613281 111.515625 L 212.089844 111.515625 L 212.089844 99.980469 L 223.613281 99.980469 L 223.613281 111.515625"/><path d="M 235.144531 111.515625 L 223.613281 111.515625 L 223.613281 99.980469 L 235.144531 99.980469 L 235.144531 111.515625"/><path d="M 246.667969 111.515625 L 235.144531 111.515625 L 235.144531 99.980469 L 246.667969 99.980469 L 246.667969 111.515625"/><path d="M 258.195312 111.515625 L 246.667969 111.515625 L 246.667969 99.980469 L 258.195312 99.980469 L 258.195312 111.515625"/><path d="M 269.71875 111.515625 L 258.195312 111.515625 L 258.195312 99.980469 L 269.71875 99.980469 L 269.71875 111.515625"/><path d="M 281.25 111.515625 L 269.71875 111.515625 L 269.71875 99.980469 L 281.25 99.980469 L 281.25 111.515625"/><path d="M 292.773438 111.515625 L 281.25 111.515625 L 281.25 99.980469 L 292.773438 99.980469 L 292.773438 111.515625"/><path d="M 304.300781 111.515625 L 292.773438 111.515625 L 292.773438 99.980469 L 304.300781 99.980469 L 304.300781 111.515625"/><path d="M 315.824219 111.515625 L 304.300781 111.515625 L 304.300781 99.980469 L 315.824219 99.980469 L 315.824219 111.515625"/><path d="M 327.351562 111.515625 L 315.824219 111.515625 L 315.824219 99.980469 L 327.351562 99.980469 L 327.351562 111.515625"/><path d="M 338.878906 111.515625 L 327.351562 111.515625 L 327.351562 99.980469 L 338.878906 99.980469 L 338.878906 111.515625"/><path d="M 350.40625 111.515625 L 338.878906 111.515625 L 338.878906 99.980469 L 350.40625 99.980469 L 350.40625 111.515625"/><path d="M 361.929688 111.515625 L 350.40625 111.515625 L 350.40625 99.980469 L 361.929688 99.980469 L 361.929688 111.515625"/><path d="M 39.199219 123.054688 L 27.671875 123.054688 L 27.671875 111.515625 L 39.199219 111.515625 L 39.199219 123.054688"/><path d="M 50.722656 123.054688 L 39.199219 123.054688 L 39.199219 111.515625 L 50.722656 111.515625 L 50.722656 123.054688"/><path d="M 62.25 123.054688 L 50.722656 123.054688 L 50.722656 111.515625 L 62.25 111.515625 L 62.25 123.054688"/><path d="M 73.777344 123.054688 L 62.25 123.054688 L 62.25 111.515625 L 73.777344 111.515625 L 73.777344 123.054688"/><path d="M 85.304688 123.054688 L 73.777344 123.054688 L 73.777344 111.515625 L 85.304688 111.515625 L 85.304688 123.054688"/><path d="M 96.828125 123.054688 L 85.304688 123.054688 L 85.304688 111.515625 L 96.828125 111.515625 L 96.828125 123.054688"/><path d="M 108.355469 123.054688 L 96.828125 123.054688 L 96.828125 111.515625 L 108.355469 111.515625 L 108.355469 123.054688"/><path d="M 119.882812 123.054688 L 108.355469 123.054688 L 108.355469 111.515625 L 119.882812 111.515625 L 119.882812 123.054688"/><path d="M 131.40625 123.054688 L 119.882812 123.054688 L 119.882812 111.515625 L 131.40625 111.515625 L 131.40625 123.054688"/><path d="M 142.933594 123.054688 L 131.40625 123.054688 L 131.40625 111.515625 L 142.933594 111.515625 L 142.933594 123.054688"/><path fill="#636363" d="M 154.457031 123.054688 L 142.933594 123.054688 L 142.933594 111.515625 L 154.457031 111.515625 L 154.457031 123.054688"/><path d="M 165.984375 123.054688 L 154.457031 123.054688 L 154.457031 111.515625 L 165.984375 111.515625 L 165.984375 123.054688"/><path fill="#636363" d="M 177.511719 123.054688 L 165.984375 123.054688 L 165.984375 111.515625 L 177.511719 111.515625 L 177.511719 123.054688"/><path d="M 189.039062 123.054688 L 177.511719 123.054688 L 177.511719 111.515625 L 189.039062 111.515625 L 189.039062 123.054688"/><path d="M 212.089844 123.054688 L 200.5625 123.054688 L 200.5625 111.515625 L 212.089844 111.515625 L 212.089844 123.054688"/><path d="M 223.613281 123.054688 L 212.089844 123.054688 L 212.089844 111.515625 L 223.613281 111.515625 L 223.613281 123.054688"/><path d="M 235.144531 123.054688 L 223.613281 123.054688 L 223.613281 111.515625 L 235.144531 111.515625 L 235.144531 123.054688"/><path d="M 246.667969 123.054688 L 235.144531 123.054688 L 235.144531 111.515625 L 246.667969 111.515625 L 246.667969 123.054688"/><path d="M 258.195312 123.054688 L 246.667969 123.054688 L 246.667969 111.515625 L 258.195312 111.515625 L 258.195312 123.054688"/><path d="M 269.71875 123.054688 L 258.195312 123.054688 L 258.195312 111.515625 L 269.71875 111.515625 L 269.71875 123.054688"/><path d="M 281.25 123.054688 L 269.71875 123.054688 L 269.71875 111.515625 L 281.25 111.515625 L 281.25 123.054688"/><path d="M 292.773438 123.054688 L 281.25 123.054688 L 281.25 111.515625 L 292.773438 111.515625 L 292.773438 123.054688"/><path d="M 304.300781 123.054688 L 292.773438 123.054688 L 292.773438 111.515625 L 304.300781 111.515625 L 304.300781 123.054688"/><path fill="#636363" d="M 315.824219 123.054688 L 304.300781 123.054688 L 304.300781 111.515625 L 315.824219 111.515625 L 315.824219 123.054688"/><path d="M 327.351562 123.054688 L 315.824219 123.054688 L 315.824219 111.515625 L 327.351562 111.515625 L 327.351562 123.054688"/><path fill="#636363" d="M 338.878906 123.054688 L 327.351562 123.054688 L 327.351562 111.515625 L 338.878906 111.515625 L 338.878906 123.054688"/><path d="M 350.40625 123.054688 L 338.878906 123.054688 L 338.878906 111.515625 L 350.40625 111.515625 L 350.40625 123.054688"/><path d="M 361.929688 123.054688 L 350.40625 123.054688 L 350.40625 111.515625 L 361.929688 111.515625 L 361.929688 123.054688"/><path d="M 50.722656 134.589844 L 39.199219 134.589844 L 39.199219 123.054688 L 50.722656 123.054688 L 50.722656 134.589844"/><path d="M 62.25 134.589844 L 50.722656 134.589844 L 50.722656 123.054688 L 62.25 123.054688 L 62.25 134.589844"/><path d="M 73.777344 134.589844 L 62.25 134.589844 L 62.25 123.054688 L 73.777344 123.054688 L 73.777344 134.589844"/><path d="M 85.304688 134.589844 L 73.777344 134.589844 L 73.777344 123.054688 L 85.304688 123.054688 L 85.304688 134.589844"/><path d="M 96.828125 134.589844 L 85.304688 134.589844 L 85.304688 123.054688 L 96.828125 123.054688 L 96.828125 134.589844"/><path d="M 108.355469 134.589844 L 96.828125 134.589844 L 96.828125 123.054688 L 108.355469 123.054688 L 108.355469 134.589844"/><path d="M 119.882812 134.589844 L 108.355469 134.589844 L 108.355469 123.054688 L 119.882812 123.054688 L 119.882812 134.589844"/><path d="M 131.40625 134.589844 L 119.882812 134.589844 L 119.882812 123.054688 L 131.40625 123.054688 L 131.40625 134.589844"/><path fill="#636363" d="M 142.933594 134.589844 L 131.40625 134.589844 L 131.40625 123.054688 L 142.933594 123.054688 L 142.933594 134.589844"/><path d="M 154.457031 134.589844 L 142.933594 134.589844 L 142.933594 123.054688 L 154.457031 123.054688 L 154.457031 134.589844"/><path fill="#636363" d="M 165.984375 134.589844 L 154.457031 134.589844 L 154.457031 123.054688 L 165.984375 123.054688 L 165.984375 134.589844"/><path d="M 177.511719 134.589844 L 165.984375 134.589844 L 165.984375 123.054688 L 177.511719 123.054688 L 177.511719 134.589844"/><path d="M 189.039062 134.589844 L 177.511719 134.589844 L 177.511719 123.054688 L 189.039062 123.054688 L 189.039062 134.589844"/><path d="M 212.089844 134.589844 L 200.5625 134.589844 L 200.5625 123.054688 L 212.089844 123.054688 L 212.089844 134.589844"/><path d="M 223.613281 134.589844 L 212.089844 134.589844 L 212.089844 123.054688 L 223.613281 123.054688 L 223.613281 134.589844"/><path d="M 235.144531 134.589844 L 223.613281 134.589844 L 223.613281 123.054688 L 235.144531 123.054688 L 235.144531 134.589844"/><path d="M 246.667969 134.589844 L 235.144531 134.589844 L 235.144531 123.054688 L 246.667969 123.054688 L 246.667969 134.589844"/><path d="M 258.195312 134.589844 L 246.667969 134.589844 L 246.667969 123.054688 L 258.195312 123.054688 L 258.195312 134.589844"/><path d="M 269.71875 134.589844 L 258.195312 134.589844 L 258.195312 123.054688 L 269.71875 123.054688 L 269.71875 134.589844"/><path d="M 281.25 134.589844 L 269.71875 134.589844 L 269.71875 123.054688 L 281.25 123.054688 L 281.25 134.589844"/><path d="M 292.773438 134.589844 L 281.25 134.589844 L 281.25 123.054688 L 292.773438 123.054688 L 292.773438 134.589844"/><path fill="#636363" d="M 304.300781 134.589844 L 292.773438 134.589844 L 292.773438 123.054688 L 304.300781 123.054688 L 304.300781 134.589844"/><path d="M 315.824219 134.589844 L 304.300781 134.589844 L 304.300781 123.054688 L 315.824219 123.054688 L 315.824219 134.589844"/><path fill="#636363" d="M 327.351562 134.589844 L 315.824219 134.589844 L 315.824219 123.054688 L 327.351562 123.054688 L 327.351562 134.589844"/><path d="M 338.878906 134.589844 L 327.351562 134.589844 L 327.351562 123.054688 L 338.878906 123.054688 L 338.878906 134.589844"/><path d="M 350.40625 134.589844 L 338.878906 134.589844 L 338.878906 123.054688 L 350.40625 123.054688 L 350.40625 134.589844"/><path d="M 50.722656 146.125 L 39.199219 146.125 L 39.199219 134.589844 L 50.722656 134.589844 L 50.722656 146.125"/><path d="M 62.25 146.125 L 50.722656 146.125 L 50.722656 134.589844 L 62.25 134.589844 L 62.25 146.125"/><path d="M 73.777344 146.125 L 62.25 146.125 L 62.25 134.589844 L 73.777344 134.589844 L 73.777344 146.125"/><path d="M 85.304688 146.125 L 73.777344 146.125 L 73.777344 134.589844 L 85.304688 134.589844 L 85.304688 146.125"/><path d="M 96.828125 146.125 L 85.304688 146.125 L 85.304688 134.589844 L 96.828125 134.589844 L 96.828125 146.125"/><path d="M 108.355469 146.125 L 96.828125 146.125 L 96.828125 134.589844 L 108.355469 134.589844 L 108.355469 146.125"/><path d="M 119.882812 146.125 L 108.355469 146.125 L 108.355469 134.589844 L 119.882812 134.589844 L 119.882812 146.125"/><path fill="#636363" d="M 131.40625 146.125 L 119.882812 146.125 L 119.882812 134.589844 L 131.40625 134.589844 L 131.40625 146.125"/><path d="M 142.933594 146.125 L 131.40625 146.125 L 131.40625 134.589844 L 142.933594 134.589844 L 142.933594 146.125"/><path fill="#636363" d="M 154.457031 146.125 L 142.933594 146.125 L 142.933594 134.589844 L 154.457031 134.589844 L 154.457031 146.125"/><path d="M 165.984375 146.125 L 154.457031 146.125 L 154.457031 134.589844 L 165.984375 134.589844 L 165.984375 146.125"/><path d="M 177.511719 146.125 L 165.984375 146.125 L 165.984375 134.589844 L 177.511719 134.589844 L 177.511719 146.125"/><path d="M 223.613281 146.125 L 212.089844 146.125 L 212.089844 134.589844 L 223.613281 134.589844 L 223.613281 146.125"/><path d="M 235.144531 146.125 L 223.613281 146.125 L 223.613281 134.589844 L 235.144531 134.589844 L 235.144531 146.125"/><path d="M 246.667969 146.125 L 235.144531 146.125 L 235.144531 134.589844 L 246.667969 134.589844 L 246.667969 146.125"/><path d="M 258.195312 146.125 L 246.667969 146.125 L 246.667969 134.589844 L 258.195312 134.589844 L 258.195312 146.125"/><path d="M 269.71875 146.125 L 258.195312 146.125 L 258.195312 134.589844 L 269.71875 134.589844 L 269.71875 146.125"/><path d="M 281.25 146.125 L 269.71875 146.125 L 269.71875 134.589844 L 281.25 134.589844 L 281.25 146.125"/><path fill="#636363" d="M 292.773438 146.125 L 281.25 146.125 L 281.25 134.589844 L 292.773438 134.589844 L 292.773438 146.125"/><path d="M 304.300781 146.125 L 292.773438 146.125 L 292.773438 134.589844 L 304.300781 134.589844 L 304.300781 146.125"/><path fill="#636363" d="M 315.824219 146.125 L 304.300781 146.125 L 304.300781 134.589844 L 315.824219 134.589844 L 315.824219 146.125"/><path d="M 327.351562 146.125 L 315.824219 146.125 L 315.824219 134.589844 L 327.351562 134.589844 L 327.351562 146.125"/><path d="M 338.878906 146.125 L 327.351562 146.125 L 327.351562 134.589844 L 338.878906 134.589844 L 338.878906 146.125"/><path d="M 350.40625 146.125 L 338.878906 146.125 L 338.878906 134.589844 L 350.40625 134.589844 L 350.40625 146.125"/><path d="M 62.25 157.65625 L 50.722656 157.65625 L 50.722656 146.125 L 62.25 146.125 L 62.25 157.65625"/><path d="M 73.777344 157.65625 L 62.25 157.65625 L 62.25 146.125 L 73.777344 146.125 L 73.777344 157.65625"/><path d="M 85.304688 157.65625 L 73.777344 157.65625 L 73.777344 146.125 L 85.304688 146.125 L 85.304688 157.65625"/><path d="M 96.828125 157.65625 L 85.304688 157.65625 L 85.304688 146.125 L 96.828125 146.125 L 96.828125 157.65625"/><path d="M 108.355469 157.65625 L 96.828125 157.65625 L 96.828125 146.125 L 108.355469 146.125 L 108.355469 157.65625"/><path fill="#636363" d="M 119.882812 157.65625 L 108.355469 157.65625 L 108.355469 146.125 L 119.882812 146.125 L 119.882812 157.65625"/><path d="M 131.40625 157.65625 L 119.882812 157.65625 L 119.882812 146.125 L 131.40625 146.125 L 131.40625 157.65625"/><path d="M 142.933594 157.65625 L 131.40625 157.65625 L 131.40625 146.125 L 142.933594 146.125 L 142.933594 157.65625"/><path d="M 154.457031 157.65625 L 142.933594 157.65625 L 142.933594 146.125 L 154.457031 146.125 L 154.457031 157.65625"/><path d="M 165.984375 157.65625 L 154.457031 157.65625 L 154.457031 146.125 L 165.984375 146.125 L 165.984375 157.65625"/><path d="M 235.144531 157.65625 L 223.613281 157.65625 L 223.613281 146.125 L 235.144531 146.125 L 235.144531 157.65625"/><path d="M 246.667969 157.65625 L 235.144531 157.65625 L 235.144531 146.125 L 246.667969 146.125 L 246.667969 157.65625"/><path d="M 258.195312 157.65625 L 246.667969 157.65625 L 246.667969 146.125 L 258.195312 146.125 L 258.195312 157.65625"/><path d="M 269.71875 157.65625 L 258.195312 157.65625 L 258.195312 146.125 L 269.71875 146.125 L 269.71875 157.65625"/><path d="M 281.25 157.65625 L 269.71875 157.65625 L 269.71875 146.125 L 281.25 146.125 L 281.25 157.65625"/><path d="M 292.773438 157.65625 L 281.25 157.65625 L 281.25 146.125 L 292.773438 146.125 L 292.773438 157.65625"/><path fill="#636363" d="M 304.300781 157.65625 L 292.773438 157.65625 L 292.773438 146.125 L 304.300781 146.125 L 304.300781 157.65625"/><path d="M 315.824219 157.65625 L 304.300781 157.65625 L 304.300781 146.125 L 315.824219 146.125 L 315.824219 157.65625"/><path d="M 327.351562 157.65625 L 315.824219 157.65625 L 315.824219 146.125 L 327.351562 146.125 L 327.351562 157.65625"/><path d="M 338.878906 157.65625 L 327.351562 157.65625 L 327.351562 146.125 L 338.878906 146.125 L 338.878906 157.65625"/><path d="M 85.304688 169.191406 L 73.777344 169.191406 L 73.777344 157.65625 L 85.304688 157.65625 L 85.304688 169.191406"/><path d="M 96.828125 169.191406 L 85.304688 169.191406 L 85.304688 157.65625 L 96.828125 157.65625 L 96.828125 169.191406"/><path d="M 108.355469 169.191406 L 96.828125 169.191406 L 96.828125 157.65625 L 108.355469 157.65625 L 108.355469 169.191406"/><path d="M 119.882812 169.191406 L 108.355469 169.191406 L 108.355469 157.65625 L 119.882812 157.65625 L 119.882812 169.191406"/><path d="M 131.40625 169.191406 L 119.882812 169.191406 L 119.882812 157.65625 L 131.40625 157.65625 L 131.40625 169.191406"/><path d="M 142.933594 169.191406 L 131.40625 169.191406 L 131.40625 157.65625 L 142.933594 157.65625 L 142.933594 169.191406"/><path d="M 154.457031 169.191406 L 142.933594 169.191406 L 142.933594 157.65625 L 154.457031 157.65625 L 154.457031 169.191406"/><path d="M 246.667969 169.191406 L 235.144531 169.191406 L 235.144531 157.65625 L 246.667969 157.65625 L 246.667969 169.191406"/><path d="M 258.195312 169.191406 L 246.667969 169.191406 L 246.667969 157.65625 L 258.195312 157.65625 L 258.195312 169.191406"/><path d="M 269.71875 169.191406 L 258.195312 169.191406 L 258.195312 157.65625 L 269.71875 157.65625 L 269.71875 169.191406"/><path d="M 281.25 169.191406 L 269.71875 169.191406 L 269.71875 157.65625 L 281.25 157.65625 L 281.25 169.191406"/><path d="M 292.773438 169.191406 L 281.25 169.191406 L 281.25 157.65625 L 292.773438 157.65625 L 292.773438 169.191406"/><path d="M 304.300781 169.191406 L 292.773438 169.191406 L 292.773438 157.65625 L 304.300781 157.65625 L 304.300781 169.191406"/><path d="M 315.824219 169.191406 L 304.300781 169.191406 L 304.300781 157.65625 L 315.824219 157.65625 L 315.824219 169.191406"/></svg>