<svg xmlns="http://www.w3.org/2000/svg" width="1440" viewBox="0 0 1440 810" height="810" version="1.0"><defs><clipPath id="a"><path d="M 143 20.242188 L 1389 20.242188 L 1389 788 L 143 788 Z M 143 20.242188"/></clipPath></defs><g fill="#198754"><g><g><path d="M 70.65625 -96.5 L 104.359375 -151.984375 L 134.703125 -151.984375 L 84.984375 -76.828125 L 136.25 0 L 106.1875 0 L 71.078125 -56.890625 L 35.953125 0 L 5.765625 0 L 57.03125 -76.828125 L 7.296875 -151.984375 L 37.359375 -151.984375 Z M 70.65625 -96.5" transform="translate(395.553 502.09)"/></g></g></g><g fill="#198754"><g><g><path d="M 23.734375 0 L 23.734375 -204.515625 L 81.46875 -204.515625 C 99.257812 -204.515625 114.988281 -200.582031 128.65625 -192.71875 C 142.332031 -184.851562 152.890625 -173.660156 160.328125 -159.140625 C 167.773438 -144.628906 171.546875 -127.960938 171.640625 -109.140625 L 171.640625 -96.078125 C 171.640625 -76.785156 167.914062 -59.878906 160.46875 -45.359375 C 153.03125 -30.847656 142.40625 -19.707031 128.59375 -11.9375 C 114.78125 -4.164062 98.695312 -0.1875 80.34375 0 Z M 50.703125 -182.328125 L 50.703125 -22.046875 L 79.078125 -22.046875 C 99.867188 -22.046875 116.046875 -28.507812 127.609375 -41.4375 C 139.171875 -54.363281 144.953125 -72.765625 144.953125 -96.640625 L 144.953125 -108.578125 C 144.953125 -131.804688 139.5 -149.859375 128.59375 -162.734375 C 117.6875 -175.609375 102.210938 -182.140625 82.171875 -182.328125 Z M 50.703125 -182.328125" transform="translate(538.112 502.09)"/></g></g></g><g fill="#198754"><g><g><path d="M 113.5 0 C 112 -3 110.78125 -8.335938 109.84375 -16.015625 C 97.757812 -3.460938 83.335938 2.8125 66.578125 2.8125 C 51.597656 2.8125 39.304688 -1.421875 29.703125 -9.890625 C 20.109375 -18.367188 15.3125 -29.117188 15.3125 -42.140625 C 15.3125 -57.960938 21.328125 -70.25 33.359375 -79 C 45.390625 -87.757812 62.316406 -92.140625 84.140625 -92.140625 L 109.421875 -92.140625 L 109.421875 -104.078125 C 109.421875 -113.160156 106.703125 -120.394531 101.265625 -125.78125 C 95.835938 -131.164062 87.832031 -133.859375 77.25 -133.859375 C 67.976562 -133.859375 60.207031 -131.515625 53.9375 -126.828125 C 47.664062 -122.148438 44.53125 -116.488281 44.53125 -109.84375 L 18.40625 -109.84375 C 18.40625 -117.425781 21.09375 -124.753906 26.46875 -131.828125 C 31.851562 -138.898438 39.15625 -144.492188 48.375 -148.609375 C 57.601562 -152.734375 67.742188 -154.796875 78.796875 -154.796875 C 96.304688 -154.796875 110.023438 -150.414062 119.953125 -141.65625 C 129.878906 -132.90625 135.03125 -120.847656 135.40625 -105.484375 L 135.40625 -35.53125 C 135.40625 -21.582031 137.1875 -10.488281 140.75 -2.25 L 140.75 0 Z M 70.375 -19.8125 C 78.519531 -19.8125 86.242188 -21.914062 93.546875 -26.125 C 100.847656 -30.34375 106.140625 -35.820312 109.421875 -42.5625 L 109.421875 -73.75 L 89.046875 -73.75 C 57.210938 -73.75 41.296875 -64.429688 41.296875 -45.796875 C 41.296875 -37.648438 44.007812 -31.28125 49.4375 -26.6875 C 54.875 -22.101562 61.851562 -19.8125 70.375 -19.8125 Z M 70.375 -19.8125" transform="translate(726.738 502.09)"/></g></g></g><g fill="#198754"><g><g><path d="M 47.90625 0 L 21.90625 0 L 21.90625 -151.984375 L 47.90625 -151.984375 Z M 19.8125 -192.296875 C 19.8125 -196.515625 21.097656 -200.070312 23.671875 -202.96875 C 26.242188 -205.875 30.054688 -207.328125 35.109375 -207.328125 C 40.171875 -207.328125 44.007812 -205.875 46.625 -202.96875 C 49.25 -200.070312 50.5625 -196.515625 50.5625 -192.296875 C 50.5625 -188.078125 49.25 -184.5625 46.625 -181.75 C 44.007812 -178.945312 40.171875 -177.546875 35.109375 -177.546875 C 30.054688 -177.546875 26.242188 -178.945312 23.671875 -181.75 C 21.097656 -184.5625 19.8125 -188.078125 19.8125 -192.296875 Z M 19.8125 -192.296875" transform="translate(883.201 502.09)"/></g></g></g><g clip-path="url(#a)"><path fill="#198754" d="M 469.535156 764.265625 C 443.703125 758.085938 417.71875 752.03125 392.945312 742.257812 C 380.582031 738.335938 368.910156 732.699219 356.832031 728.019531 C 342.492188 720.828125 327.597656 714.742188 313.714844 706.648438 C 293.078125 696.613281 274.371094 683.085938 256.226562 669.140625 C 249.636719 664.667969 244.746094 658.265625 238.613281 653.21875 C 230.832031 646.355469 224.425781 638.125 216.8125 631.085938 C 206.882812 619.054688 196.078125 607.660156 187.640625 594.464844 C 179 580.957031 170.566406 567.273438 164.21875 552.488281 C 156.03125 533.851562 150.566406 514.070312 147.480469 493.941406 C 140.546875 462.019531 143.394531 429.066406 147.316406 396.953125 C 149.679688 385.675781 151.308594 374.1875 154.902344 363.195312 C 155.714844 360.117188 156.707031 357.058594 157.671875 353.980469 C 160.753906 344.582031 165.148438 335.722656 168.714844 326.527344 C 170.441406 319.738281 174.441406 313.914062 177.535156 307.699219 C 185.996094 292.207031 195.769531 277.445312 206.394531 263.363281 C 209.285156 259.109375 212.523438 255.085938 216.242188 251.519531 C 220.527344 243.710938 227.269531 237.59375 233.007812 230.859375 C 239.488281 226.355469 243.363281 219.289062 249.386719 214.273438 C 273.277344 192.261719 297.257812 170.257812 323.003906 150.402344 C 341.832031 134.324219 362.488281 120.546875 383.148438 106.953125 C 391.660156 101.191406 401.253906 97.359375 409.839844 91.785156 C 434.722656 79.699219 459.285156 66.996094 484.320312 55.203125 C 495.976562 48.6875 508.664062 44.363281 520.636719 38.484375 C 534.316406 32.367188 548.394531 26.765625 563.222656 24.1875 C 571.304688 22.699219 580.257812 25.816406 587.265625 20.230469 C 588.078125 21.417969 588.859375 22.570312 589.605469 23.660156 C 589.140625 26.890625 589.261719 30.113281 590.273438 33.148438 C 591.601562 39.605469 594.671875 46.347656 592.4375 52.917969 C 591.4375 55.746094 590.945312 58.707031 590.839844 61.648438 C 587.578125 69.257812 580.515625 73.863281 574.164062 78.652344 C 568.085938 83.167969 560.71875 85.300781 554.125 88.894531 C 544.839844 92.566406 536.722656 98.578125 527.34375 102.003906 C 522.308594 104.460938 516.765625 106.347656 512.75 110.445312 C 493.285156 120.695312 473.335938 130.0625 454 140.582031 C 439.085938 148.078125 423.6875 154.726562 409.660156 163.878906 C 388.234375 176.980469 367.753906 191.546875 347.777344 206.761719 C 334.160156 218.039062 320.679688 229.476562 306.996094 240.675781 C 284.109375 261.429688 261.335938 282.414062 241.089844 305.8125 C 216.078125 338.976562 192.429688 374.273438 180.230469 414.390625 C 174.5 432.660156 172.109375 451.871094 172.621094 471.003906 C 172.3125 494.683594 177.621094 518.34375 187.429688 539.859375 C 192.460938 549.226562 196.972656 559.019531 204.050781 567.058594 C 215.558594 582.296875 229.050781 595.871094 243.148438 608.660156 C 249.332031 613.375 254.242188 619.605469 261.296875 623.109375 C 277.859375 634.648438 295.339844 644.695312 313.058594 654.292969 C 331.671875 663.734375 350.851562 671.972656 369.929688 680.445312 C 384.753906 683.988281 397.488281 693.195312 412.550781 695.875 C 421.472656 698.585938 430.355469 701.398438 439.503906 703.167969 C 450.964844 707.277344 463.09375 708.761719 475.085938 710.292969 C 483.148438 711.582031 490.917969 714.421875 499.066406 715.007812 C 511.429688 714.875 523.039062 720.070312 535.40625 720.375 C 547.664062 720.328125 559.75 722.882812 572.003906 723.078125 C 577.949219 723.726562 584.019531 723.597656 589.765625 725.460938 C 590.550781 725.257812 592.117188 724.847656 592.902344 724.636719 C 600.375 726.203125 607.960938 724.558594 615.464844 725.453125 C 623.570312 726.554688 631.703125 727.253906 639.808594 728.175781 C 654.261719 728.097656 668.703125 728.734375 683.152344 728.957031 C 683.8125 729.890625 684.445312 730.816406 685.027344 731.699219 C 672.320312 731.308594 659.605469 731.535156 646.886719 731.597656 C 637.394531 731.042969 627.796875 728.898438 618.34375 731.167969 C 631.21875 733.644531 644.558594 734.445312 657.585938 732.902344 C 658.398438 733.371094 659.175781 733.808594 659.933594 734.214844 C 665.84375 734.625 671.730469 733.4375 677.613281 733.992188 C 682.875 734.203125 688.425781 734.777344 693.394531 732.691406 C 691.363281 732.261719 687.296875 731.425781 685.261719 731.015625 C 685.695312 730.460938 686.566406 729.339844 687 728.792969 C 694.152344 726.113281 701.742188 727.015625 709.039062 728.363281 C 718.6875 727.3125 728.335938 729.164062 737.980469 727.972656 C 736.4375 729.011719 734.972656 730.15625 733.363281 731.109375 C 736.214844 731.457031 739.160156 732.664062 741.953125 732.007812 C 744.769531 730.933594 739.300781 728.046875 738.550781 728.792969 C 746.367188 726.882812 754.449219 727.554688 762.386719 726.933594 C 773.363281 725.757812 784.4375 725.554688 795.363281 723.878906 C 803.128906 722.648438 811.035156 723.359375 818.796875 722.144531 C 828.597656 721.175781 838.445312 718.375 848.285156 720.347656 C 841.320312 722.535156 833.816406 720.890625 826.828125 723.152344 C 821.652344 724.761719 816.167969 725.140625 810.828125 723.875 C 810.65625 725.015625 810.328125 727.300781 810.160156 728.441406 C 827.9375 726.761719 845.78125 725.390625 863.386719 722.34375 C 875.132812 720.199219 887.398438 720.703125 898.65625 716.304688 C 899.511719 716.480469 901.222656 716.820312 902.078125 716.988281 C 907.203125 714.835938 912.761719 713.945312 918.277344 713.75 C 931.808594 710.605469 945.804688 709.289062 958.992188 704.660156 C 954.390625 701.273438 948.667969 704.296875 943.796875 705.546875 C 935.476562 708.800781 926.410156 710.300781 917.464844 710.050781 C 911.453125 712.433594 904.964844 713.269531 898.664062 714.597656 C 890.765625 716.410156 882.601562 716.648438 874.535156 717.097656 C 869.898438 719.222656 864.671875 718.527344 859.839844 719.9375 C 855.984375 721.207031 851.988281 720.273438 848.132812 719.378906 C 859.96875 716.570312 872.234375 716.105469 884.171875 713.8125 C 899.375 712.109375 914.304688 708.535156 929.515625 706.878906 C 938.722656 705.96875 947.566406 703.183594 956.503906 700.9375 C 969.5 698.609375 982.289062 695.324219 995.164062 692.414062 C 996.640625 692.019531 998.140625 692.351562 999.546875 692.734375 C 992.859375 695.539062 985.777344 697.359375 978.519531 697.734375 C 973.589844 700.292969 968.019531 701.128906 962.53125 701.476562 C 961.664062 702.214844 959.917969 703.707031 959.046875 704.449219 C 972.1875 704.183594 984.425781 698.878906 997.136719 696.269531 C 1005.898438 694.03125 1015.003906 692.90625 1023.195312 688.800781 C 1028.015625 683.835938 1035.511719 686.160156 1041.503906 683.972656 C 1044.410156 681.535156 1048.082031 680.472656 1051.789062 680.128906 C 1054.390625 678.621094 1057.085938 677.148438 1060.128906 676.867188 C 1066.753906 676.703125 1071.488281 670.480469 1078.351562 671.410156 C 1084.140625 670.484375 1089.21875 667.320312 1094.914062 666.023438 C 1096.96875 663.582031 1099.570312 661.660156 1102.875 661.601562 C 1106.828125 658.78125 1111.390625 654.605469 1116.4375 657.746094 C 1126.960938 652.210938 1137.769531 647.171875 1148.984375 643.183594 C 1155.269531 641.15625 1160.257812 635.761719 1167.210938 635.964844 C 1171.878906 630.714844 1179.324219 629.917969 1184.695312 625.660156 C 1192.984375 619.558594 1203.363281 617 1211.394531 610.492188 C 1215.972656 607.128906 1221.191406 604.726562 1225.519531 601.023438 C 1230.824219 600.636719 1233.902344 595.703125 1238.273438 593.324219 C 1241.863281 590.699219 1246.484375 589.957031 1249.894531 587.070312 C 1259.757812 578.972656 1270.472656 571.804688 1282.015625 566.363281 C 1290.523438 558.199219 1298.640625 549.363281 1308.699219 543.058594 C 1318.878906 533.769531 1326.523438 522.1875 1334.605469 511.125 C 1338.972656 505.378906 1342.34375 498.945312 1345.40625 492.429688 C 1348.640625 486.605469 1352.058594 480.832031 1354.132812 474.445312 C 1355.824219 470.175781 1356.453125 465.488281 1358.667969 461.386719 C 1364.476562 451.617188 1361.222656 439.660156 1357.6875 429.664062 C 1348.78125 405.636719 1334.164062 383.78125 1315.5625 366.148438 C 1302.4375 352.710938 1287.390625 341.367188 1272.023438 330.628906 C 1267.222656 327.769531 1262.097656 325.40625 1257.664062 321.902344 C 1242.574219 312.148438 1225.980469 305.019531 1209.824219 297.242188 C 1188.113281 286.691406 1165.578125 278.027344 1142.878906 269.875 C 1092.417969 251.839844 1040.898438 236.445312 988.332031 225.738281 C 980.34375 223.902344 972.160156 222.8125 964.28125 220.417969 C 956.285156 218.097656 947.890625 217.695312 939.710938 216.070312 C 917.433594 211.707031 894.769531 209.691406 872.300781 206.550781 C 857.679688 204.363281 842.820312 203.566406 828.40625 200.113281 C 827.523438 200.546875 825.742188 201.414062 824.867188 201.835938 C 822.375 199.789062 819.363281 198.195312 816.417969 200.515625 C 809.457031 199.75 802.40625 200.191406 795.519531 198.738281 C 786.855469 197.171875 777.996094 198.734375 769.304688 197.308594 C 756.914062 195.277344 744.304688 195.175781 731.761719 195.003906 C 721.699219 196.042969 711.683594 194.257812 701.589844 194.667969 C 669.480469 195.195312 637.355469 195.492188 605.292969 197.636719 C 585.195312 199.042969 565.132812 201.015625 544.96875 201.679688 C 540.273438 199.378906 535.054688 201.265625 530.246094 202.148438 C 526.480469 202.023438 522.714844 202.464844 518.964844 202.917969 C 519.648438 202.03125 521.03125 200.28125 521.714844 199.394531 C 524 198.910156 526.289062 198.417969 528.519531 197.898438 C 528.949219 196.292969 529.417969 194.738281 529.804688 193.070312 C 513.578125 195.285156 497.28125 197.308594 480.917969 198.382812 C 474.636719 199.570312 468.226562 199.824219 461.828125 199.542969 C 460.242188 198.574219 458.84375 196.398438 456.589844 197.398438 C 457.605469 198.507812 458.535156 199.597656 459.394531 200.679688 C 455.050781 200.476562 450.667969 200.875 446.347656 201.554688 C 448.964844 200.617188 451.609375 199.71875 454.101562 198.570312 C 452.667969 198.371094 449.796875 197.992188 448.355469 197.8125 C 434.597656 201.203125 420.269531 201.316406 406.363281 203.878906 C 400.773438 204.921875 395.121094 205.78125 389.394531 205.609375 C 397.558594 203.613281 406.082031 203.238281 413.953125 200.167969 C 417.621094 201.835938 421.386719 199.820312 424.953125 199.015625 C 429.9375 199.246094 434.625 197.410156 439.351562 196.171875 C 444.042969 197.101562 448.027344 194.152344 452.402344 193.175781 C 455.753906 192.292969 459.261719 193.734375 462.558594 192.742188 C 466.65625 191.519531 470.890625 190.820312 475.136719 190.480469 C 482.957031 185.390625 493.132812 191.039062 500.441406 185.222656 C 494.933594 184.503906 489.40625 185.351562 483.867188 185.460938 C 489.78125 183.050781 496.292969 183.167969 502.40625 181.648438 C 499.890625 177.851562 495.546875 179.753906 491.867188 180.0625 C 486.828125 180.613281 481.777344 181.195312 476.761719 182.089844 C 476.125 182.457031 474.847656 183.214844 474.21875 183.605469 C 470.4375 183.125 466.78125 184.121094 463.09375 184.859375 C 447.414062 185.199219 432.0625 188.992188 416.402344 189.789062 C 423.992188 187.558594 431.601562 185.175781 439.53125 184.628906 C 446.144531 184.140625 452.492188 181.726562 459.148438 182.066406 C 467.753906 180.042969 476.585938 178.730469 485.429688 178.675781 C 490.242188 177.425781 495.085938 176.226562 500.101562 176.476562 C 500.203125 176.234375 500.402344 175.765625 500.507812 175.542969 C 500.136719 175.132812 499.378906 174.316406 498.992188 173.921875 C 499.484375 173.835938 500.472656 173.707031 500.964844 173.628906 C 501.1875 172.984375 501.640625 171.695312 501.875 171.042969 C 502.476562 171.019531 503.683594 170.953125 504.285156 170.917969 C 504.289062 171.867188 504.300781 173.773438 504.3125 174.710938 C 505.144531 178.507812 508.132812 173.515625 507.398438 171.652344 C 508.574219 171.863281 510.953125 172.292969 512.128906 172.503906 C 511.042969 172.757812 508.875 173.265625 507.789062 173.519531 L 507.484375 175.417969 C 511.75 175.210938 515.957031 174.558594 520.140625 173.875 C 520.132812 173.179688 520.117188 171.789062 520.128906 171.101562 C 523.480469 171.332031 526.496094 170.195312 528.5625 167.5 C 534.765625 166.652344 541.308594 164.15625 547.398438 166.828125 C 550.210938 168.148438 553.25 168.167969 556.195312 167.480469 C 555.738281 166.722656 554.820312 165.238281 554.378906 164.484375 C 558.816406 164.148438 563.203125 162.929688 567.65625 163.371094 C 572.878906 164.300781 577.929688 166.417969 583.292969 166.214844 C 583.671875 165.605469 584.417969 164.34375 584.800781 163.71875 C 583.6875 163.597656 581.496094 163.359375 580.398438 163.253906 C 582.550781 161.664062 584.953125 162.359375 587.21875 163.132812 C 591.023438 163.417969 594.84375 163.710938 598.628906 163.890625 C 601.351562 162.773438 604.09375 161.699219 606.785156 160.546875 C 607.167969 161.285156 607.949219 162.800781 608.328125 163.558594 C 611.316406 164.105469 614.4375 164.632812 617.007812 162.660156 C 614.363281 162.113281 611.621094 161.636719 608.890625 161.234375 C 610.328125 160.546875 611.78125 159.871094 613.171875 159.085938 C 613.605469 159.515625 614.460938 160.34375 614.894531 160.753906 C 622.015625 159.535156 629.238281 159.375 636.441406 159.5625 C 635.910156 160.449219 634.839844 162.230469 634.304688 163.128906 C 638.085938 158.828125 644.195312 157.605469 649.667969 158.023438 C 650.0625 158.667969 650.859375 159.957031 651.261719 160.601562 C 654.957031 160.4375 660.0625 163.859375 661.769531 158.882812 C 662.578125 158.996094 664.199219 159.234375 665.007812 159.351562 C 665.597656 159.105469 666.769531 158.632812 667.359375 158.386719 C 669.542969 159.175781 671.675781 159.90625 673.792969 160.5625 C 677.929688 153.40625 685.796875 160.09375 691.855469 157.757812 C 696.226562 156.027344 700.667969 157.632812 704.648438 159.542969 C 705.980469 159.058594 707.308594 158.550781 708.59375 157.972656 C 710.867188 158.65625 713.105469 159.300781 715.3125 159.890625 C 715.75 159.082031 716.609375 157.4375 717.027344 156.621094 C 718.777344 156.71875 720.496094 156.78125 722.179688 156.796875 C 722.164062 155.582031 722.101562 154.34375 722.015625 153.050781 C 722.464844 153.167969 723.375 153.421875 723.816406 153.550781 C 723.539062 154.433594 723.007812 156.191406 722.746094 157.078125 C 726.574219 157.878906 730.410156 158.296875 734.210938 159.019531 C 737.460938 159.113281 741.792969 161.296875 743.460938 157.261719 C 744.390625 157.746094 746.230469 158.726562 747.160156 159.207031 C 752.199219 158.832031 757.269531 159.238281 762.265625 158.402344 C 760.554688 156.734375 758.425781 155.730469 756.144531 154.808594 C 758.136719 154.441406 760.101562 153.964844 761.996094 153.359375 C 762.839844 153.574219 764.535156 154.015625 765.375 154.230469 C 764.5625 154.535156 762.957031 155.136719 762.160156 155.429688 C 762.777344 156.40625 763.382812 157.324219 763.96875 158.203125 C 769.027344 157.78125 774.082031 158.285156 779.113281 158.101562 C 780.554688 164.382812 788.144531 159.339844 792.253906 158.996094 C 795.261719 160.589844 798.144531 162.328125 801.171875 163.761719 C 803.917969 163.140625 806.523438 161.925781 808.375 159.726562 C 813.597656 160.082031 818.820312 160.625 824.019531 159.878906 C 821.507812 158.972656 818.925781 158.769531 816.246094 158.390625 C 818.574219 153.976562 824.730469 157.292969 827.375 153.121094 L 828.648438 153.214844 L 827.785156 156.25 C 832.464844 156.746094 837.058594 155.882812 841.671875 155.382812 C 846.234375 155.984375 850.800781 156.300781 855.378906 156.167969 C 855.71875 157.023438 856.402344 158.746094 856.734375 159.613281 C 858.605469 160.015625 860.4375 160.402344 862.238281 160.738281 C 863.675781 160.015625 865.089844 159.25 866.46875 158.464844 C 868.140625 159.289062 869.78125 160.078125 871.402344 160.804688 C 871.488281 160.003906 871.652344 158.425781 871.734375 157.617188 C 872.636719 157.898438 874.414062 158.464844 875.3125 158.742188 C 874.828125 159.222656 873.867188 160.171875 873.398438 160.652344 C 881.414062 163.238281 889.859375 163.292969 898.117188 164.496094 C 912.257812 165.292969 926.042969 170.828125 940.296875 169.332031 C 943.730469 171.621094 947.738281 172.503906 951.722656 171.269531 C 954.683594 172.941406 957.90625 174.554688 961.066406 172.46875 C 957.746094 171.488281 954.445312 170.609375 951.03125 169.710938 C 954.519531 165.1875 959.296875 168.992188 963.507812 169.851562 C 964.789062 171.191406 966.054688 172.472656 967.304688 173.710938 C 968.183594 172.777344 969.046875 171.796875 969.890625 170.777344 C 978.570312 172.683594 987.316406 174.242188 995.964844 176.164062 L 994.945312 177.527344 C 992.582031 176.4375 990.105469 175.425781 987.40625 176.246094 C 991.175781 177.6875 995.054688 178.597656 998.875 179.722656 L 999.109375 178.691406 L 996.84375 176.910156 C 1005.238281 176.796875 1013.253906 179.800781 1020.640625 183.496094 L 1019.746094 184.59375 L 1022.320312 185.335938 C 1021.816406 184.417969 1020.800781 182.59375 1020.296875 181.695312 C 1025.328125 181.8125 1030.113281 183.4375 1034.953125 184.582031 C 1032.542969 185.085938 1030.089844 185.367188 1027.648438 185.816406 C 1030.160156 186.269531 1032.640625 186.742188 1035.09375 187.234375 C 1037.257812 184.023438 1040.175781 186.980469 1042.804688 187.628906 C 1045.042969 188.171875 1047.308594 188.472656 1049.511719 188.867188 C 1064.648438 191.300781 1078.375 198.890625 1093.554688 201.230469 C 1103.667969 202.335938 1112.746094 207.164062 1122.222656 210.429688 C 1131.589844 210.996094 1139.925781 215.925781 1148.738281 218.632812 C 1164.621094 223.347656 1179.601562 230.984375 1195.835938 234.507812 C 1192.257812 231.75 1187.691406 230.664062 1184 228.039062 C 1184.519531 225.039062 1187.785156 228.230469 1189.464844 228.273438 C 1199.148438 231.855469 1208.902344 235.316406 1217.945312 240.296875 C 1243.449219 251.039062 1268.5625 263.179688 1290.933594 279.636719 C 1298 284.386719 1305.304688 288.886719 1311.402344 294.890625 C 1315.445312 297.796875 1314.425781 303.679688 1318.980469 306.242188 C 1318.714844 305.292969 1318.195312 303.371094 1317.929688 302.421875 C 1319.167969 302.78125 1321.648438 303.527344 1322.882812 303.890625 C 1324.214844 305.519531 1325.515625 307.105469 1326.820312 308.65625 C 1327.285156 309.949219 1327.730469 311.21875 1328.15625 312.445312 C 1331.523438 316.417969 1333.644531 321.269531 1337.082031 325.175781 C 1341.460938 331.410156 1347.972656 335.996094 1351.195312 343.035156 C 1352.035156 345.984375 1355.113281 346.585938 1357.515625 347.652344 C 1360.070312 355.585938 1362.011719 364.261719 1367.550781 370.710938 C 1371.058594 382.589844 1374.667969 394.484375 1379.949219 405.707031 C 1386.828125 427.460938 1390.558594 450.640625 1387.210938 473.40625 C 1383.921875 496.449219 1376.25 518.902344 1364.925781 539.226562 C 1357.796875 555.113281 1347.609375 569.386719 1335.945312 582.234375 C 1326.058594 592.207031 1316.421875 602.515625 1304.851562 610.59375 C 1295.941406 616.511719 1288.425781 624.332031 1279.097656 629.601562 C 1266.160156 638.558594 1252.574219 646.570312 1239.125 654.757812 C 1230.144531 662.164062 1219.855469 667.800781 1209.175781 672.378906 C 1199.609375 677.679688 1190.226562 683.429688 1180.117188 687.714844 C 1165.589844 695.402344 1149.960938 700.703125 1135.203125 707.921875 C 1121.324219 712.953125 1107.667969 718.558594 1093.867188 723.804688 C 1084.070312 726.292969 1074.835938 730.523438 1065.050781 733.027344 C 1054.617188 737.941406 1043.335938 740.507812 1032.269531 743.570312 C 1020.03125 747.953125 1007.132812 750.105469 994.566406 753.390625 C 983.992188 755 973.84375 758.566406 963.308594 760.355469 C 946.339844 763.589844 929.355469 766.933594 912.191406 768.828125 C 896.113281 771.808594 879.886719 774 863.691406 776.195312 C 855.152344 777.546875 846.300781 777.585938 838.199219 780.976562 C 830.078125 780.835938 821.886719 780.949219 813.914062 782.691406 C 807.695312 784.347656 801.292969 782.78125 794.960938 783.183594 C 789.527344 783.542969 783.996094 783.535156 778.703125 785.054688 C 771.898438 787.183594 764.855469 784.058594 757.898438 785.304688 C 751.550781 786.46875 745.050781 784.875 738.699219 786.171875 C 722.855469 789.671875 706.644531 786.039062 690.679688 786.671875 C 677.878906 785.375 664.996094 785.3125 652.15625 784.992188 C 633.195312 785.285156 614.4375 781.285156 595.460938 781.746094 C 553.347656 777 511.039062 773.109375 469.535156 764.265625 Z M 759.566406 731.445312 C 767.660156 731.710938 775.640625 730.011719 783.722656 729.828125 C 786.523438 729.589844 789.925781 730.125 791.671875 727.367188 C 783.792969 727.074219 776.070312 729.429688 768.203125 728.703125 C 760.152344 728.476562 752.171875 730.019531 744.105469 729.296875 C 744.8125 730.375 745.515625 731.425781 746.199219 732.445312 C 750.652344 731.867188 755.09375 731.320312 759.566406 731.445312 Z M 804.015625 727.28125 C 799.957031 726.414062 795.921875 727.621094 791.964844 728.464844 C 796.015625 729.25 800.324219 729.429688 804.015625 727.28125 Z M 470.867188 196.242188 C 468.957031 195.03125 464.421875 194.871094 463.367188 197.082031 C 465.351562 198.386719 469.871094 198.648438 470.867188 196.242188 Z M 520.089844 185.070312 C 523.152344 185.804688 524.308594 181.132812 520.679688 181.535156 C 517.644531 180.824219 516.5 185.539062 520.089844 185.070312 Z M 546.214844 180.355469 C 547.648438 178.394531 547.078125 177.472656 544.488281 177.601562 C 543.105469 179.648438 543.675781 180.574219 546.214844 180.355469 Z M 542.777344 170.851562 C 547.050781 170.027344 542.132812 165.648438 539.816406 167.488281 C 537.988281 169.230469 541.09375 171.394531 542.777344 170.851562 Z M 841.773438 161.207031 C 838.664062 160.6875 835.425781 159.1875 832.226562 160.070312 C 833.101562 161.703125 833.984375 163.277344 834.898438 164.78125 C 837.25 163.707031 839.539062 162.523438 841.773438 161.207031 Z M 829.101562 162.4375 C 830.53125 160.449219 829.972656 159.484375 827.421875 159.535156 C 826.035156 161.574219 826.601562 162.535156 829.101562 162.4375 Z M 862.035156 165.277344 C 864.257812 164.351562 866.507812 163.46875 868.683594 162.480469 C 864.582031 160.777344 860.082031 161.570312 855.769531 161.714844 C 851.371094 162.113281 847 160.285156 842.609375 161.332031 C 848.285156 165.476562 855.453125 164.746094 862.035156 165.277344 Z M 900.121094 169.828125 C 901.546875 167.859375 900.96875 166.90625 898.414062 166.929688 C 897.0625 168.957031 897.636719 169.925781 900.121094 169.828125 Z M 915.023438 170.601562 C 911.371094 169.738281 907.667969 168.941406 903.960938 168.222656 C 905.152344 170.007812 906.730469 171.46875 909.0625 170.613281 C 911.070312 171.371094 913.203125 172.433594 915.023438 170.601562 Z M 1257.332031 263.164062 C 1256.777344 262.125 1256.777344 262.125 1257.332031 263.164062 Z M 1253.117188 259.917969 C 1246.152344 256.363281 1239.363281 252.101562 1231.710938 250.140625 C 1236.757812 254.609375 1243.589844 256.136719 1248.964844 260.117188 C 1250.375 260.105469 1251.753906 260.03125 1253.117188 259.917969 Z M 1007.984375 179.609375 C 1006.703125 178.015625 1003.496094 178.714844 1003.023438 180.746094 C 1003.074219 184.007812 1009.058594 182.464844 1007.984375 179.609375"/></g></svg>