<svg xmlns="http://www.w3.org/2000/svg" width="1440" viewBox="0 0 1440 810" height="810" version="1.0"><defs><clipPath id="a"><path d="M 8 59.398438 L 1438 59.398438 L 1438 750.898438 L 8 750.898438 Z M 8 59.398438"/></clipPath></defs><g clip-path="url(#a)"><path fill="#FFC107" d="M 305.070312 310.945312 C 305.359375 310.945312 305.550781 310.828125 305.574219 310.445312 C 306.863281 310.945312 306.230469 312.144531 305.070312 312.144531 C 304.964844 312.144531 304.855469 312.128906 304.734375 312.105469 C 305.382812 312.847656 305.632812 313.996094 305.574219 315.457031 C 304.234375 314.617188 302.214844 314.667969 303.898438 312.957031 C 303.875 312.144531 302.871094 312.296875 302.238281 312.105469 C 302.261719 310.933594 302.726562 310.636719 303.3125 310.636719 C 303.601562 310.636719 303.921875 310.71875 304.234375 310.789062 C 304.542969 310.875 304.832031 310.945312 305.070312 310.945312 M 858.015625 59.300781 C 788.652344 59.300781 715.617188 64.574219 650.628906 80.582031 C 645.042969 81.957031 409.398438 128.394531 349.027344 166.675781 C 339.855469 172.132812 330.144531 172.5625 323.953125 180.050781 C 322.960938 179.882812 321.992188 179.8125 321.046875 179.8125 C 314.421875 179.8125 308.707031 183.640625 302.8125 187.480469 C 296.929688 191.308594 290.839844 195.136719 283.464844 195.136719 C 283.046875 195.136719 282.613281 195.125 282.171875 195.101562 C 280.523438 199.515625 276.753906 198.019531 274.664062 200.9375 C 259.105469 204.453125 244.867188 211 234.558594 221.847656 C 182.734375 237.507812 102.597656 302.476562 60.769531 336.355469 C 51.71875 352.324219 0.394531 404.410156 8.980469 470.085938 C 8.992188 471.1875 10.441406 470.863281 10.644531 471.75 C 9.484375 482.203125 16.621094 488.519531 14.828125 496.835938 C 18.773438 501.238281 17.769531 507.015625 19.003906 511.871094 C 31.234375 560.390625 89.683594 617.296875 139.304688 636.402344 C 157.195312 649.167969 179.171875 657.839844 201.972656 665.675781 C 259.726562 690.472656 437.785156 735.105469 498.578125 737.570312 C 499.75 737.5 499.34375 735.824219 500.585938 735.824219 C 500.730469 735.824219 500.886719 735.835938 501.078125 735.898438 C 507.304688 738.792969 513.09375 739.292969 518.773438 739.292969 C 520.304688 739.292969 521.835938 739.257812 523.351562 739.222656 C 524.882812 739.1875 526.402344 739.148438 527.945312 739.148438 C 533.039062 739.148438 538.203125 739.558594 543.679688 741.746094 C 543.238281 740.285156 543.957031 739.988281 544.960938 739.988281 C 545.308594 739.988281 545.691406 740.023438 546.074219 740.058594 C 546.453125 740.09375 546.835938 740.132812 547.183594 740.132812 C 547.433594 740.132812 547.664062 740.121094 547.855469 740.058594 C 549.625 745.082031 680.425781 750.933594 685.722656 750.933594 C 685.84375 749.785156 885.363281 744.640625 891.246094 738.398438 C 893.914062 738.515625 893.722656 741.484375 896.257812 741.746094 C 897.882812 740.3125 898.792969 738.144531 901.265625 737.570312 C 903.324219 738.15625 906.792969 740.921875 909.277344 740.921875 C 909.398438 740.921875 909.519531 740.921875 909.625 740.910156 C 910.558594 740.789062 909.949219 738.828125 910.460938 738.398438 C 911.503906 737.476562 913.152344 737.164062 915.136719 737.164062 C 917.410156 737.164062 920.125 737.582031 922.898438 737.988281 C 925.660156 738.410156 928.492188 738.839844 930.980469 738.839844 C 932.34375 738.839844 933.601562 738.707031 934.6875 738.398438 C 937.675781 732.234375 1003.46875 730.65625 1009.050781 730.035156 C 1014.636719 729.414062 1204.113281 693.191406 1259.691406 667.339844 C 1290.050781 659.539062 1310.832031 644.921875 1337.390625 631.402344 C 1337.507812 629.859375 1337.941406 628.617188 1339.0625 628.066406 C 1345.292969 625.949219 1349.910156 622.203125 1354.09375 618.027344 C 1358.949219 617.585938 1360.382812 613.734375 1363.289062 611.339844 C 1397.082031 587.570312 1424.199219 555.582031 1434.304688 510.207031 C 1439.746094 489.273438 1437.402344 453.554688 1434.304688 427.449219 C 1433.074219 417.007812 1434.246094 406.625 1429.292969 397.363281 C 1429.292969 395.414062 1429.292969 393.464844 1429.292969 391.527344 C 1425.945312 387.914062 1424.796875 382.089844 1424.273438 375.628906 C 1414.097656 359.921875 1404.421875 343.6875 1393.363281 328.832031 C 1386.308594 323.640625 1381.058594 316.628906 1375.832031 309.605469 C 1367.210938 303.457031 1359.09375 296.804688 1353.257812 287.871094 C 1348.832031 285.65625 1340.164062 281.851562 1338.226562 274.507812 C 1312.183594 264.195312 1291.773438 243.667969 1267.210938 236.886719 C 1265.5625 233.488281 1245.222656 227.386719 1238.800781 223.511719 C 1211.742188 216.691406 1191.28125 205.640625 1163.613281 200.101562 C 1164.222656 197.828125 1161.949219 198.425781 1161.9375 196.773438 C 1144.898438 196.453125 1135.621094 190.699219 1110.152344 188.402344 C 1099.925781 183.03125 1082.277344 184.957031 1072.542969 180.050781 C 941.324219 169.609375 915.304688 167.082031 905.25 167.082031 C 897.011719 167.082031 899.472656 168.769531 863.671875 169.175781 C 861.964844 169.199219 860.242188 169.210938 858.53125 169.210938 C 842.125 169.210938 825.671875 168.398438 811.875 168.339844 C 811.742188 169.332031 812.015625 170.71875 811.035156 170.851562 C 806.398438 171.558594 801.996094 171.6875 797.777344 171.6875 C 796.640625 171.6875 795.503906 171.675781 794.390625 171.664062 C 793.269531 171.664062 792.144531 171.652344 791.042969 171.652344 C 784.863281 171.652344 779.0625 171.941406 773.441406 174.199219 C 772.152344 173.816406 769.664062 173.640625 766.230469 173.640625 C 736.277344 173.640625 634.75 186.738281 634.75 186.738281 C 623.949219 192.15625 520.734375 209.109375 506.085938 223.511719 C 505.332031 223.320312 504.390625 223.222656 503.300781 223.222656 C 479.925781 223.222656 383.59375 266.039062 367.394531 271.160156 C 367.476562 271.132812 366.28125 269.460938 365.132812 269.460938 C 365.050781 269.460938 364.964844 269.460938 364.894531 269.484375 C 363.53125 269.769531 363.421875 271.722656 361.558594 271.996094 C 355.960938 272.796875 222.730469 335.839844 227.035156 360.589844 C 234.929688 359.40625 239.773438 361.308594 247.113281 355.148438 C 247.339844 351.273438 250.234375 349.824219 251.261719 348.054688 C 252.328125 348.402344 253.402344 348.558594 254.503906 348.558594 C 263.292969 348.558594 273.109375 338.316406 284.683594 337.179688 C 284.804688 338.746094 285.234375 339.980469 286.359375 340.53125 C 286.679688 337.074219 290.207031 339.800781 288.03125 336.355469 C 288.617188 336.882812 289.179688 337.109375 289.707031 337.109375 C 291.402344 337.109375 292.683594 334.789062 293.042969 333.003906 C 292.742188 332.863281 292.480469 332.800781 292.203125 332.800781 C 291.65625 332.800781 291.152344 333.078125 290.710938 333.351562 C 290.28125 333.617188 289.898438 333.890625 289.574219 333.890625 C 289.289062 333.890625 289.046875 333.675781 288.855469 333.003906 C 288.582031 330.984375 289.5625 330.027344 290.554688 330.027344 C 291.234375 330.027344 291.917969 330.480469 292.203125 331.34375 C 295.0625 325.144531 301.542969 327.441406 307.246094 323.816406 C 307.5 322.167969 306.109375 322.167969 305.574219 321.304688 C 311.585938 321.304688 316.082031 315.898438 322.039062 315.898438 C 322.910156 315.898438 323.832031 316.019531 324.789062 316.292969 C 322.566406 315.289062 327.289062 309.773438 330.121094 309.773438 C 330.660156 309.773438 331.125 309.976562 331.472656 310.445312 C 331.925781 313.699219 327.863281 312.417969 327.300781 314.617188 C 327.824219 317.15625 331.125 316.914062 332.308594 318.804688 C 351.035156 303.160156 517.277344 265.8125 552.039062 261.972656 C 549.5625 259.769531 554.742188 261.503906 555.375 258.609375 C 556.773438 258.765625 558.136719 258.824219 559.464844 258.824219 C 570.609375 258.824219 580.042969 254.195312 593.816406 253.609375 C 595.074219 252.988281 595.0625 251.085938 596.949219 251.085938 C 597.023438 251.085938 597.082031 251.097656 597.15625 251.097656 C 611.335938 250.246094 624.359375 246.789062 638.097656 245.246094 C 638.515625 245.199219 638.921875 245.175781 639.316406 245.175781 C 639.890625 245.175781 640.453125 245.210938 641.003906 245.257812 C 641.550781 245.296875 642.101562 245.332031 642.652344 245.332031 C 643.070312 245.332031 643.5 245.308594 643.945312 245.246094 C 665.25 242.363281 686.128906 238.535156 707.4375 236.058594 C 707.738281 236.011719 708.035156 236 708.359375 236 C 709.589844 236 710.929688 236.25 712.269531 236.503906 C 713.59375 236.742188 714.933594 236.992188 716.167969 236.992188 C 716.609375 236.992188 717.050781 236.957031 717.46875 236.886719 C 719.347656 236.539062 720.625 234.589844 722.480469 234.386719 C 753.914062 230.878906 884.109375 227.351562 940.964844 227.351562 C 950.867188 227.351562 958.554688 227.457031 963.097656 227.699219 C 971.015625 228.09375 979.3125 230.785156 987.324219 231.035156 C 987.480469 231.046875 987.625 231.046875 987.777344 231.046875 C 989.464844 231.046875 991.164062 230.761719 992.921875 230.484375 C 994.679688 230.199219 996.484375 229.921875 998.386719 229.921875 C 999.402344 229.921875 1000.441406 229.996094 1001.519531 230.210938 C 1006.625 231.15625 1010.378906 230.773438 1015.722656 231.035156 C 1027.691406 231.621094 1039.648438 234.910156 1051.65625 236.886719 C 1156.808594 254.207031 1192.5625 253.71875 1286.425781 303.746094 C 1295.324219 308.492188 1306.898438 313.351562 1313.164062 317.132812 C 1316.199219 318.960938 1318.28125 322.285156 1321.523438 324.65625 C 1324.964844 327.179688 1329.917969 328.160156 1333.214844 330.503906 C 1336.875 333.101562 1339.519531 337.851562 1343.238281 340.53125 C 1344.910156 341.738281 1347.566406 341.773438 1349.082031 343.042969 C 1349.71875 343.558594 1349.273438 345.792969 1349.921875 346.378906 C 1354.75 350.816406 1361.234375 354.730469 1365.800781 358.089844 C 1367.808594 359.5625 1368.707031 362.601562 1370.824219 364.777344 C 1374.398438 368.464844 1379.636719 371.597656 1382.503906 374.804688 C 1400.320312 394.648438 1432.511719 426.601562 1424.273438 456.710938 C 1398.921875 549.554688 1300.65625 591.136719 1204.554688 621.546875 C 1055.816406 668.558594 882.410156 693.824219 705.667969 693.824219 C 531.03125 693.824219 353.140625 669.132812 192.777344 616.367188 C 192.777344 616.367188 148.320312 602.871094 60.769531 541.132812 C 56.632812 535.460938 50.964844 527.074219 45.738281 525.246094 C 44.230469 517.148438 36.125 512.542969 32.371094 505.195312 C 17.398438 475.886719 38.683594 434.878906 55.769531 413.238281 C 99.847656 343.761719 219.144531 279.234375 244.578125 271.160156 C 289.515625 246.480469 344.316406 221.800781 396.640625 204.289062 C 407.210938 200.746094 427.777344 192.660156 434.234375 190.074219 C 444.902344 187.085938 557.753906 149.738281 624.726562 139.941406 C 637.460938 138.074219 651.34375 133.984375 663.984375 133.242188 C 669.042969 132.941406 844.003906 115.035156 919.371094 115.035156 C 927.371094 115.035156 934.269531 115.238281 939.699219 115.679688 C 954.15625 116.875 1133.648438 134.125 1144.707031 134.125 C 1145.007812 134.125 1145.1875 134.113281 1145.234375 134.078125 C 1148.117188 134.425781 1150.449219 134.675781 1152.863281 134.675781 C 1155.910156 134.675781 1159.082031 134.292969 1163.613281 133.242188 C 1168.933594 125.703125 1165.046875 114.230469 1164.449219 107.328125 C 1159.59375 106.179688 1154.945312 100.882812 1155.253906 97.304688 C 1154.765625 97.339844 1154.296875 97.363281 1153.84375 97.363281 C 1142.351562 97.363281 1144.039062 85.796875 1136.875 83.105469 C 1134.617188 81.5625 1136.730469 80.257812 1135.203125 78.90625 C 1135 78.90625 1134.78125 78.90625 1134.554688 78.90625 C 1123.257812 78.90625 1087.550781 74.015625 1037.976562 69.097656 C 988.375 64.203125 924.90625 59.300781 858.015625 59.300781"/></g><g fill="#FFC107"><g><g><path d="M 42.9375 -67.8125 L 42.9375 0 L 20.109375 0 L 20.109375 -173.203125 L 83.984375 -173.203125 C 102.941406 -173.203125 117.789062 -168.363281 128.53125 -158.6875 C 139.28125 -149.007812 144.65625 -136.203125 144.65625 -120.265625 C 144.65625 -103.453125 139.398438 -90.503906 128.890625 -81.421875 C 118.378906 -72.347656 103.332031 -67.8125 83.75 -67.8125 Z M 42.9375 -86.484375 L 83.984375 -86.484375 C 96.191406 -86.484375 105.546875 -89.359375 112.046875 -95.109375 C 118.554688 -100.859375 121.8125 -109.164062 121.8125 -120.03125 C 121.8125 -130.34375 118.554688 -138.585938 112.046875 -144.765625 C 105.546875 -150.953125 96.628906 -154.164062 85.296875 -154.40625 L 42.9375 -154.40625 Z M 42.9375 -86.484375" transform="translate(275.127 526.614)"/></g></g></g><g fill="#FFC107"><g><g><path d="M 10.828125 -65.546875 C 10.828125 -78.148438 13.300781 -89.488281 18.25 -99.5625 C 23.207031 -109.632812 30.109375 -117.40625 38.953125 -122.875 C 47.796875 -128.351562 57.890625 -131.09375 69.234375 -131.09375 C 86.753906 -131.09375 100.925781 -125.023438 111.75 -112.890625 C 122.582031 -100.753906 128 -84.613281 128 -64.46875 L 128 -62.921875 C 128 -50.398438 125.597656 -39.160156 120.796875 -29.203125 C 116.003906 -19.253906 109.144531 -11.503906 100.21875 -5.953125 C 91.300781 -0.398438 81.050781 2.375 69.46875 2.375 C 52.019531 2.375 37.882812 -3.6875 27.0625 -15.8125 C 16.238281 -27.945312 10.828125 -44.007812 10.828125 -64 Z M 32.953125 -62.921875 C 32.953125 -48.648438 36.257812 -37.191406 42.875 -28.546875 C 49.5 -19.898438 58.363281 -15.578125 69.46875 -15.578125 C 80.65625 -15.578125 89.535156 -19.957031 96.109375 -28.71875 C 102.691406 -37.488281 105.984375 -49.765625 105.984375 -65.546875 C 105.984375 -79.660156 102.632812 -91.097656 95.9375 -99.859375 C 89.238281 -108.628906 80.335938 -113.015625 69.234375 -113.015625 C 58.367188 -113.015625 49.601562 -108.691406 42.9375 -100.046875 C 36.28125 -91.398438 32.953125 -79.023438 32.953125 -62.921875 Z M 32.953125 -62.921875" transform="translate(428.804 526.614)"/></g></g></g><g fill="#FFC107"><g><g><path d="M 40.5625 0 L 18.5625 0 L 18.5625 -182.71875 L 40.5625 -182.71875 Z M 40.5625 0" transform="translate(567.731 526.614)"/></g></g></g><g fill="#FFC107"><g><g><path d="M 58.765625 -32.234375 L 88.75 -128.71875 L 112.296875 -128.71875 L 60.546875 19.859375 C 52.535156 41.273438 39.804688 51.984375 22.359375 51.984375 L 18.203125 51.625 L 10 50.078125 L 10 32.234375 L 15.9375 32.71875 C 23.394531 32.71875 29.203125 31.207031 33.359375 28.1875 C 37.523438 25.175781 40.957031 19.664062 43.65625 11.65625 L 48.53125 -1.421875 L 2.609375 -128.71875 L 26.640625 -128.71875 Z M 58.765625 -32.234375" transform="translate(626.847 526.614)"/></g></g></g><g fill="#FFC107"><g><g><path d="M 11.421875 -65.421875 C 11.421875 -85.484375 16.054688 -101.441406 25.328125 -113.296875 C 34.609375 -125.160156 46.90625 -131.09375 62.21875 -131.09375 C 77.914062 -131.09375 90.164062 -125.539062 98.96875 -114.4375 L 100.046875 -128.71875 L 120.140625 -128.71875 L 120.140625 -3.09375 C 120.140625 13.5625 115.203125 26.6875 105.328125 36.28125 C 95.460938 45.875 82.203125 50.671875 65.546875 50.671875 C 56.265625 50.671875 47.179688 48.6875 38.296875 44.71875 C 29.421875 40.757812 22.644531 35.332031 17.96875 28.4375 L 29.375 15.234375 C 38.8125 26.890625 50.351562 32.71875 64 32.71875 C 74.707031 32.71875 83.050781 29.703125 89.03125 23.671875 C 95.019531 17.640625 98.015625 9.15625 98.015625 -1.78125 L 98.015625 -12.84375 C 89.210938 -2.695312 77.203125 2.375 61.984375 2.375 C 46.910156 2.375 34.710938 -3.6875 25.390625 -15.8125 C 16.078125 -27.945312 11.421875 -44.484375 11.421875 -65.421875 Z M 33.546875 -62.921875 C 33.546875 -48.410156 36.519531 -37.007812 42.46875 -28.71875 C 48.414062 -20.4375 56.742188 -16.296875 67.453125 -16.296875 C 81.328125 -16.296875 91.515625 -22.601562 98.015625 -35.21875 L 98.015625 -93.96875 C 91.273438 -106.269531 81.164062 -112.421875 67.6875 -112.421875 C 56.976562 -112.421875 48.609375 -108.253906 42.578125 -99.921875 C 36.554688 -91.597656 33.546875 -79.265625 33.546875 -62.921875 Z M 33.546875 -62.921875" transform="translate(742.104 526.614)"/></g></g></g><g fill="#FFC107"><g><g><path d="M 10.828125 -65.546875 C 10.828125 -78.148438 13.300781 -89.488281 18.25 -99.5625 C 23.207031 -109.632812 30.109375 -117.40625 38.953125 -122.875 C 47.796875 -128.351562 57.890625 -131.09375 69.234375 -131.09375 C 86.753906 -131.09375 100.925781 -125.023438 111.75 -112.890625 C 122.582031 -100.753906 128 -84.613281 128 -64.46875 L 128 -62.921875 C 128 -50.398438 125.597656 -39.160156 120.796875 -29.203125 C 116.003906 -19.253906 109.144531 -11.503906 100.21875 -5.953125 C 91.300781 -0.398438 81.050781 2.375 69.46875 2.375 C 52.019531 2.375 37.882812 -3.6875 27.0625 -15.8125 C 16.238281 -27.945312 10.828125 -44.007812 10.828125 -64 Z M 32.953125 -62.921875 C 32.953125 -48.648438 36.257812 -37.191406 42.875 -28.546875 C 49.5 -19.898438 58.363281 -15.578125 69.46875 -15.578125 C 80.65625 -15.578125 89.535156 -19.957031 96.109375 -28.71875 C 102.691406 -37.488281 105.984375 -49.765625 105.984375 -65.546875 C 105.984375 -79.660156 102.632812 -91.097656 95.9375 -99.859375 C 89.238281 -108.628906 80.335938 -113.015625 69.234375 -113.015625 C 58.367188 -113.015625 49.601562 -108.691406 42.9375 -100.046875 C 36.28125 -91.398438 32.953125 -79.023438 32.953125 -62.921875 Z M 32.953125 -62.921875" transform="translate(878.772 526.614)"/></g></g></g><g fill="#FFC107"><g><g><path d="M 37.46875 -128.71875 L 38.1875 -112.53125 C 48.019531 -124.90625 60.867188 -131.09375 76.734375 -131.09375 C 103.929688 -131.09375 117.648438 -115.742188 117.890625 -85.046875 L 117.890625 0 L 95.875 0 L 95.875 -85.171875 C 95.800781 -94.453125 93.679688 -101.3125 89.515625 -105.75 C 85.347656 -110.195312 78.863281 -112.421875 70.0625 -112.421875 C 62.925781 -112.421875 56.660156 -110.515625 51.265625 -106.703125 C 45.878906 -102.898438 41.675781 -97.90625 38.65625 -91.71875 L 38.65625 0 L 16.65625 0 L 16.65625 -128.71875 Z M 37.46875 -128.71875" transform="translate(1017.7 526.614)"/></g></g></g></svg>