<svg xmlns="http://www.w3.org/2000/svg" width="1440" viewBox="0 0 1440 810" height="810" version="1.0"><defs><clipPath id="a"><path d="M 84 0.769531 L 1394 0.769531 L 1394 808 L 84 808 Z M 84 0.769531"/></clipPath></defs><g clip-path="url(#a)"><path fill="#FFC107" d="M 427.425781 783.226562 C 400.261719 776.730469 372.941406 770.359375 346.886719 760.082031 C 333.890625 755.957031 321.617188 750.027344 308.914062 745.105469 C 293.835938 737.542969 278.171875 731.144531 263.574219 722.632812 C 241.875 712.078125 222.199219 697.851562 203.121094 683.183594 C 196.191406 678.480469 191.050781 671.753906 184.601562 666.441406 C 176.417969 659.226562 169.683594 650.570312 161.675781 643.167969 C 151.234375 630.515625 139.875 618.53125 131 604.652344 C 121.910156 590.449219 113.042969 576.054688 106.371094 560.507812 C 97.761719 540.90625 92.015625 520.105469 88.769531 498.9375 C 81.476562 465.367188 84.472656 430.710938 88.597656 396.941406 C 91.082031 385.078125 92.792969 373 96.574219 361.433594 C 97.429688 358.203125 98.46875 354.984375 99.488281 351.746094 C 102.726562 341.863281 107.351562 332.546875 111.101562 322.875 C 112.914062 315.734375 117.121094 309.609375 120.371094 303.074219 C 129.269531 286.78125 139.546875 271.257812 150.722656 256.445312 C 153.757812 251.976562 157.164062 247.742188 161.074219 243.992188 C 165.582031 235.78125 172.671875 229.347656 178.703125 222.265625 C 185.523438 217.527344 189.59375 210.097656 195.929688 204.824219 C 221.054688 181.671875 246.265625 158.535156 273.339844 137.652344 C 293.140625 120.746094 314.863281 106.257812 336.585938 91.957031 C 345.539062 85.898438 355.625 81.867188 364.652344 76.007812 C 390.816406 63.296875 416.648438 49.9375 442.972656 37.535156 C 455.230469 30.683594 468.574219 26.136719 481.164062 19.953125 C 495.546875 13.519531 510.351562 7.628906 525.941406 4.917969 C 534.441406 3.355469 543.859375 6.628906 551.226562 0.757812 C 552.082031 2.003906 552.902344 3.21875 553.6875 4.363281 C 553.199219 7.757812 553.324219 11.148438 554.390625 14.339844 C 555.785156 21.128906 559.015625 28.222656 556.667969 35.132812 C 555.613281 38.105469 555.097656 41.21875 554.984375 44.3125 C 551.554688 52.3125 544.128906 57.160156 537.449219 62.195312 C 531.0625 66.945312 523.308594 69.1875 516.378906 72.96875 C 506.613281 76.828125 498.078125 83.152344 488.21875 86.753906 C 482.921875 89.335938 477.089844 91.320312 472.871094 95.632812 C 452.402344 106.410156 431.425781 116.261719 411.09375 127.324219 C 395.40625 135.210938 379.214844 142.203125 364.464844 151.828125 C 341.9375 165.601562 320.398438 180.921875 299.390625 196.921875 C 285.074219 208.78125 270.898438 220.8125 256.507812 232.589844 C 232.441406 254.414062 208.496094 276.484375 187.203125 301.089844 C 160.902344 335.964844 136.035156 373.089844 123.207031 415.277344 C 117.179688 434.492188 114.667969 454.695312 115.207031 474.8125 C 114.878906 499.71875 120.460938 524.597656 130.78125 547.226562 C 136.070312 557.078125 140.8125 567.375 148.253906 575.828125 C 160.355469 591.859375 174.542969 606.132812 189.367188 619.582031 C 195.871094 624.539062 201.035156 631.09375 208.453125 634.777344 C 225.867188 646.914062 244.25 657.476562 262.886719 667.574219 C 282.457031 677.5 302.625 686.164062 322.683594 695.074219 C 338.277344 698.804688 351.667969 708.480469 367.507812 711.300781 C 376.886719 714.152344 386.230469 717.109375 395.847656 718.96875 C 407.902344 723.292969 420.65625 724.855469 433.261719 726.46875 C 441.746094 727.824219 449.910156 730.808594 458.480469 731.425781 C 471.480469 731.28125 483.6875 736.746094 496.695312 737.066406 C 509.585938 737.019531 522.292969 739.707031 535.179688 739.910156 C 541.433594 740.59375 547.816406 740.457031 553.855469 742.417969 C 554.679688 742.203125 556.328125 741.769531 557.152344 741.550781 C 565.011719 743.195312 572.988281 741.46875 580.882812 742.40625 C 589.402344 743.566406 597.957031 744.304688 606.480469 745.273438 C 621.679688 745.1875 636.863281 745.859375 652.058594 746.09375 C 652.753906 747.074219 653.417969 748.046875 654.03125 748.976562 C 640.667969 748.566406 627.296875 748.804688 613.921875 748.867188 C 603.941406 748.285156 593.851562 746.03125 583.90625 748.417969 C 597.445312 751.019531 611.472656 751.867188 625.171875 750.242188 C 626.03125 750.734375 626.84375 751.195312 627.640625 751.621094 C 633.855469 752.054688 640.042969 750.808594 646.230469 751.390625 C 651.765625 751.609375 657.601562 752.214844 662.828125 750.023438 C 660.691406 749.570312 656.414062 748.691406 654.273438 748.257812 C 654.730469 747.675781 655.648438 746.496094 656.105469 745.921875 C 663.625 743.101562 671.605469 744.054688 679.28125 745.46875 C 689.425781 744.363281 699.570312 746.3125 709.710938 745.058594 C 708.089844 746.152344 706.550781 747.351562 704.855469 748.359375 C 707.855469 748.71875 710.953125 749.992188 713.890625 749.304688 C 716.851562 748.171875 711.101562 745.136719 710.3125 745.921875 C 718.53125 743.910156 727.03125 744.617188 735.375 743.964844 C 746.917969 742.726562 758.5625 742.511719 770.050781 740.753906 C 778.21875 739.457031 786.535156 740.207031 794.695312 738.929688 C 805 737.910156 815.355469 734.960938 825.703125 737.039062 C 818.378906 739.339844 810.488281 737.609375 803.140625 739.988281 C 797.695312 741.679688 791.929688 742.078125 786.3125 740.746094 C 786.136719 741.949219 785.789062 744.351562 785.613281 745.550781 C 804.304688 743.785156 823.070312 742.339844 841.585938 739.136719 C 853.9375 736.882812 866.832031 737.414062 878.671875 732.785156 C 879.570312 732.972656 881.371094 733.328125 882.269531 733.507812 C 887.660156 731.242188 893.503906 730.308594 899.304688 730.097656 C 913.535156 726.792969 928.25 725.410156 942.117188 720.539062 C 937.277344 716.976562 931.265625 720.160156 926.140625 721.472656 C 917.390625 724.898438 907.855469 726.472656 898.449219 726.210938 C 892.128906 728.714844 885.308594 729.59375 878.679688 730.992188 C 870.375 732.898438 861.789062 733.148438 853.304688 733.617188 C 848.433594 735.855469 842.933594 735.125 837.851562 736.609375 C 833.796875 737.941406 829.597656 736.960938 825.542969 736.019531 C 837.988281 733.066406 850.886719 732.578125 863.441406 730.164062 C 879.429688 728.375 895.125 724.617188 911.121094 722.875 C 920.804688 721.917969 930.105469 718.988281 939.5 716.628906 C 953.167969 714.179688 966.617188 710.722656 980.15625 707.660156 C 981.707031 707.246094 983.285156 707.597656 984.761719 708 C 977.730469 710.949219 970.285156 712.863281 962.652344 713.257812 C 957.46875 715.949219 951.609375 716.828125 945.835938 717.191406 C 944.929688 717.972656 943.089844 719.539062 942.175781 720.320312 C 955.996094 720.039062 968.863281 714.464844 982.230469 711.714844 C 991.445312 709.363281 1001.019531 708.179688 1009.632812 703.863281 C 1014.703125 698.644531 1022.582031 701.085938 1028.882812 698.785156 C 1031.9375 696.222656 1035.800781 695.105469 1039.699219 694.742188 C 1042.433594 693.15625 1045.269531 691.609375 1048.46875 691.3125 C 1055.433594 691.140625 1060.414062 684.59375 1067.628906 685.574219 C 1073.71875 684.601562 1079.058594 681.269531 1085.046875 679.910156 C 1087.210938 677.339844 1089.945312 675.320312 1093.421875 675.257812 C 1097.574219 672.292969 1102.371094 667.898438 1107.679688 671.203125 C 1118.746094 665.382812 1130.109375 660.082031 1141.902344 655.890625 C 1148.511719 653.753906 1153.761719 648.082031 1161.070312 648.296875 C 1165.980469 642.773438 1173.808594 641.9375 1179.457031 637.460938 C 1188.175781 631.042969 1199.089844 628.351562 1207.535156 621.507812 C 1212.347656 617.96875 1217.835938 615.445312 1222.386719 611.550781 C 1227.960938 611.144531 1231.203125 605.953125 1235.796875 603.453125 C 1239.570312 600.695312 1244.433594 599.914062 1248.015625 596.875 C 1258.390625 588.363281 1269.65625 580.824219 1281.796875 575.097656 C 1290.742188 566.515625 1299.277344 557.222656 1309.855469 550.59375 C 1320.558594 540.824219 1328.597656 528.640625 1337.09375 517.007812 C 1341.691406 510.964844 1345.234375 504.199219 1348.453125 497.347656 C 1351.855469 491.222656 1355.449219 485.152344 1357.632812 478.433594 C 1359.410156 473.945312 1360.066406 469.015625 1362.398438 464.699219 C 1368.507812 454.425781 1365.085938 441.851562 1361.371094 431.339844 C 1352.003906 406.074219 1336.632812 383.089844 1317.070312 364.542969 C 1303.269531 350.414062 1287.449219 338.480469 1271.285156 327.191406 C 1266.242188 324.183594 1260.847656 321.695312 1256.191406 318.011719 C 1240.320312 307.753906 1222.867188 300.257812 1205.882812 292.078125 C 1183.050781 280.984375 1159.355469 271.867188 1135.484375 263.296875 C 1082.425781 244.332031 1028.246094 228.140625 972.972656 216.878906 C 964.574219 214.949219 955.964844 213.800781 947.679688 211.285156 C 939.269531 208.84375 930.445312 208.421875 921.84375 206.714844 C 898.417969 202.125 874.585938 200 850.957031 196.703125 C 835.582031 194.402344 819.957031 193.5625 804.800781 189.929688 C 803.871094 190.386719 802 191.296875 801.078125 191.742188 C 798.457031 189.589844 795.289062 187.914062 792.191406 190.351562 C 784.875 189.550781 777.457031 190.015625 770.21875 188.484375 C 761.105469 186.839844 751.792969 188.480469 742.652344 186.980469 C 729.621094 184.847656 716.363281 184.738281 703.171875 184.554688 C 692.59375 185.648438 682.0625 183.769531 671.445312 184.207031 C 637.679688 184.757812 603.902344 185.074219 570.183594 187.328125 C 549.050781 188.808594 527.953125 190.882812 506.75 191.578125 C 501.8125 189.15625 496.324219 191.144531 491.265625 192.070312 C 487.308594 191.941406 483.351562 192.402344 479.402344 192.878906 C 480.121094 191.945312 481.578125 190.109375 482.296875 189.175781 C 484.699219 188.664062 487.105469 188.148438 489.453125 187.601562 C 489.90625 185.910156 490.398438 184.277344 490.804688 182.523438 C 473.738281 184.851562 456.601562 186.980469 439.394531 188.109375 C 432.792969 189.359375 426.050781 189.628906 419.324219 189.328125 C 417.652344 188.3125 416.1875 186.023438 413.816406 187.078125 C 414.882812 188.242188 415.859375 189.390625 416.761719 190.523438 C 412.199219 190.3125 407.585938 190.734375 403.042969 191.445312 C 405.796875 190.460938 408.578125 189.515625 411.199219 188.308594 C 409.691406 188.097656 406.671875 187.699219 405.15625 187.511719 C 390.6875 191.078125 375.621094 191.195312 361 193.890625 C 355.121094 194.988281 349.175781 195.894531 343.15625 195.710938 C 351.738281 193.609375 360.703125 193.21875 368.980469 189.988281 C 372.839844 191.742188 376.796875 189.621094 380.546875 188.777344 C 385.789062 189.019531 390.71875 187.089844 395.6875 185.785156 C 400.621094 186.761719 404.808594 183.664062 409.410156 182.636719 C 412.933594 181.707031 416.625 183.222656 420.089844 182.179688 C 424.398438 180.894531 428.851562 180.15625 433.316406 179.800781 C 441.542969 174.449219 452.242188 180.386719 459.925781 174.269531 C 454.136719 173.515625 448.324219 174.40625 442.5 174.519531 C 448.714844 171.988281 455.5625 172.113281 461.996094 170.511719 C 459.347656 166.519531 454.777344 168.519531 450.910156 168.84375 C 445.613281 169.425781 440.300781 170.039062 435.027344 170.976562 C 434.355469 171.363281 433.011719 172.160156 432.351562 172.570312 C 428.375 172.066406 424.53125 173.109375 420.65625 173.890625 C 404.167969 174.246094 388.023438 178.234375 371.554688 179.074219 C 379.535156 176.726562 387.539062 174.222656 395.875 173.644531 C 402.832031 173.136719 409.503906 170.597656 416.507812 170.953125 C 425.554688 168.824219 434.84375 167.445312 444.140625 167.386719 C 449.203125 166.070312 454.296875 164.8125 459.570312 165.074219 C 459.675781 164.816406 459.882812 164.324219 459.996094 164.09375 C 459.605469 163.65625 458.808594 162.800781 458.40625 162.386719 C 458.921875 162.296875 459.960938 162.160156 460.480469 162.078125 C 460.710938 161.398438 461.1875 160.042969 461.4375 159.359375 C 462.066406 159.335938 463.335938 159.265625 463.96875 159.230469 C 463.972656 160.226562 463.984375 162.230469 463.996094 163.21875 C 464.871094 167.207031 468.015625 161.957031 467.242188 160 C 468.480469 160.222656 470.980469 160.671875 472.21875 160.894531 C 471.078125 161.160156 468.792969 161.695312 467.652344 161.964844 L 467.332031 163.960938 C 471.820312 163.742188 476.242188 163.058594 480.640625 162.339844 C 480.632812 161.605469 480.617188 160.144531 480.628906 159.417969 C 484.152344 159.664062 487.328125 158.46875 489.496094 155.632812 C 496.023438 154.738281 502.898438 152.117188 509.304688 154.925781 C 512.261719 156.316406 515.457031 156.332031 518.554688 155.613281 C 518.074219 154.816406 517.109375 153.253906 516.648438 152.464844 C 521.3125 152.105469 525.925781 150.828125 530.609375 151.292969 C 536.101562 152.265625 541.410156 154.496094 547.050781 154.28125 C 547.449219 153.640625 548.230469 152.3125 548.636719 151.65625 C 547.464844 151.53125 545.160156 151.28125 544.007812 151.167969 C 546.269531 149.496094 548.796875 150.226562 551.179688 151.042969 C 555.179688 151.339844 559.199219 151.648438 563.175781 151.839844 C 566.039062 150.660156 568.921875 149.53125 571.75 148.320312 C 572.15625 149.097656 572.976562 150.691406 573.375 151.488281 C 576.519531 152.066406 579.800781 152.617188 582.503906 150.542969 C 579.722656 149.964844 576.839844 149.464844 573.96875 149.042969 C 575.476562 148.320312 577.003906 147.613281 578.46875 146.785156 C 578.925781 147.238281 579.824219 148.105469 580.28125 148.539062 C 587.769531 147.253906 595.367188 147.089844 602.9375 147.285156 C 602.378906 148.21875 601.257812 150.089844 600.691406 151.035156 C 604.667969 146.511719 611.09375 145.226562 616.847656 145.667969 C 617.261719 146.34375 618.101562 147.699219 618.523438 148.378906 C 622.410156 148.207031 627.777344 151.804688 629.570312 146.570312 C 630.421875 146.691406 632.128906 146.941406 632.976562 147.066406 C 633.597656 146.804688 634.832031 146.308594 635.449219 146.046875 C 637.746094 146.878906 639.992188 147.648438 642.214844 148.335938 C 646.566406 140.808594 654.839844 147.84375 661.210938 145.386719 C 665.804688 143.570312 670.476562 145.257812 674.660156 147.265625 C 676.0625 146.753906 677.460938 146.21875 678.808594 145.613281 C 681.199219 146.332031 683.554688 147.011719 685.875 147.628906 C 686.335938 146.777344 687.238281 145.050781 687.679688 144.191406 C 689.519531 144.292969 691.328125 144.359375 693.097656 144.378906 C 693.082031 143.097656 693.015625 141.796875 692.925781 140.4375 C 693.394531 140.558594 694.351562 140.828125 694.816406 140.964844 C 694.523438 141.890625 693.964844 143.742188 693.691406 144.675781 C 697.71875 145.511719 701.753906 145.953125 705.746094 146.714844 C 709.164062 146.816406 713.722656 149.109375 715.476562 144.863281 C 716.453125 145.375 718.390625 146.40625 719.363281 146.910156 C 724.664062 146.519531 729.996094 146.945312 735.25 146.066406 C 733.449219 144.3125 731.210938 143.253906 728.8125 142.285156 C 730.90625 141.898438 732.976562 141.398438 734.964844 140.761719 C 735.851562 140.988281 737.636719 141.453125 738.519531 141.679688 C 737.664062 142 735.976562 142.628906 735.136719 142.9375 C 735.785156 143.96875 736.421875 144.929688 737.039062 145.859375 C 742.359375 145.410156 747.675781 145.941406 752.964844 145.75 C 754.480469 152.355469 762.460938 147.054688 766.78125 146.691406 C 769.945312 148.367188 772.976562 150.191406 776.164062 151.703125 C 779.050781 151.046875 781.789062 149.769531 783.734375 147.457031 C 789.226562 147.832031 794.71875 148.402344 800.1875 147.617188 C 797.546875 146.667969 794.832031 146.453125 792.015625 146.054688 C 794.460938 141.410156 800.9375 144.902344 803.71875 140.511719 L 805.054688 140.609375 L 804.144531 143.800781 C 809.066406 144.324219 813.898438 143.414062 818.75 142.890625 C 823.546875 143.519531 828.347656 143.855469 833.164062 143.71875 C 833.519531 144.613281 834.238281 146.429688 834.589844 147.339844 C 836.554688 147.761719 838.480469 148.171875 840.378906 148.519531 C 841.886719 147.761719 843.375 146.957031 844.824219 146.132812 C 846.582031 147 848.308594 147.824219 850.011719 148.59375 C 850.101562 147.75 850.273438 146.089844 850.363281 145.238281 C 851.308594 145.535156 853.179688 146.132812 854.125 146.421875 C 853.613281 146.929688 852.605469 147.925781 852.109375 148.433594 C 860.539062 151.148438 869.417969 151.207031 878.101562 152.476562 C 892.972656 153.3125 907.472656 159.132812 922.460938 157.558594 C 926.070312 159.964844 930.28125 160.894531 934.472656 159.597656 C 937.585938 161.355469 940.976562 163.050781 944.296875 160.859375 C 940.808594 159.828125 937.339844 158.902344 933.75 157.957031 C 937.414062 153.199219 942.4375 157.203125 946.867188 158.105469 C 948.214844 159.515625 949.546875 160.863281 950.859375 162.164062 C 951.78125 161.183594 952.691406 160.148438 953.578125 159.082031 C 962.707031 161.082031 971.902344 162.726562 980.996094 164.746094 L 979.925781 166.179688 C 977.441406 165.03125 974.835938 163.96875 971.996094 164.828125 C 975.960938 166.34375 980.039062 167.300781 984.054688 168.484375 L 984.304688 167.402344 L 981.921875 165.53125 C 990.75 165.410156 999.175781 168.570312 1006.945312 172.457031 L 1006.007812 173.609375 L 1008.710938 174.390625 C 1008.179688 173.425781 1007.113281 171.507812 1006.582031 170.5625 C 1011.871094 170.683594 1016.90625 172.390625 1021.996094 173.597656 C 1019.460938 174.128906 1016.882812 174.425781 1014.316406 174.894531 C 1016.953125 175.371094 1019.5625 175.871094 1022.144531 176.386719 C 1024.417969 173.011719 1027.488281 176.121094 1030.25 176.804688 C 1032.605469 177.375 1034.988281 177.6875 1037.304688 178.105469 C 1053.222656 180.660156 1067.65625 188.644531 1083.621094 191.109375 C 1094.253906 192.265625 1103.796875 197.34375 1113.765625 200.78125 C 1123.613281 201.375 1132.382812 206.558594 1141.648438 209.40625 C 1158.351562 214.367188 1174.101562 222.398438 1191.171875 226.101562 C 1187.410156 223.199219 1182.605469 222.058594 1178.726562 219.300781 C 1179.273438 216.144531 1182.707031 219.503906 1184.472656 219.542969 C 1194.652344 223.3125 1204.914062 226.953125 1214.421875 232.191406 C 1241.242188 243.484375 1267.648438 256.257812 1291.175781 273.5625 C 1298.605469 278.558594 1306.285156 283.289062 1312.695312 289.605469 C 1316.945312 292.660156 1315.875 298.847656 1320.667969 301.542969 C 1320.386719 300.542969 1319.839844 298.523438 1319.5625 297.523438 C 1320.863281 297.902344 1323.472656 298.6875 1324.769531 299.070312 C 1326.171875 300.78125 1327.539062 302.453125 1328.910156 304.082031 C 1329.398438 305.441406 1329.867188 306.773438 1330.3125 308.0625 C 1333.855469 312.242188 1336.085938 317.34375 1339.699219 321.453125 C 1344.304688 328.011719 1351.152344 332.832031 1354.539062 340.234375 C 1355.425781 343.335938 1358.660156 343.96875 1361.1875 345.089844 C 1363.871094 353.433594 1365.917969 362.558594 1371.742188 369.34375 C 1375.425781 381.832031 1379.226562 394.34375 1384.777344 406.144531 C 1392.007812 429.023438 1395.933594 453.398438 1392.414062 477.339844 C 1388.953125 501.574219 1380.890625 525.1875 1368.976562 546.5625 C 1361.484375 563.265625 1350.773438 578.28125 1338.503906 591.792969 C 1328.109375 602.28125 1317.976562 613.121094 1305.808594 621.613281 C 1296.441406 627.839844 1288.535156 636.0625 1278.726562 641.601562 C 1265.121094 651.027344 1250.835938 659.449219 1236.695312 668.058594 C 1227.25 675.847656 1216.433594 681.777344 1205.199219 686.589844 C 1195.140625 692.167969 1185.273438 698.214844 1174.640625 702.722656 C 1159.367188 710.808594 1142.933594 716.378906 1127.414062 723.96875 C 1112.820312 729.261719 1098.460938 735.160156 1083.945312 740.675781 C 1073.644531 743.292969 1063.933594 747.738281 1053.644531 750.375 C 1042.671875 755.539062 1030.808594 758.238281 1019.171875 761.460938 C 1006.304688 766.070312 992.738281 768.332031 979.527344 771.789062 C 968.40625 773.484375 957.738281 777.234375 946.65625 779.113281 C 928.816406 782.511719 910.953125 786.03125 892.902344 788.023438 C 876 791.15625 858.933594 793.464844 841.90625 795.773438 C 832.925781 797.191406 823.617188 797.234375 815.097656 800.800781 C 806.558594 800.652344 797.945312 800.773438 789.558594 802.601562 C 783.019531 804.34375 776.285156 802.699219 769.628906 803.121094 C 763.917969 803.5 758.097656 803.488281 752.535156 805.089844 C 745.378906 807.328125 737.972656 804.042969 730.65625 805.347656 C 723.980469 806.574219 717.148438 804.898438 710.464844 806.265625 C 693.804688 809.945312 676.757812 806.121094 659.972656 806.789062 C 646.511719 805.425781 632.964844 805.363281 619.460938 805.023438 C 599.527344 805.332031 579.800781 801.121094 559.847656 801.609375 C 515.558594 796.617188 471.070312 792.527344 427.425781 783.226562 Z M 732.410156 748.707031 C 740.921875 748.988281 749.3125 747.203125 757.8125 747.007812 C 760.757812 746.757812 764.335938 747.324219 766.171875 744.421875 C 757.886719 744.113281 749.765625 746.59375 741.492188 745.824219 C 733.027344 745.585938 724.636719 747.210938 716.152344 746.449219 C 716.898438 747.585938 717.632812 748.691406 718.351562 749.761719 C 723.035156 749.152344 727.707031 748.578125 732.410156 748.707031 Z M 779.152344 744.332031 C 774.882812 743.417969 770.640625 744.6875 766.480469 745.574219 C 770.742188 746.402344 775.269531 746.59375 779.152344 744.332031 Z M 428.828125 185.859375 C 426.820312 184.585938 422.050781 184.417969 420.941406 186.742188 C 423.027344 188.117188 427.78125 188.390625 428.828125 185.859375 Z M 480.585938 174.109375 C 483.808594 174.882812 485.027344 169.972656 481.210938 170.394531 C 478.019531 169.644531 476.8125 174.601562 480.585938 174.109375 Z M 508.058594 169.152344 C 509.566406 167.089844 508.96875 166.121094 506.246094 166.257812 C 504.789062 168.410156 505.390625 169.382812 508.058594 169.152344 Z M 504.445312 159.15625 C 508.9375 158.289062 503.765625 153.6875 501.328125 155.621094 C 499.410156 157.449219 502.671875 159.726562 504.445312 159.15625 Z M 818.855469 149.015625 C 815.585938 148.46875 812.179688 146.890625 808.816406 147.820312 C 809.738281 149.539062 810.664062 151.191406 811.628906 152.773438 C 814.101562 151.640625 816.507812 150.398438 818.855469 149.015625 Z M 805.53125 150.3125 C 807.035156 148.21875 806.445312 147.203125 803.765625 147.253906 C 802.308594 149.402344 802.902344 150.410156 805.53125 150.3125 Z M 840.164062 153.296875 C 842.5 152.320312 844.867188 151.394531 847.152344 150.351562 C 842.839844 148.5625 838.109375 149.394531 833.574219 149.550781 C 828.949219 149.964844 824.355469 148.046875 819.734375 149.144531 C 825.703125 153.503906 833.238281 152.738281 840.164062 153.296875 Z M 880.214844 158.082031 C 881.710938 156.011719 881.105469 155.007812 878.417969 155.03125 C 876.996094 157.164062 877.597656 158.183594 880.214844 158.082031 Z M 895.878906 158.894531 C 892.042969 157.984375 888.148438 157.148438 884.25 156.394531 C 885.503906 158.273438 887.160156 159.804688 889.617188 158.90625 C 891.726562 159.703125 893.96875 160.820312 895.878906 158.894531 Z M 1255.839844 256.238281 C 1255.257812 255.144531 1255.257812 255.144531 1255.839844 256.238281 Z M 1251.40625 252.824219 C 1244.082031 249.085938 1236.945312 244.605469 1228.894531 242.539062 C 1234.203125 247.242188 1241.390625 248.847656 1247.042969 253.035156 C 1248.523438 253.023438 1249.972656 252.945312 1251.40625 252.824219 Z M 993.636719 168.367188 C 992.289062 166.691406 988.917969 167.425781 988.417969 169.5625 C 988.472656 172.992188 994.765625 171.371094 993.636719 168.367188"/></g><g fill="#FFC107"><g><g><path d="M 214.96875 -32.8125 C 214.375 -27.59375 213.523438 -22.472656 212.421875 -17.453125 C 211.316406 -12.441406 209.957031 -7.976562 208.34375 -4.0625 C 206.738281 -0.144531 204.679688 2.960938 202.171875 5.265625 C 199.671875 7.578125 196.8125 8.734375 193.59375 8.734375 C 190.382812 8.734375 187.472656 6.273438 184.859375 1.359375 C 182.253906 -3.554688 179.796875 -10.078125 177.484375 -18.203125 C 175.179688 -26.335938 173.078125 -35.523438 171.171875 -45.765625 C 169.265625 -56.003906 167.554688 -66.390625 166.046875 -76.921875 C 164.546875 -87.460938 163.289062 -97.75 162.28125 -107.78125 C 161.28125 -117.820312 160.476562 -126.554688 159.875 -133.984375 C 158.675781 -126.359375 157.269531 -117.828125 155.65625 -108.390625 C 154.050781 -98.953125 152.144531 -89.363281 149.9375 -79.625 C 147.726562 -69.894531 145.316406 -60.363281 142.703125 -51.03125 C 140.097656 -41.695312 137.289062 -33.363281 134.28125 -26.03125 C 131.269531 -18.707031 128.054688 -12.835938 124.640625 -8.421875 C 121.234375 -4.015625 117.625 -1.8125 113.8125 -1.8125 C 110.394531 -1.8125 106.976562 -4.117188 103.5625 -8.734375 C 100.15625 -13.347656 96.847656 -19.414062 93.640625 -26.9375 C 90.429688 -34.46875 87.421875 -42.847656 84.609375 -52.078125 C 81.796875 -61.316406 79.179688 -70.601562 76.765625 -79.9375 C 74.359375 -89.269531 72.253906 -98.097656 70.453125 -106.421875 C 68.648438 -114.753906 67.242188 -121.734375 66.234375 -127.359375 C 66.234375 -123.140625 66.179688 -118.472656 66.078125 -113.359375 C 65.984375 -108.242188 65.9375 -104.582031 65.9375 -102.375 C 65.9375 -101.363281 65.882812 -98.046875 65.78125 -92.421875 C 65.6875 -86.804688 65.335938 -80.082031 64.734375 -72.25 C 64.128906 -64.425781 63.222656 -56.046875 62.015625 -47.109375 C 60.816406 -38.179688 59.0625 -29.90625 56.75 -22.28125 C 54.445312 -14.65625 51.585938 -8.234375 48.171875 -3.015625 C 44.765625 2.203125 40.550781 5.015625 35.53125 5.421875 C 31.507812 3.609375 28.144531 0.546875 25.4375 -3.765625 C 22.726562 -8.078125 20.46875 -13.144531 18.65625 -18.96875 C 16.851562 -24.789062 15.453125 -31.015625 14.453125 -37.640625 C 13.453125 -44.265625 12.648438 -50.738281 12.046875 -57.0625 C 11.441406 -63.382812 11.085938 -69.253906 10.984375 -74.671875 C 10.890625 -80.085938 10.84375 -84.503906 10.84375 -87.921875 C 10.84375 -93.941406 11.191406 -101.515625 11.890625 -110.640625 C 12.597656 -119.773438 13.753906 -129.359375 15.359375 -139.390625 C 16.960938 -149.429688 19.066406 -159.46875 21.671875 -169.5 C 24.285156 -179.539062 27.445312 -188.523438 31.15625 -196.453125 C 34.875 -204.390625 39.191406 -210.863281 44.109375 -215.875 C 49.023438 -220.894531 54.695312 -223.40625 61.125 -223.40625 C 64.132812 -223.40625 67.34375 -221.695312 70.75 -218.28125 C 74.164062 -214.875 77.578125 -210.410156 80.984375 -204.890625 C 84.398438 -199.367188 87.710938 -193.195312 90.921875 -186.375 C 94.140625 -179.550781 97.203125 -172.675781 100.109375 -165.75 C 103.023438 -158.820312 105.582031 -152.195312 107.78125 -145.875 C 109.988281 -139.550781 111.796875 -134.179688 113.203125 -129.765625 C 114.816406 -134.585938 116.828125 -140.207031 119.234375 -146.625 C 121.640625 -153.050781 124.296875 -159.722656 127.203125 -166.640625 C 130.117188 -173.566406 133.332031 -180.394531 136.84375 -187.125 C 140.351562 -193.851562 144.015625 -199.875 147.828125 -205.1875 C 151.640625 -210.507812 155.503906 -214.828125 159.421875 -218.140625 C 163.335938 -221.453125 167.300781 -223.109375 171.3125 -223.109375 C 178.34375 -223.109375 184.363281 -220.5 189.375 -215.28125 C 194.394531 -210.0625 198.609375 -203.285156 202.015625 -194.953125 C 205.429688 -186.617188 208.144531 -177.285156 210.15625 -166.953125 C 212.164062 -156.617188 213.722656 -146.378906 214.828125 -136.234375 C 215.929688 -126.097656 216.632812 -116.613281 216.9375 -107.78125 C 217.238281 -98.957031 217.390625 -91.832031 217.390625 -86.40625 C 217.390625 -84.195312 217.390625 -81.1875 217.390625 -77.375 C 217.390625 -73.5625 217.335938 -69.242188 217.234375 -64.421875 C 217.128906 -59.609375 216.875 -54.492188 216.46875 -49.078125 C 216.070312 -43.660156 215.570312 -38.238281 214.96875 -32.8125 Z M 214.96875 -32.8125" transform="translate(177.283 521.822)"/></g></g></g><g fill="#FFC107"><g><g><path d="M 135.1875 -53.59375 C 135.1875 -46.769531 133.023438 -40.09375 128.703125 -33.5625 C 124.390625 -27.039062 118.972656 -21.222656 112.453125 -16.109375 C 105.929688 -10.992188 98.957031 -6.878906 91.53125 -3.765625 C 84.101562 -0.648438 77.28125 0.90625 71.0625 0.90625 C 60.414062 0.90625 50.925781 -1.75 42.59375 -7.0625 C 34.269531 -12.382812 27.296875 -19.160156 21.671875 -27.390625 C 16.054688 -35.628906 11.789062 -44.710938 8.875 -54.640625 C 5.96875 -64.578125 4.515625 -74.265625 4.515625 -83.703125 C 4.515625 -93.734375 5.921875 -104.46875 8.734375 -115.90625 C 11.546875 -127.351562 15.8125 -137.894531 21.53125 -147.53125 C 27.25 -157.164062 34.472656 -165.191406 43.203125 -171.609375 C 51.929688 -178.035156 62.320312 -181.25 74.375 -181.25 C 81.195312 -181.25 87.71875 -180.09375 93.9375 -177.78125 C 100.15625 -175.476562 105.570312 -172.21875 110.1875 -168 C 114.8125 -163.789062 118.523438 -158.773438 121.328125 -152.953125 C 124.140625 -147.128906 125.546875 -140.601562 125.546875 -133.375 C 125.546875 -123.945312 123.539062 -115.117188 119.53125 -106.890625 C 115.519531 -98.660156 110.203125 -91.53125 103.578125 -85.5 C 96.953125 -79.476562 89.320312 -74.609375 80.6875 -70.890625 C 72.0625 -67.179688 63.234375 -65.128906 54.203125 -64.734375 C 55.003906 -58.910156 57.359375 -54.691406 61.265625 -52.078125 C 65.179688 -49.472656 69.847656 -48.171875 75.265625 -48.171875 C 79.285156 -48.171875 83.203125 -49.175781 87.015625 -51.1875 C 90.828125 -53.195312 94.539062 -55.453125 98.15625 -57.953125 C 101.769531 -60.460938 105.332031 -62.722656 108.84375 -64.734375 C 112.351562 -66.742188 115.914062 -67.75 119.53125 -67.75 C 123.539062 -67.75 127.148438 -66.441406 130.359375 -63.828125 C 133.578125 -61.222656 135.1875 -57.8125 135.1875 -53.59375 Z M 86.40625 -127.359375 C 86.40625 -129.972656 85.703125 -132.679688 84.296875 -135.484375 C 82.898438 -138.296875 80.695312 -139.703125 77.6875 -139.703125 C 73.269531 -139.703125 69.554688 -138.546875 66.546875 -136.234375 C 63.535156 -133.929688 61.023438 -131.019531 59.015625 -127.5 C 57.003906 -123.988281 55.445312 -120.226562 54.34375 -116.21875 C 53.238281 -112.207031 52.585938 -108.492188 52.390625 -105.078125 C 55.203125 -105.679688 58.5625 -106.484375 62.46875 -107.484375 C 66.382812 -108.492188 70.097656 -109.847656 73.609375 -111.546875 C 77.128906 -113.253906 80.140625 -115.410156 82.640625 -118.015625 C 85.148438 -120.628906 86.40625 -123.742188 86.40625 -127.359375 Z M 86.40625 -127.359375" transform="translate(407.009 521.822)"/></g></g></g><g fill="#FFC107"><g><g><path d="M 191.796875 -99.359375 C 191.796875 -95.546875 191.796875 -90.375 191.796875 -83.84375 C 191.796875 -77.320312 191.644531 -70.25 191.34375 -62.625 C 191.039062 -55 190.382812 -47.320312 189.375 -39.59375 C 188.375 -31.863281 186.820312 -24.882812 184.71875 -18.65625 C 182.613281 -12.4375 179.953125 -7.320312 176.734375 -3.3125 C 173.523438 0.695312 169.410156 2.703125 164.390625 2.703125 C 159.972656 2.703125 156.609375 0.847656 154.296875 -2.859375 C 151.992188 -6.578125 150.335938 -10.941406 149.328125 -15.953125 C 148.328125 -20.972656 147.773438 -26.09375 147.671875 -31.3125 C 147.578125 -36.53125 147.53125 -40.644531 147.53125 -43.65625 C 147.53125 -52.6875 147.832031 -61.515625 148.4375 -70.140625 C 149.039062 -78.773438 149.34375 -87.613281 149.34375 -96.65625 C 149.34375 -97.65625 149.34375 -99.457031 149.34375 -102.0625 C 149.34375 -104.675781 149.140625 -107.285156 148.734375 -109.890625 C 148.335938 -112.503906 147.6875 -114.8125 146.78125 -116.8125 C 145.875 -118.820312 144.519531 -119.828125 142.71875 -119.828125 C 139.101562 -119.828125 136.191406 -117.96875 133.984375 -114.25 C 131.773438 -110.539062 129.96875 -106.175781 128.5625 -101.15625 C 127.15625 -96.144531 126.148438 -91.179688 125.546875 -86.265625 C 124.953125 -81.347656 124.550781 -77.679688 124.34375 -75.265625 C 123.945312 -72.660156 123.597656 -68.75 123.296875 -63.53125 C 122.992188 -58.3125 122.59375 -52.585938 122.09375 -46.359375 C 121.59375 -40.140625 120.789062 -33.769531 119.6875 -27.25 C 118.582031 -20.726562 117.175781 -14.804688 115.46875 -9.484375 C 113.757812 -4.160156 111.597656 0.203125 108.984375 3.609375 C 106.378906 7.023438 103.171875 8.734375 99.359375 8.734375 C 94.535156 8.734375 90.816406 6.625 88.203125 2.40625 C 85.597656 -1.8125 83.691406 -6.726562 82.484375 -12.34375 C 81.285156 -17.96875 80.535156 -23.6875 80.234375 -29.5 C 79.929688 -35.320312 79.78125 -39.84375 79.78125 -43.0625 C 79.78125 -46.46875 79.832031 -49.773438 79.9375 -52.984375 C 80.039062 -56.203125 80.09375 -59.515625 80.09375 -62.921875 C 80.09375 -64.328125 80.09375 -66.632812 80.09375 -69.84375 C 80.09375 -73.0625 80.039062 -76.625 79.9375 -80.53125 C 79.832031 -84.445312 79.628906 -88.515625 79.328125 -92.734375 C 79.035156 -96.953125 78.585938 -100.816406 77.984375 -104.328125 C 77.378906 -107.835938 76.472656 -110.695312 75.265625 -112.90625 C 74.066406 -115.113281 72.664062 -116.21875 71.0625 -116.21875 C 68.445312 -116.21875 66.035156 -114.5625 63.828125 -111.25 C 61.617188 -107.9375 59.710938 -104.019531 58.109375 -99.5 C 56.503906 -94.988281 55.25 -90.523438 54.34375 -86.109375 C 53.4375 -81.691406 52.984375 -78.476562 52.984375 -76.46875 L 52.984375 -74.671875 C 52.984375 -65.035156 53.585938 -55.597656 54.796875 -46.359375 C 56.003906 -37.128906 56.609375 -27.695312 56.609375 -18.0625 C 56.609375 -12.445312 54.800781 -7.28125 51.1875 -2.5625 C 47.570312 2.15625 42.550781 4.515625 36.125 4.515625 C 31.507812 4.515625 27.695312 2.757812 24.6875 -0.75 C 21.675781 -4.257812 19.164062 -8.820312 17.15625 -14.4375 C 15.15625 -20.0625 13.601562 -26.238281 12.5 -32.96875 C 11.394531 -39.695312 10.640625 -46.320312 10.234375 -52.84375 C 9.835938 -59.363281 9.585938 -65.28125 9.484375 -70.59375 C 9.378906 -75.914062 9.328125 -79.882812 9.328125 -82.5 C 9.328125 -85.507812 9.273438 -89.925781 9.171875 -95.75 C 9.078125 -101.570312 9.179688 -107.894531 9.484375 -114.71875 C 9.785156 -121.539062 10.335938 -128.515625 11.140625 -135.640625 C 11.941406 -142.765625 13.242188 -149.238281 15.046875 -155.0625 C 16.859375 -160.882812 19.21875 -165.648438 22.125 -169.359375 C 25.039062 -173.078125 28.804688 -174.9375 33.421875 -174.9375 C 38.640625 -174.9375 42.90625 -173.53125 46.21875 -170.71875 C 49.53125 -167.90625 51.1875 -163.691406 51.1875 -158.078125 C 51.1875 -156.867188 51.132812 -155.660156 51.03125 -154.453125 C 50.9375 -153.253906 50.785156 -152.148438 50.578125 -151.140625 C 52.785156 -154.359375 55.492188 -157.625 58.703125 -160.9375 C 61.921875 -164.25 65.382812 -167.257812 69.09375 -169.96875 C 72.8125 -172.675781 76.773438 -174.878906 80.984375 -176.578125 C 85.203125 -178.285156 89.421875 -179.140625 93.640625 -179.140625 C 97.648438 -179.140625 101.257812 -178.035156 104.46875 -175.828125 C 107.6875 -173.617188 110.5 -170.859375 112.90625 -167.546875 C 115.3125 -164.242188 117.316406 -160.679688 118.921875 -156.859375 C 120.535156 -153.046875 121.640625 -149.4375 122.234375 -146.03125 C 124.242188 -149.644531 126.703125 -153.304688 129.609375 -157.015625 C 132.523438 -160.734375 135.6875 -163.992188 139.09375 -166.796875 C 142.507812 -169.609375 146.273438 -171.914062 150.390625 -173.71875 C 154.503906 -175.53125 158.769531 -176.4375 163.1875 -176.4375 C 167.40625 -176.4375 171.019531 -174.929688 174.03125 -171.921875 C 177.039062 -168.910156 179.648438 -165.046875 181.859375 -160.328125 C 184.066406 -155.609375 185.769531 -150.285156 186.96875 -144.359375 C 188.175781 -138.441406 189.179688 -132.625 189.984375 -126.90625 C 190.785156 -121.1875 191.285156 -115.867188 191.484375 -110.953125 C 191.691406 -106.035156 191.796875 -102.171875 191.796875 -99.359375 Z M 191.796875 -99.359375" transform="translate(545.206 521.822)"/></g></g></g><g fill="#FFC107"><g><g><path d="M 135.1875 -53.59375 C 135.1875 -46.769531 133.023438 -40.09375 128.703125 -33.5625 C 124.390625 -27.039062 118.972656 -21.222656 112.453125 -16.109375 C 105.929688 -10.992188 98.957031 -6.878906 91.53125 -3.765625 C 84.101562 -0.648438 77.28125 0.90625 71.0625 0.90625 C 60.414062 0.90625 50.925781 -1.75 42.59375 -7.0625 C 34.269531 -12.382812 27.296875 -19.160156 21.671875 -27.390625 C 16.054688 -35.628906 11.789062 -44.710938 8.875 -54.640625 C 5.96875 -64.578125 4.515625 -74.265625 4.515625 -83.703125 C 4.515625 -93.734375 5.921875 -104.46875 8.734375 -115.90625 C 11.546875 -127.351562 15.8125 -137.894531 21.53125 -147.53125 C 27.25 -157.164062 34.472656 -165.191406 43.203125 -171.609375 C 51.929688 -178.035156 62.320312 -181.25 74.375 -181.25 C 81.195312 -181.25 87.71875 -180.09375 93.9375 -177.78125 C 100.15625 -175.476562 105.570312 -172.21875 110.1875 -168 C 114.8125 -163.789062 118.523438 -158.773438 121.328125 -152.953125 C 124.140625 -147.128906 125.546875 -140.601562 125.546875 -133.375 C 125.546875 -123.945312 123.539062 -115.117188 119.53125 -106.890625 C 115.519531 -98.660156 110.203125 -91.53125 103.578125 -85.5 C 96.953125 -79.476562 89.320312 -74.609375 80.6875 -70.890625 C 72.0625 -67.179688 63.234375 -65.128906 54.203125 -64.734375 C 55.003906 -58.910156 57.359375 -54.691406 61.265625 -52.078125 C 65.179688 -49.472656 69.847656 -48.171875 75.265625 -48.171875 C 79.285156 -48.171875 83.203125 -49.175781 87.015625 -51.1875 C 90.828125 -53.195312 94.539062 -55.453125 98.15625 -57.953125 C 101.769531 -60.460938 105.332031 -62.722656 108.84375 -64.734375 C 112.351562 -66.742188 115.914062 -67.75 119.53125 -67.75 C 123.539062 -67.75 127.148438 -66.441406 130.359375 -63.828125 C 133.578125 -61.222656 135.1875 -57.8125 135.1875 -53.59375 Z M 86.40625 -127.359375 C 86.40625 -129.972656 85.703125 -132.679688 84.296875 -135.484375 C 82.898438 -138.296875 80.695312 -139.703125 77.6875 -139.703125 C 73.269531 -139.703125 69.554688 -138.546875 66.546875 -136.234375 C 63.535156 -133.929688 61.023438 -131.019531 59.015625 -127.5 C 57.003906 -123.988281 55.445312 -120.226562 54.34375 -116.21875 C 53.238281 -112.207031 52.585938 -108.492188 52.390625 -105.078125 C 55.203125 -105.679688 58.5625 -106.484375 62.46875 -107.484375 C 66.382812 -108.492188 70.097656 -109.847656 73.609375 -111.546875 C 77.128906 -113.253906 80.140625 -115.410156 82.640625 -118.015625 C 85.148438 -120.628906 86.40625 -123.742188 86.40625 -127.359375 Z M 86.40625 -127.359375" transform="translate(747.834 521.822)"/></g></g></g><g fill="#FFC107"><g><g><path d="M 135.484375 -199.3125 C 135.484375 -198.3125 134.53125 -195.398438 132.625 -190.578125 C 130.71875 -185.765625 128.160156 -179.84375 124.953125 -172.8125 C 121.742188 -165.789062 118.078125 -157.914062 113.953125 -149.1875 C 109.835938 -140.457031 105.570312 -131.523438 101.15625 -122.390625 C 96.75 -113.253906 92.4375 -104.269531 88.21875 -95.4375 C 84 -86.613281 80.132812 -78.632812 76.625 -71.5 C 73.113281 -64.375 70.148438 -58.351562 67.734375 -53.4375 C 65.328125 -48.519531 63.828125 -45.460938 63.234375 -44.265625 C 69.453125 -46.265625 75.820312 -47.914062 82.34375 -49.21875 C 88.863281 -50.53125 95.4375 -51.1875 102.0625 -51.1875 C 105.28125 -51.1875 108.691406 -50.929688 112.296875 -50.421875 C 115.910156 -49.921875 119.273438 -48.914062 122.390625 -47.40625 C 125.503906 -45.90625 128.113281 -43.898438 130.21875 -41.390625 C 132.320312 -38.890625 133.375 -35.53125 133.375 -31.3125 C 133.375 -26.894531 131.867188 -22.929688 128.859375 -19.421875 C 125.847656 -15.910156 121.984375 -12.847656 117.265625 -10.234375 C 112.554688 -7.628906 107.1875 -5.421875 101.15625 -3.609375 C 95.132812 -1.804688 89.113281 -0.304688 83.09375 0.890625 C 77.070312 2.097656 71.351562 2.953125 65.9375 3.453125 C 60.519531 3.960938 56.003906 4.21875 52.390625 4.21875 C 47.773438 4.21875 42.707031 4.015625 37.1875 3.609375 C 31.664062 3.210938 26.394531 2.109375 21.375 0.296875 C 16.351562 -1.503906 12.1875 -4.160156 8.875 -7.671875 C 5.570312 -11.191406 3.921875 -16.160156 3.921875 -22.578125 C 3.921875 -26.992188 5.171875 -32.960938 7.671875 -40.484375 C 10.179688 -48.015625 13.140625 -55.742188 16.546875 -63.671875 C 19.960938 -71.609375 23.523438 -79.238281 27.234375 -86.5625 C 30.953125 -93.882812 33.914062 -99.65625 36.125 -103.875 C 42.957031 -116.519531 49.832031 -129.113281 56.75 -141.65625 C 63.675781 -154.207031 70.453125 -166.90625 77.078125 -179.75 C 70.054688 -175.738281 62.023438 -172.078125 52.984375 -168.765625 C 43.953125 -165.453125 35.425781 -163.796875 27.40625 -163.796875 C 24.59375 -163.796875 21.628906 -164.195312 18.515625 -165 C 15.398438 -165.800781 12.585938 -166.953125 10.078125 -168.453125 C 7.578125 -169.960938 5.519531 -171.921875 3.90625 -174.328125 C 2.300781 -176.734375 1.5 -179.546875 1.5 -182.765625 C 1.5 -187.984375 3.207031 -192.796875 6.625 -197.203125 C 10.039062 -201.617188 14.503906 -205.632812 20.015625 -209.25 C 25.535156 -212.863281 31.757812 -216.078125 38.6875 -218.890625 C 45.613281 -221.703125 52.585938 -224.007812 59.609375 -225.8125 C 66.640625 -227.625 73.316406 -229.03125 79.640625 -230.03125 C 85.960938 -231.03125 91.332031 -231.53125 95.75 -231.53125 C 107.382812 -231.53125 116.914062 -229.222656 124.34375 -224.609375 C 131.769531 -219.992188 135.484375 -211.5625 135.484375 -199.3125 Z M 135.484375 -199.3125" transform="translate(886.03 521.822)"/></g></g></g><g fill="#FFC107"><g><g><path d="M 144.21875 -28.296875 C 144.21875 -24.285156 142.5625 -20.773438 139.25 -17.765625 C 135.9375 -14.753906 131.71875 -12.039062 126.59375 -9.625 C 121.476562 -7.21875 115.660156 -5.210938 109.140625 -3.609375 C 102.617188 -2.003906 96.195312 -0.703125 89.875 0.296875 C 83.550781 1.304688 77.578125 2.0625 71.953125 2.5625 C 66.335938 3.0625 61.820312 3.3125 58.40625 3.3125 C 55 3.3125 50.234375 3.207031 44.109375 3 C 37.984375 2.800781 31.910156 2.050781 25.890625 0.75 C 19.867188 -0.550781 14.648438 -2.65625 10.234375 -5.5625 C 5.816406 -8.476562 3.609375 -12.546875 3.609375 -17.765625 C 3.609375 -21.773438 5.015625 -26.691406 7.828125 -32.515625 C 10.640625 -38.335938 14.253906 -44.660156 18.671875 -51.484375 C 23.085938 -58.304688 28.003906 -65.28125 33.421875 -72.40625 C 38.835938 -79.53125 44.15625 -86.40625 49.375 -93.03125 C 54.59375 -99.65625 59.507812 -105.726562 64.125 -111.25 C 68.75 -116.769531 72.363281 -121.335938 74.96875 -124.953125 C 72.15625 -124.347656 68.59375 -123.492188 64.28125 -122.390625 C 59.96875 -121.285156 55.5 -120.226562 50.875 -119.21875 C 46.257812 -118.21875 41.796875 -117.367188 37.484375 -116.671875 C 33.171875 -115.972656 29.507812 -115.625 26.5 -115.625 C 24.082031 -115.625 21.367188 -116.070312 18.359375 -116.96875 C 15.347656 -117.875 12.488281 -119.128906 9.78125 -120.734375 C 7.070312 -122.335938 4.765625 -124.242188 2.859375 -126.453125 C 0.953125 -128.660156 0 -131.171875 0 -133.984375 C 0 -137.597656 1.601562 -140.957031 4.8125 -144.0625 C 8.03125 -147.175781 12.25 -149.988281 17.46875 -152.5 C 22.6875 -155.007812 28.503906 -157.21875 34.921875 -159.125 C 41.347656 -161.03125 47.671875 -162.632812 53.890625 -163.9375 C 60.117188 -165.25 66.039062 -166.203125 71.65625 -166.796875 C 77.28125 -167.398438 81.796875 -167.703125 85.203125 -167.703125 C 89.015625 -167.703125 93.628906 -167.300781 99.046875 -166.5 C 104.472656 -165.695312 109.742188 -164.289062 114.859375 -162.28125 C 119.984375 -160.28125 124.347656 -157.570312 127.953125 -154.15625 C 131.566406 -150.738281 133.375 -146.421875 133.375 -141.203125 C 133.375 -139.597656 133.222656 -138.144531 132.921875 -136.84375 C 132.628906 -135.539062 132.28125 -134.085938 131.875 -132.484375 C 131.476562 -131.078125 129.722656 -127.914062 126.609375 -123 C 123.492188 -118.082031 119.675781 -112.257812 115.15625 -105.53125 C 110.644531 -98.800781 105.726562 -91.570312 100.40625 -83.84375 C 95.09375 -76.125 90.023438 -68.847656 85.203125 -62.015625 C 80.390625 -55.191406 76.175781 -49.171875 72.5625 -43.953125 C 68.945312 -38.734375 66.535156 -35.222656 65.328125 -33.421875 C 73.566406 -35.628906 81.945312 -37.484375 90.46875 -38.984375 C 99 -40.492188 107.484375 -41.25 115.921875 -41.25 C 117.921875 -41.25 120.523438 -41.144531 123.734375 -40.9375 C 126.953125 -40.738281 130.066406 -40.1875 133.078125 -39.28125 C 136.085938 -38.382812 138.695312 -37.082031 140.90625 -35.375 C 143.113281 -33.664062 144.21875 -31.304688 144.21875 -28.296875 Z M 144.21875 -28.296875" transform="translate(1018.206 521.822)"/></g></g></g><g fill="#FFC107"><g><g><path d="M 144.21875 -28.296875 C 144.21875 -24.285156 142.5625 -20.773438 139.25 -17.765625 C 135.9375 -14.753906 131.71875 -12.039062 126.59375 -9.625 C 121.476562 -7.21875 115.660156 -5.210938 109.140625 -3.609375 C 102.617188 -2.003906 96.195312 -0.703125 89.875 0.296875 C 83.550781 1.304688 77.578125 2.0625 71.953125 2.5625 C 66.335938 3.0625 61.820312 3.3125 58.40625 3.3125 C 55 3.3125 50.234375 3.207031 44.109375 3 C 37.984375 2.800781 31.910156 2.050781 25.890625 0.75 C 19.867188 -0.550781 14.648438 -2.65625 10.234375 -5.5625 C 5.816406 -8.476562 3.609375 -12.546875 3.609375 -17.765625 C 3.609375 -21.773438 5.015625 -26.691406 7.828125 -32.515625 C 10.640625 -38.335938 14.253906 -44.660156 18.671875 -51.484375 C 23.085938 -58.304688 28.003906 -65.28125 33.421875 -72.40625 C 38.835938 -79.53125 44.15625 -86.40625 49.375 -93.03125 C 54.59375 -99.65625 59.507812 -105.726562 64.125 -111.25 C 68.75 -116.769531 72.363281 -121.335938 74.96875 -124.953125 C 72.15625 -124.347656 68.59375 -123.492188 64.28125 -122.390625 C 59.96875 -121.285156 55.5 -120.226562 50.875 -119.21875 C 46.257812 -118.21875 41.796875 -117.367188 37.484375 -116.671875 C 33.171875 -115.972656 29.507812 -115.625 26.5 -115.625 C 24.082031 -115.625 21.367188 -116.070312 18.359375 -116.96875 C 15.347656 -117.875 12.488281 -119.128906 9.78125 -120.734375 C 7.070312 -122.335938 4.765625 -124.242188 2.859375 -126.453125 C 0.953125 -128.660156 0 -131.171875 0 -133.984375 C 0 -137.597656 1.601562 -140.957031 4.8125 -144.0625 C 8.03125 -147.175781 12.25 -149.988281 17.46875 -152.5 C 22.6875 -155.007812 28.503906 -157.21875 34.921875 -159.125 C 41.347656 -161.03125 47.671875 -162.632812 53.890625 -163.9375 C 60.117188 -165.25 66.039062 -166.203125 71.65625 -166.796875 C 77.28125 -167.398438 81.796875 -167.703125 85.203125 -167.703125 C 89.015625 -167.703125 93.628906 -167.300781 99.046875 -166.5 C 104.472656 -165.695312 109.742188 -164.289062 114.859375 -162.28125 C 119.984375 -160.28125 124.347656 -157.570312 127.953125 -154.15625 C 131.566406 -150.738281 133.375 -146.421875 133.375 -141.203125 C 133.375 -139.597656 133.222656 -138.144531 132.921875 -136.84375 C 132.628906 -135.539062 132.28125 -134.085938 131.875 -132.484375 C 131.476562 -131.078125 129.722656 -127.914062 126.609375 -123 C 123.492188 -118.082031 119.675781 -112.257812 115.15625 -105.53125 C 110.644531 -98.800781 105.726562 -91.570312 100.40625 -83.84375 C 95.09375 -76.125 90.023438 -68.847656 85.203125 -62.015625 C 80.390625 -55.191406 76.175781 -49.171875 72.5625 -43.953125 C 68.945312 -38.734375 66.535156 -35.222656 65.328125 -33.421875 C 73.566406 -35.628906 81.945312 -37.484375 90.46875 -38.984375 C 99 -40.492188 107.484375 -41.25 115.921875 -41.25 C 117.921875 -41.25 120.523438 -41.144531 123.734375 -40.9375 C 126.953125 -40.738281 130.066406 -40.1875 133.078125 -39.28125 C 136.085938 -38.382812 138.695312 -37.082031 140.90625 -35.375 C 143.113281 -33.664062 144.21875 -31.304688 144.21875 -28.296875 Z M 144.21875 -28.296875" transform="translate(1159.413 521.822)"/></g></g></g></svg>