<svg xmlns="http://www.w3.org/2000/svg" width="375" viewBox="0 0 375 375" height="375" version="1.0"><path fill="#FFF" d="M 9.019531 166.371094 L 99.707031 211.582031 C 103.214844 213.3125 107.355469 213.191406 110.710938 211.226562 L 191.429688 164.285156 L 142.574219 207.59375 C 140.082031 209.804688 138.660156 212.957031 138.660156 216.28125 L 138.660156 321.769531 C 138.660156 332.898438 152.863281 337.582031 159.523438 328.738281 L 198.722656 276.605469 L 295.671875 331.832031 C 302.46875 335.742188 311.183594 331.816406 312.761719 324.042969 L 373.226562 22.644531 C 375.03125 13.585938 366.023438 6.199219 357.648438 9.566406 L 9.980469 145.195312 C 0.644531 148.84375 0.0429688 161.90625 9.019531 166.371094 Z M 346.339844 38.875 L 293.195312 303.746094 L 201.335938 251.414062 C 196.332031 248.550781 189.886719 249.820312 186.328125 254.519531 L 161.839844 287.085938 L 161.839844 221.488281 L 293.96875 104.394531 C 304.429688 95.132812 292.40625 78.671875 280.464844 85.691406 L 104.46875 188.039062 L 42.785156 157.296875 Z M 346.339844 38.875"/></svg>