<svg xmlns="http://www.w3.org/2000/svg" width="375" viewBox="0 0 375 375" height="375" version="1.0"><path fill="#75D1DA" d="M 293.75 331.25 L 81.25 331.25 C 67.429688 331.25 56.25 320.066406 56.25 306.25 L 56.25 31.25 C 56.25 17.429688 67.429688 6.25 81.25 6.25 L 268.75 6.25 L 318.75 56.25 L 318.75 306.25 C 318.75 320.066406 307.566406 331.25 293.75 331.25"/><path fill="#6ACDD3" d="M 106.25 331.25 L 293.75 331.25 C 307.566406 331.25 318.75 320.066406 318.75 306.25 L 318.75 118.75 L 106.25 331.25"/><path fill="#4F9BC6" d="M 93.75 37.5 L 81.25 37.5 L 81.25 25 L 93.75 25 L 93.75 37.5"/><path fill="#4F9BC6" d="M 115.625 37.5 L 103.125 37.5 L 103.125 25 L 115.625 25 L 115.625 37.5"/><path fill="#4F9BC6" d="M 137.5 37.5 L 125 37.5 L 125 25 L 137.5 25 L 137.5 37.5"/><path fill="#A9E2E7" d="M 281.25 56.25 L 318.75 56.25 L 268.75 6.25 L 268.75 43.75 C 268.75 50.660156 274.339844 56.25 281.25 56.25"/><path fill="#64BCE9" d="M 363.574219 192.675781 C 366.894531 189.355469 368.75 184.863281 368.75 180.175781 C 368.75 170.410156 360.839844 162.5 351.074219 162.5 C 346.386719 162.5 341.894531 164.355469 338.574219 167.675781 L 331.25 175 L 356.25 200 L 363.574219 192.675781"/><path fill="#E93748" d="M 331.25 175 L 231.25 275 L 256.25 300 L 356.25 200 L 331.25 175"/><path fill="#F9AC1F" d="M 225 306.25 L 256.25 300 L 231.25 275 Z M 225 306.25"/><path fill="#E2E2DE" d="M 351.832031 204.417969 L 326.832031 179.417969 L 335.667969 170.582031 L 360.667969 195.582031 L 351.832031 204.417969"/><path fill="#F9AC1F" d="M 243.75 150 C 243.75 118.359375 217.625 92.820312 185.765625 93.773438 C 155.761719 94.675781 131.152344 120.191406 131.25 150.195312 C 131.296875 165.160156 137.207031 178.710938 146.777344 188.746094 C 157.398438 199.878906 162.5 215.183594 162.5 230.589844 L 162.5 231.25 L 212.5 231.25 L 212.5 230.371094 C 212.5 214.234375 219.164062 199.121094 229.808594 187.011719 C 238.476562 177.125 243.75 164.183594 243.75 150"/><path fill="#E2E2DE" d="M 206.25 256.25 L 168.75 256.25 C 165.308594 256.25 162.5 253.441406 162.5 250 L 162.5 231.25 L 212.5 231.25 L 212.5 250 C 212.5 253.441406 209.691406 256.25 206.25 256.25"/><path fill="#C1C1BC" d="M 200 256.25 L 175 256.25 L 175 262.5 C 175 269.410156 180.589844 275 187.5 275 C 194.410156 275 200 269.410156 200 262.5 L 200 256.25"/><path fill="#FBC559" d="M 187.5 177.074219 L 181.25 168.75 L 193.75 168.75 Z M 211.839844 159.691406 C 210.789062 157.59375 208.617188 156.25 206.25 156.25 L 168.75 156.25 C 166.382812 156.25 164.207031 157.59375 163.160156 159.691406 C 162.109375 161.816406 162.328125 164.355469 163.746094 166.234375 L 181.25 189.574219 L 181.25 231.25 L 193.75 231.25 L 193.75 189.574219 L 211.253906 166.234375 C 212.671875 164.355469 212.890625 161.816406 211.839844 159.691406"/><path fill="#4F9BC6" d="M 118.75 281.25 L 87.5 281.25 C 84.058594 281.25 81.25 278.441406 81.25 275 L 81.25 243.75 L 93.75 243.75 L 93.75 268.75 L 118.75 268.75 L 118.75 281.25"/><path fill="#4F9BC6" d="M 93.75 112.5 L 81.25 112.5 L 81.25 87.5 C 81.25 84.058594 84.058594 81.25 87.5 81.25 L 112.5 81.25 L 112.5 93.75 L 93.75 93.75 L 93.75 112.5"/><path fill="#4F9BC6" d="M 293.75 118.75 L 281.25 118.75 L 281.25 93.75 L 256.25 93.75 L 256.25 81.25 L 287.5 81.25 C 290.941406 81.25 293.75 84.058594 293.75 87.5 L 293.75 118.75"/><path fill="#F9AC1F" d="M 43.75 281.25 L 93.75 331.25 L 43.75 331.25 Z M 6.25 187.5 L 6.25 368.75 L 187.5 368.75 L 6.25 187.5"/><path fill="#231F20" d="M 281.25 50 C 277.808594 50 275 47.191406 275 43.75 L 275 21.335938 L 303.660156 50 Z M 325 156.25 L 325 56.25 C 325 56.101562 324.925781 56.003906 324.925781 55.859375 C 324.878906 55.296875 324.78125 54.785156 324.609375 54.246094 C 324.535156 54.054688 324.488281 53.859375 324.390625 53.660156 C 324.097656 53.003906 323.707031 52.367188 323.167969 51.832031 L 273.167969 1.832031 C 272.632812 1.292969 271.996094 0.902344 271.3125 0.585938 C 271.140625 0.511719 270.972656 0.464844 270.800781 0.414062 C 270.238281 0.21875 269.675781 0.0976562 269.089844 0.0742188 C 268.96875 0.0742188 268.871094 0 268.75 0 L 81.25 0 C 64.015625 0 50 14.015625 50 31.25 L 50 206.25 L 62.5 206.25 L 62.5 31.25 C 62.5 20.898438 70.898438 12.5 81.25 12.5 L 262.5 12.5 L 262.5 43.75 C 262.5 54.101562 270.898438 62.5 281.25 62.5 L 312.5 62.5 L 312.5 156.25 L 325 156.25"/><path fill="#231F20" d="M 325 262.5 L 312.5 262.5 L 312.5 306.25 C 312.5 316.601562 304.101562 325 293.75 325 L 181.25 325 L 181.25 337.5 L 293.75 337.5 C 310.984375 337.5 325 323.484375 325 306.25 L 325 262.5"/><path fill="#231F20" d="M 87.5 25 L 75 25 L 75 37.5 L 87.5 37.5 L 87.5 25"/><path fill="#231F20" d="M 100 25 L 100 37.5 L 112.5 37.5 L 112.5 25 L 100 25"/><path fill="#231F20" d="M 125 25 L 125 37.5 L 137.5 37.5 L 137.5 25 L 125 25"/><path fill="#231F20" d="M 12.5 202.585938 L 172.410156 362.5 L 12.5 362.5 Z M 6.25 375 L 187.5 375 C 190.039062 375 192.308594 373.484375 193.261719 371.140625 C 194.238281 368.796875 193.699219 366.113281 191.917969 364.332031 L 10.667969 183.082031 C 8.886719 181.296875 6.175781 180.738281 3.859375 181.738281 C 1.515625 182.691406 0 184.960938 0 187.5 L 0 368.75 C 0 372.191406 2.808594 375 6.25 375"/><path fill="#231F20" d="M 50 325 L 50 296.335938 L 78.660156 325 Z M 98.167969 326.832031 L 48.167969 276.832031 C 46.363281 275.046875 43.703125 274.488281 41.359375 275.488281 C 39.015625 276.441406 37.5 278.710938 37.5 281.25 L 37.5 331.25 C 37.5 334.691406 40.308594 337.5 43.75 337.5 L 93.75 337.5 C 96.289062 337.5 98.558594 335.984375 99.511719 333.640625 C 100.488281 331.296875 99.949219 328.613281 98.167969 326.832031"/><path fill="#231F20" d="M 359.15625 188.257812 L 356.25 191.160156 L 340.085938 175 L 342.992188 172.09375 C 345.140625 169.945312 348.023438 168.75 351.074219 168.75 C 357.371094 168.75 362.5 173.875 362.5 180.175781 C 362.5 183.179688 361.277344 186.132812 359.15625 188.257812 Z M 235.082031 287.671875 L 243.578125 296.167969 L 232.957031 298.289062 Z M 240.085938 275 L 331.25 183.835938 L 347.410156 200 L 256.25 291.160156 Z M 351.074219 156.25 C 344.675781 156.25 338.671875 158.738281 334.15625 163.257812 L 226.832031 270.582031 C 225.953125 271.460938 225.367188 272.558594 225.121094 273.777344 L 218.871094 305.027344 C 218.457031 307.078125 219.089844 309.179688 220.582031 310.667969 C 221.753906 311.863281 223.363281 312.5 225 312.5 C 225.414062 312.5 225.828125 312.449219 226.21875 312.378906 L 257.46875 306.128906 C 258.691406 305.882812 259.789062 305.296875 260.667969 304.417969 L 367.992188 197.09375 C 372.507812 192.578125 375 186.570312 375 180.175781 C 375 166.992188 364.257812 156.25 351.074219 156.25"/><path fill="#231F20" d="M 206.46875 225 L 193.75 225 L 193.75 189.574219 L 211.253906 166.234375 C 212.671875 164.355469 212.890625 161.816406 211.839844 159.691406 C 210.789062 157.59375 208.617188 156.25 206.25 156.25 L 168.75 156.25 C 166.382812 156.25 164.207031 157.59375 163.160156 159.691406 C 162.109375 161.816406 162.328125 164.355469 163.746094 166.234375 L 181.25 189.574219 L 181.25 225 L 168.554688 225 C 167.40625 209.226562 161.375 194.996094 151.292969 184.421875 C 142.457031 175.144531 137.546875 162.988281 137.5 150.171875 C 137.402344 123.316406 159.128906 100.828125 185.960938 100.023438 C 199.558594 99.535156 212.523438 104.613281 222.3125 114.109375 C 232.105469 123.609375 237.5 136.351562 237.5 150 C 237.5 162.109375 233.105469 173.777344 225.097656 182.886719 C 214.257812 195.238281 207.738281 210.035156 206.46875 225 Z M 181.25 168.75 L 193.75 168.75 L 187.5 177.074219 Z M 200 250 L 168.75 250 L 168.75 237.5 L 206.25 237.5 L 206.25 250 Z M 187.5 268.75 C 184.058594 268.75 181.25 265.941406 181.25 262.5 L 193.75 262.5 C 193.75 265.941406 190.941406 268.75 187.5 268.75 Z M 250 150 C 250 132.957031 243.261719 117.015625 231.03125 105.152344 C 218.773438 93.261719 202.710938 87.035156 185.570312 87.523438 C 152.050781 88.523438 124.878906 116.648438 125 150.21875 C 125.046875 166.234375 131.175781 181.445312 142.261719 193.066406 C 151.269531 202.515625 156.25 215.84375 156.25 230.589844 L 156.25 250 C 156.25 256.882812 161.863281 262.5 168.75 262.5 C 168.75 272.851562 177.148438 281.25 187.5 281.25 C 197.851562 281.25 206.25 272.851562 206.25 262.5 C 213.132812 262.5 218.75 256.882812 218.75 250 L 218.75 230.371094 C 218.75 216.625 224.339844 202.683594 234.496094 191.136719 C 244.480469 179.761719 250 165.136719 250 150"/><path fill="#231F20" d="M 93.75 93.75 L 118.75 93.75 L 118.75 81.25 L 87.5 81.25 C 84.058594 81.25 81.25 84.058594 81.25 87.5 L 81.25 118.75 L 93.75 118.75 L 93.75 93.75"/><path fill="#231F20" d="M 293.75 118.75 L 293.75 87.5 C 293.75 84.058594 290.941406 81.25 287.5 81.25 L 256.25 81.25 L 256.25 93.75 L 281.25 93.75 L 281.25 118.75 L 293.75 118.75"/></svg>