<svg xmlns="http://www.w3.org/2000/svg" width="375" viewBox="0 0 375 375" height="375" version="1.0"><path fill="#FFCF36" d="M 375.035156 187.511719 C 375.035156 291.078125 291.082031 375.03125 187.515625 375.03125 C 83.953125 375.03125 0 291.078125 0 187.511719 C 0 83.953125 83.953125 -0.00390625 187.515625 -0.00390625 C 291.082031 -0.00390625 375.035156 83.953125 375.035156 187.511719"/><path fill="#FF4239" d="M 281.070312 274.097656 L 281.070312 294.957031 C 255.867188 316.867188 223.039062 330.023438 187.515625 330.023438 C 152.027344 330.023438 119.199219 316.867188 94 294.957031 L 94 274.097656 C 97.535156 277.910156 101.3125 281.515625 105.304688 284.875 C 115.488281 267.691406 134.355469 256.492188 155 256.492188 C 166.65625 256.492188 177.996094 260.023438 187.550781 266.535156 C 197.070312 260.023438 208.445312 256.492188 220.066406 256.492188 C 240.714844 256.492188 259.578125 267.691406 269.761719 284.875 C 273.753906 281.515625 277.535156 277.910156 281.070312 274.097656"/><path d="M 281.070312 274.097656 C 277.535156 277.910156 273.753906 281.515625 269.761719 284.875 C 265.914062 288.128906 261.855469 291.175781 257.65625 293.90625 C 237.421875 307.273438 213.238281 315.011719 187.515625 315.011719 C 161.792969 315.011719 137.644531 307.273438 117.414062 293.90625 C 113.214844 291.175781 109.15625 288.128906 105.304688 284.875 C 101.3125 281.515625 97.535156 277.910156 94 274.097656 C 78.25 257.15625 67.015625 235.878906 62.394531 212.113281 L 312.671875 212.113281 C 308.019531 235.878906 296.816406 257.15625 281.070312 274.097656 Z M 45.070312 197.097656 L 46.15625 205.53125 C 50.707031 241.300781 68.378906 272.660156 94 294.957031 C 119.199219 316.867188 152.027344 330.023438 187.515625 330.023438 C 223.039062 330.023438 255.867188 316.867188 281.070312 294.957031 C 306.6875 272.660156 324.359375 241.300781 328.914062 205.53125 L 329.960938 197.097656 L 45.070312 197.097656"/><path d="M 275.503906 298 L 261.121094 302.234375 C 260.28125 299.292969 259.089844 296.496094 257.65625 293.90625 C 250.304688 280.359375 235.882812 271.507812 220.066406 271.507812 C 209.949219 271.507812 200.117188 275.109375 192.417969 281.691406 L 187.550781 285.820312 L 182.6875 281.691406 C 174.949219 275.109375 165.117188 271.507812 155 271.507812 C 139.183594 271.507812 124.761719 280.359375 117.414062 293.90625 C 115.976562 296.496094 114.824219 299.292969 113.949219 302.234375 L 99.5625 298 C 100.929688 293.34375 102.855469 288.9375 105.304688 284.875 C 115.488281 267.691406 134.355469 256.492188 155 256.492188 C 166.65625 256.492188 177.996094 260.023438 187.550781 266.535156 C 197.070312 260.023438 208.445312 256.492188 220.066406 256.492188 C 240.714844 256.492188 259.578125 267.691406 269.761719 284.875 C 272.214844 288.9375 274.140625 293.34375 275.503906 298"/><path d="M 45.484375 82.917969 L 34.558594 82.917969 L 34.558594 71.996094 L 45.484375 71.996094 L 45.484375 82.917969"/><path d="M 56.410156 82.917969 L 45.484375 82.917969 L 45.484375 71.996094 L 56.410156 71.996094 L 56.410156 82.917969"/><path d="M 67.335938 82.917969 L 56.410156 82.917969 L 56.410156 71.996094 L 67.335938 71.996094 L 67.335938 82.917969"/><path d="M 78.257812 82.917969 L 67.335938 82.917969 L 67.335938 71.996094 L 78.257812 71.996094 L 78.257812 82.917969"/><path d="M 89.1875 82.917969 L 78.257812 82.917969 L 78.257812 71.996094 L 89.1875 71.996094 L 89.1875 82.917969"/><path d="M 100.109375 82.917969 L 89.1875 82.917969 L 89.1875 71.996094 L 100.109375 71.996094 L 100.109375 82.917969"/><path d="M 111.039062 82.917969 L 100.109375 82.917969 L 100.109375 71.996094 L 111.039062 71.996094 L 111.039062 82.917969"/><path d="M 121.964844 82.917969 L 111.039062 82.917969 L 111.039062 71.996094 L 121.964844 71.996094 L 121.964844 82.917969"/><path d="M 132.886719 82.917969 L 121.964844 82.917969 L 121.964844 71.996094 L 132.886719 71.996094 L 132.886719 82.917969"/><path d="M 143.816406 82.917969 L 132.886719 82.917969 L 132.886719 71.996094 L 143.816406 71.996094 L 143.816406 82.917969"/><path d="M 154.738281 82.917969 L 143.816406 82.917969 L 143.816406 71.996094 L 154.738281 71.996094 L 154.738281 82.917969"/><path d="M 165.664062 82.917969 L 154.738281 82.917969 L 154.738281 71.996094 L 165.664062 71.996094 L 165.664062 82.917969"/><path d="M 176.589844 82.917969 L 165.664062 82.917969 L 165.664062 71.996094 L 176.589844 71.996094 L 176.589844 82.917969"/><path d="M 187.515625 82.917969 L 176.589844 82.917969 L 176.589844 71.996094 L 187.515625 71.996094 L 187.515625 82.917969"/><path d="M 198.441406 82.917969 L 187.515625 82.917969 L 187.515625 71.996094 L 198.441406 71.996094 L 198.441406 82.917969"/><path d="M 209.367188 82.917969 L 198.441406 82.917969 L 198.441406 71.996094 L 209.367188 71.996094 L 209.367188 82.917969"/><path d="M 220.292969 82.917969 L 209.367188 82.917969 L 209.367188 71.996094 L 220.292969 71.996094 L 220.292969 82.917969"/><path d="M 231.21875 82.917969 L 220.292969 82.917969 L 220.292969 71.996094 L 231.21875 71.996094 L 231.21875 82.917969"/><path d="M 242.144531 82.917969 L 231.21875 82.917969 L 231.21875 71.996094 L 242.144531 71.996094 L 242.144531 82.917969"/><path d="M 253.070312 82.917969 L 242.144531 82.917969 L 242.144531 71.996094 L 253.070312 71.996094 L 253.070312 82.917969"/><path d="M 263.996094 82.917969 L 253.070312 82.917969 L 253.070312 71.996094 L 263.996094 71.996094 L 263.996094 82.917969"/><path d="M 274.917969 82.917969 L 263.996094 82.917969 L 263.996094 71.996094 L 274.917969 71.996094 L 274.917969 82.917969"/><path d="M 285.847656 82.917969 L 274.917969 82.917969 L 274.917969 71.996094 L 285.847656 71.996094 L 285.847656 82.917969"/><path d="M 296.773438 82.917969 L 285.847656 82.917969 L 285.847656 71.996094 L 296.773438 71.996094 L 296.773438 82.917969"/><path d="M 307.699219 82.917969 L 296.773438 82.917969 L 296.773438 71.996094 L 307.699219 71.996094 L 307.699219 82.917969"/><path d="M 318.625 82.917969 L 307.699219 82.917969 L 307.699219 71.996094 L 318.625 71.996094 L 318.625 82.917969"/><path d="M 329.546875 82.917969 L 318.625 82.917969 L 318.625 71.996094 L 329.546875 71.996094 L 329.546875 82.917969"/><path d="M 340.476562 82.917969 L 329.546875 82.917969 L 329.546875 71.996094 L 340.476562 71.996094 L 340.476562 82.917969"/><path d="M 351.398438 82.917969 L 340.476562 82.917969 L 340.476562 71.996094 L 351.398438 71.996094 L 351.398438 82.917969"/><path d="M 45.484375 93.847656 L 34.558594 93.847656 L 34.558594 82.917969 L 45.484375 82.917969 L 45.484375 93.847656"/><path d="M 56.410156 93.847656 L 45.484375 93.847656 L 45.484375 82.917969 L 56.410156 82.917969 L 56.410156 93.847656"/><path d="M 67.335938 93.847656 L 56.410156 93.847656 L 56.410156 82.917969 L 67.335938 82.917969 L 67.335938 93.847656"/><path d="M 78.257812 93.847656 L 67.335938 93.847656 L 67.335938 82.917969 L 78.257812 82.917969 L 78.257812 93.847656"/><path d="M 89.1875 93.847656 L 78.257812 93.847656 L 78.257812 82.917969 L 89.1875 82.917969 L 89.1875 93.847656"/><path d="M 100.109375 93.847656 L 89.1875 93.847656 L 89.1875 82.917969 L 100.109375 82.917969 L 100.109375 93.847656"/><path d="M 111.039062 93.847656 L 100.109375 93.847656 L 100.109375 82.917969 L 111.039062 82.917969 L 111.039062 93.847656"/><path d="M 121.964844 93.847656 L 111.039062 93.847656 L 111.039062 82.917969 L 121.964844 82.917969 L 121.964844 93.847656"/><path d="M 132.886719 93.847656 L 121.964844 93.847656 L 121.964844 82.917969 L 132.886719 82.917969 L 132.886719 93.847656"/><path d="M 143.816406 93.847656 L 132.886719 93.847656 L 132.886719 82.917969 L 143.816406 82.917969 L 143.816406 93.847656"/><path d="M 154.738281 93.847656 L 143.816406 93.847656 L 143.816406 82.917969 L 154.738281 82.917969 L 154.738281 93.847656"/><path d="M 165.664062 93.847656 L 154.738281 93.847656 L 154.738281 82.917969 L 165.664062 82.917969 L 165.664062 93.847656"/><path d="M 176.589844 93.847656 L 165.664062 93.847656 L 165.664062 82.917969 L 176.589844 82.917969 L 176.589844 93.847656"/><path d="M 187.515625 93.847656 L 176.589844 93.847656 L 176.589844 82.917969 L 187.515625 82.917969 L 187.515625 93.847656"/><path d="M 34.558594 82.917969 L 23.632812 82.917969 L 23.632812 71.996094 L 34.558594 71.996094 L 34.558594 82.917969"/><path d="M 34.558594 93.847656 L 23.632812 93.847656 L 23.632812 82.917969 L 34.558594 82.917969 L 34.558594 93.847656"/><path d="M 198.441406 93.847656 L 187.515625 93.847656 L 187.515625 82.917969 L 198.441406 82.917969 L 198.441406 93.847656"/><path d="M 209.367188 93.847656 L 198.441406 93.847656 L 198.441406 82.917969 L 209.367188 82.917969 L 209.367188 93.847656"/><path d="M 220.292969 93.847656 L 209.367188 93.847656 L 209.367188 82.917969 L 220.292969 82.917969 L 220.292969 93.847656"/><path d="M 231.21875 93.847656 L 220.292969 93.847656 L 220.292969 82.917969 L 231.21875 82.917969 L 231.21875 93.847656"/><path d="M 242.144531 93.847656 L 231.21875 93.847656 L 231.21875 82.917969 L 242.144531 82.917969 L 242.144531 93.847656"/><path d="M 253.070312 93.847656 L 242.144531 93.847656 L 242.144531 82.917969 L 253.070312 82.917969 L 253.070312 93.847656"/><path d="M 263.996094 93.847656 L 253.070312 93.847656 L 253.070312 82.917969 L 263.996094 82.917969 L 263.996094 93.847656"/><path d="M 274.917969 93.847656 L 263.996094 93.847656 L 263.996094 82.917969 L 274.917969 82.917969 L 274.917969 93.847656"/><path d="M 285.847656 93.847656 L 274.917969 93.847656 L 274.917969 82.917969 L 285.847656 82.917969 L 285.847656 93.847656"/><path d="M 296.773438 93.847656 L 285.847656 93.847656 L 285.847656 82.917969 L 296.773438 82.917969 L 296.773438 93.847656"/><path d="M 307.699219 93.847656 L 296.773438 93.847656 L 296.773438 82.917969 L 307.699219 82.917969 L 307.699219 93.847656"/><path d="M 318.625 93.847656 L 307.699219 93.847656 L 307.699219 82.917969 L 318.625 82.917969 L 318.625 93.847656"/><path d="M 329.546875 93.847656 L 318.625 93.847656 L 318.625 82.917969 L 329.546875 82.917969 L 329.546875 93.847656"/><path d="M 340.476562 93.847656 L 329.546875 93.847656 L 329.546875 82.917969 L 340.476562 82.917969 L 340.476562 93.847656"/><path d="M 351.398438 93.847656 L 340.476562 93.847656 L 340.476562 82.917969 L 351.398438 82.917969 L 351.398438 93.847656"/><path d="M 45.484375 104.769531 L 34.558594 104.769531 L 34.558594 93.847656 L 45.484375 93.847656 L 45.484375 104.769531"/><path d="M 56.410156 104.769531 L 45.484375 104.769531 L 45.484375 93.847656 L 56.410156 93.847656 L 56.410156 104.769531"/><path d="M 67.335938 104.769531 L 56.410156 104.769531 L 56.410156 93.847656 L 67.335938 93.847656 L 67.335938 104.769531"/><path d="M 78.257812 104.769531 L 67.335938 104.769531 L 67.335938 93.847656 L 78.257812 93.847656 L 78.257812 104.769531"/><path d="M 89.1875 104.769531 L 78.257812 104.769531 L 78.257812 93.847656 L 89.1875 93.847656 L 89.1875 104.769531"/><path d="M 100.109375 104.769531 L 89.1875 104.769531 L 89.1875 93.847656 L 100.109375 93.847656 L 100.109375 104.769531"/><path d="M 111.039062 104.769531 L 100.109375 104.769531 L 100.109375 93.847656 L 111.039062 93.847656 L 111.039062 104.769531"/><path d="M 121.964844 104.769531 L 111.039062 104.769531 L 111.039062 93.847656 L 121.964844 93.847656 L 121.964844 104.769531"/><path d="M 132.886719 104.769531 L 121.964844 104.769531 L 121.964844 93.847656 L 132.886719 93.847656 L 132.886719 104.769531"/><path d="M 143.816406 104.769531 L 132.886719 104.769531 L 132.886719 93.847656 L 143.816406 93.847656 L 143.816406 104.769531"/><path fill="#636363" d="M 154.738281 104.769531 L 143.816406 104.769531 L 143.816406 93.847656 L 154.738281 93.847656 L 154.738281 104.769531"/><path d="M 165.664062 104.769531 L 154.738281 104.769531 L 154.738281 93.847656 L 165.664062 93.847656 L 165.664062 104.769531"/><path fill="#636363" d="M 176.589844 104.769531 L 165.664062 104.769531 L 165.664062 93.847656 L 176.589844 93.847656 L 176.589844 104.769531"/><path d="M 187.515625 104.769531 L 176.589844 104.769531 L 176.589844 93.847656 L 187.515625 93.847656 L 187.515625 104.769531"/><path d="M 209.367188 104.769531 L 198.441406 104.769531 L 198.441406 93.847656 L 209.367188 93.847656 L 209.367188 104.769531"/><path d="M 220.292969 104.769531 L 209.367188 104.769531 L 209.367188 93.847656 L 220.292969 93.847656 L 220.292969 104.769531"/><path d="M 231.21875 104.769531 L 220.292969 104.769531 L 220.292969 93.847656 L 231.21875 93.847656 L 231.21875 104.769531"/><path d="M 242.144531 104.769531 L 231.21875 104.769531 L 231.21875 93.847656 L 242.144531 93.847656 L 242.144531 104.769531"/><path d="M 253.070312 104.769531 L 242.144531 104.769531 L 242.144531 93.847656 L 253.070312 93.847656 L 253.070312 104.769531"/><path d="M 263.996094 104.769531 L 253.070312 104.769531 L 253.070312 93.847656 L 263.996094 93.847656 L 263.996094 104.769531"/><path d="M 274.917969 104.769531 L 263.996094 104.769531 L 263.996094 93.847656 L 274.917969 93.847656 L 274.917969 104.769531"/><path d="M 285.847656 104.769531 L 274.917969 104.769531 L 274.917969 93.847656 L 285.847656 93.847656 L 285.847656 104.769531"/><path d="M 296.773438 104.769531 L 285.847656 104.769531 L 285.847656 93.847656 L 296.773438 93.847656 L 296.773438 104.769531"/><path fill="#636363" d="M 307.699219 104.769531 L 296.773438 104.769531 L 296.773438 93.847656 L 307.699219 93.847656 L 307.699219 104.769531"/><path d="M 318.625 104.769531 L 307.699219 104.769531 L 307.699219 93.847656 L 318.625 93.847656 L 318.625 104.769531"/><path fill="#636363" d="M 329.546875 104.769531 L 318.625 104.769531 L 318.625 93.847656 L 329.546875 93.847656 L 329.546875 104.769531"/><path d="M 340.476562 104.769531 L 329.546875 104.769531 L 329.546875 93.847656 L 340.476562 93.847656 L 340.476562 104.769531"/><path d="M 351.398438 104.769531 L 340.476562 104.769531 L 340.476562 93.847656 L 351.398438 93.847656 L 351.398438 104.769531"/><path d="M 56.410156 115.695312 L 45.484375 115.695312 L 45.484375 104.769531 L 56.410156 104.769531 L 56.410156 115.695312"/><path d="M 67.335938 115.695312 L 56.410156 115.695312 L 56.410156 104.769531 L 67.335938 104.769531 L 67.335938 115.695312"/><path d="M 78.257812 115.695312 L 67.335938 115.695312 L 67.335938 104.769531 L 78.257812 104.769531 L 78.257812 115.695312"/><path d="M 89.1875 115.695312 L 78.257812 115.695312 L 78.257812 104.769531 L 89.1875 104.769531 L 89.1875 115.695312"/><path d="M 100.109375 115.695312 L 89.1875 115.695312 L 89.1875 104.769531 L 100.109375 104.769531 L 100.109375 115.695312"/><path d="M 111.039062 115.695312 L 100.109375 115.695312 L 100.109375 104.769531 L 111.039062 104.769531 L 111.039062 115.695312"/><path d="M 121.964844 115.695312 L 111.039062 115.695312 L 111.039062 104.769531 L 121.964844 104.769531 L 121.964844 115.695312"/><path d="M 132.886719 115.695312 L 121.964844 115.695312 L 121.964844 104.769531 L 132.886719 104.769531 L 132.886719 115.695312"/><path fill="#636363" d="M 143.816406 115.695312 L 132.886719 115.695312 L 132.886719 104.769531 L 143.816406 104.769531 L 143.816406 115.695312"/><path d="M 154.738281 115.695312 L 143.816406 115.695312 L 143.816406 104.769531 L 154.738281 104.769531 L 154.738281 115.695312"/><path fill="#636363" d="M 165.664062 115.695312 L 154.738281 115.695312 L 154.738281 104.769531 L 165.664062 104.769531 L 165.664062 115.695312"/><path d="M 176.589844 115.695312 L 165.664062 115.695312 L 165.664062 104.769531 L 176.589844 104.769531 L 176.589844 115.695312"/><path d="M 187.515625 115.695312 L 176.589844 115.695312 L 176.589844 104.769531 L 187.515625 104.769531 L 187.515625 115.695312"/><path d="M 209.367188 115.695312 L 198.441406 115.695312 L 198.441406 104.769531 L 209.367188 104.769531 L 209.367188 115.695312"/><path d="M 220.292969 115.695312 L 209.367188 115.695312 L 209.367188 104.769531 L 220.292969 104.769531 L 220.292969 115.695312"/><path d="M 231.21875 115.695312 L 220.292969 115.695312 L 220.292969 104.769531 L 231.21875 104.769531 L 231.21875 115.695312"/><path d="M 242.144531 115.695312 L 231.21875 115.695312 L 231.21875 104.769531 L 242.144531 104.769531 L 242.144531 115.695312"/><path d="M 253.070312 115.695312 L 242.144531 115.695312 L 242.144531 104.769531 L 253.070312 104.769531 L 253.070312 115.695312"/><path d="M 263.996094 115.695312 L 253.070312 115.695312 L 253.070312 104.769531 L 263.996094 104.769531 L 263.996094 115.695312"/><path d="M 274.917969 115.695312 L 263.996094 115.695312 L 263.996094 104.769531 L 274.917969 104.769531 L 274.917969 115.695312"/><path d="M 285.847656 115.695312 L 274.917969 115.695312 L 274.917969 104.769531 L 285.847656 104.769531 L 285.847656 115.695312"/><path fill="#636363" d="M 296.773438 115.695312 L 285.847656 115.695312 L 285.847656 104.769531 L 296.773438 104.769531 L 296.773438 115.695312"/><path d="M 307.699219 115.695312 L 296.773438 115.695312 L 296.773438 104.769531 L 307.699219 104.769531 L 307.699219 115.695312"/><path fill="#636363" d="M 318.625 115.695312 L 307.699219 115.695312 L 307.699219 104.769531 L 318.625 104.769531 L 318.625 115.695312"/><path d="M 329.546875 115.695312 L 318.625 115.695312 L 318.625 104.769531 L 329.546875 104.769531 L 329.546875 115.695312"/><path d="M 340.476562 115.695312 L 329.546875 115.695312 L 329.546875 104.769531 L 340.476562 104.769531 L 340.476562 115.695312"/><path d="M 56.410156 126.621094 L 45.484375 126.621094 L 45.484375 115.695312 L 56.410156 115.695312 L 56.410156 126.621094"/><path d="M 67.335938 126.621094 L 56.410156 126.621094 L 56.410156 115.695312 L 67.335938 115.695312 L 67.335938 126.621094"/><path d="M 78.257812 126.621094 L 67.335938 126.621094 L 67.335938 115.695312 L 78.257812 115.695312 L 78.257812 126.621094"/><path d="M 89.1875 126.621094 L 78.257812 126.621094 L 78.257812 115.695312 L 89.1875 115.695312 L 89.1875 126.621094"/><path d="M 100.109375 126.621094 L 89.1875 126.621094 L 89.1875 115.695312 L 100.109375 115.695312 L 100.109375 126.621094"/><path d="M 111.039062 126.621094 L 100.109375 126.621094 L 100.109375 115.695312 L 111.039062 115.695312 L 111.039062 126.621094"/><path d="M 121.964844 126.621094 L 111.039062 126.621094 L 111.039062 115.695312 L 121.964844 115.695312 L 121.964844 126.621094"/><path fill="#636363" d="M 132.886719 126.621094 L 121.964844 126.621094 L 121.964844 115.695312 L 132.886719 115.695312 L 132.886719 126.621094"/><path d="M 143.816406 126.621094 L 132.886719 126.621094 L 132.886719 115.695312 L 143.816406 115.695312 L 143.816406 126.621094"/><path fill="#636363" d="M 154.738281 126.621094 L 143.816406 126.621094 L 143.816406 115.695312 L 154.738281 115.695312 L 154.738281 126.621094"/><path d="M 165.664062 126.621094 L 154.738281 126.621094 L 154.738281 115.695312 L 165.664062 115.695312 L 165.664062 126.621094"/><path d="M 176.589844 126.621094 L 165.664062 126.621094 L 165.664062 115.695312 L 176.589844 115.695312 L 176.589844 126.621094"/><path d="M 220.292969 126.621094 L 209.367188 126.621094 L 209.367188 115.695312 L 220.292969 115.695312 L 220.292969 126.621094"/><path d="M 231.21875 126.621094 L 220.292969 126.621094 L 220.292969 115.695312 L 231.21875 115.695312 L 231.21875 126.621094"/><path d="M 242.144531 126.621094 L 231.21875 126.621094 L 231.21875 115.695312 L 242.144531 115.695312 L 242.144531 126.621094"/><path d="M 253.070312 126.621094 L 242.144531 126.621094 L 242.144531 115.695312 L 253.070312 115.695312 L 253.070312 126.621094"/><path d="M 263.996094 126.621094 L 253.070312 126.621094 L 253.070312 115.695312 L 263.996094 115.695312 L 263.996094 126.621094"/><path d="M 274.917969 126.621094 L 263.996094 126.621094 L 263.996094 115.695312 L 274.917969 115.695312 L 274.917969 126.621094"/><path fill="#636363" d="M 285.847656 126.621094 L 274.917969 126.621094 L 274.917969 115.695312 L 285.847656 115.695312 L 285.847656 126.621094"/><path d="M 296.773438 126.621094 L 285.847656 126.621094 L 285.847656 115.695312 L 296.773438 115.695312 L 296.773438 126.621094"/><path fill="#636363" d="M 307.699219 126.621094 L 296.773438 126.621094 L 296.773438 115.695312 L 307.699219 115.695312 L 307.699219 126.621094"/><path d="M 318.625 126.621094 L 307.699219 126.621094 L 307.699219 115.695312 L 318.625 115.695312 L 318.625 126.621094"/><path d="M 329.546875 126.621094 L 318.625 126.621094 L 318.625 115.695312 L 329.546875 115.695312 L 329.546875 126.621094"/><path d="M 340.476562 126.621094 L 329.546875 126.621094 L 329.546875 115.695312 L 340.476562 115.695312 L 340.476562 126.621094"/><path d="M 67.335938 137.546875 L 56.410156 137.546875 L 56.410156 126.621094 L 67.335938 126.621094 L 67.335938 137.546875"/><path d="M 78.257812 137.546875 L 67.335938 137.546875 L 67.335938 126.621094 L 78.257812 126.621094 L 78.257812 137.546875"/><path d="M 89.1875 137.546875 L 78.257812 137.546875 L 78.257812 126.621094 L 89.1875 126.621094 L 89.1875 137.546875"/><path d="M 100.109375 137.546875 L 89.1875 137.546875 L 89.1875 126.621094 L 100.109375 126.621094 L 100.109375 137.546875"/><path d="M 111.039062 137.546875 L 100.109375 137.546875 L 100.109375 126.621094 L 111.039062 126.621094 L 111.039062 137.546875"/><path fill="#636363" d="M 121.964844 137.546875 L 111.039062 137.546875 L 111.039062 126.621094 L 121.964844 126.621094 L 121.964844 137.546875"/><path d="M 132.886719 137.546875 L 121.964844 137.546875 L 121.964844 126.621094 L 132.886719 126.621094 L 132.886719 137.546875"/><path d="M 143.816406 137.546875 L 132.886719 137.546875 L 132.886719 126.621094 L 143.816406 126.621094 L 143.816406 137.546875"/><path d="M 154.738281 137.546875 L 143.816406 137.546875 L 143.816406 126.621094 L 154.738281 126.621094 L 154.738281 137.546875"/><path d="M 165.664062 137.546875 L 154.738281 137.546875 L 154.738281 126.621094 L 165.664062 126.621094 L 165.664062 137.546875"/><path d="M 231.21875 137.546875 L 220.292969 137.546875 L 220.292969 126.621094 L 231.21875 126.621094 L 231.21875 137.546875"/><path d="M 242.144531 137.546875 L 231.21875 137.546875 L 231.21875 126.621094 L 242.144531 126.621094 L 242.144531 137.546875"/><path d="M 253.070312 137.546875 L 242.144531 137.546875 L 242.144531 126.621094 L 253.070312 126.621094 L 253.070312 137.546875"/><path d="M 263.996094 137.546875 L 253.070312 137.546875 L 253.070312 126.621094 L 263.996094 126.621094 L 263.996094 137.546875"/><path d="M 274.917969 137.546875 L 263.996094 137.546875 L 263.996094 126.621094 L 274.917969 126.621094 L 274.917969 137.546875"/><path d="M 285.847656 137.546875 L 274.917969 137.546875 L 274.917969 126.621094 L 285.847656 126.621094 L 285.847656 137.546875"/><path fill="#636363" d="M 296.773438 137.546875 L 285.847656 137.546875 L 285.847656 126.621094 L 296.773438 126.621094 L 296.773438 137.546875"/><path d="M 307.699219 137.546875 L 296.773438 137.546875 L 296.773438 126.621094 L 307.699219 126.621094 L 307.699219 137.546875"/><path d="M 318.625 137.546875 L 307.699219 137.546875 L 307.699219 126.621094 L 318.625 126.621094 L 318.625 137.546875"/><path d="M 329.546875 137.546875 L 318.625 137.546875 L 318.625 126.621094 L 329.546875 126.621094 L 329.546875 137.546875"/><path d="M 89.1875 148.472656 L 78.257812 148.472656 L 78.257812 137.546875 L 89.1875 137.546875 L 89.1875 148.472656"/><path d="M 100.109375 148.472656 L 89.1875 148.472656 L 89.1875 137.546875 L 100.109375 137.546875 L 100.109375 148.472656"/><path d="M 111.039062 148.472656 L 100.109375 148.472656 L 100.109375 137.546875 L 111.039062 137.546875 L 111.039062 148.472656"/><path d="M 121.964844 148.472656 L 111.039062 148.472656 L 111.039062 137.546875 L 121.964844 137.546875 L 121.964844 148.472656"/><path d="M 132.886719 148.472656 L 121.964844 148.472656 L 121.964844 137.546875 L 132.886719 137.546875 L 132.886719 148.472656"/><path d="M 143.816406 148.472656 L 132.886719 148.472656 L 132.886719 137.546875 L 143.816406 137.546875 L 143.816406 148.472656"/><path d="M 154.738281 148.472656 L 143.816406 148.472656 L 143.816406 137.546875 L 154.738281 137.546875 L 154.738281 148.472656"/><path d="M 242.144531 148.472656 L 231.21875 148.472656 L 231.21875 137.546875 L 242.144531 137.546875 L 242.144531 148.472656"/><path d="M 253.070312 148.472656 L 242.144531 148.472656 L 242.144531 137.546875 L 253.070312 137.546875 L 253.070312 148.472656"/><path d="M 263.996094 148.472656 L 253.070312 148.472656 L 253.070312 137.546875 L 263.996094 137.546875 L 263.996094 148.472656"/><path d="M 274.917969 148.472656 L 263.996094 148.472656 L 263.996094 137.546875 L 274.917969 137.546875 L 274.917969 148.472656"/><path d="M 285.847656 148.472656 L 274.917969 148.472656 L 274.917969 137.546875 L 285.847656 137.546875 L 285.847656 148.472656"/><path d="M 296.773438 148.472656 L 285.847656 148.472656 L 285.847656 137.546875 L 296.773438 137.546875 L 296.773438 148.472656"/><path d="M 307.699219 148.472656 L 296.773438 148.472656 L 296.773438 137.546875 L 307.699219 137.546875 L 307.699219 148.472656"/></svg>