<svg xmlns="http://www.w3.org/2000/svg" width="375" viewBox="0 0 375 375" height="375" version="1.0"><defs><clipPath id="a"><path d="M 0.3125 15.9375 L 374.671875 15.9375 L 374.671875 359.4375 L 0.3125 359.4375 Z M 0.3125 15.9375"/></clipPath><clipPath id="b"><path d="M 143 346.90625 L 156 346.90625 L 156 359.4375 L 143 359.4375 Z M 143 346.90625"/></clipPath></defs><path fill="#51AEE5" d="M 368.433594 167.21875 C 368.433594 200.949219 341.417969 228.308594 308.101562 228.308594 L 66.886719 228.308594 C 65.199219 228.308594 63.515625 228.242188 61.894531 228.121094 C 30.886719 225.558594 6.550781 199.261719 6.550781 167.21875 C 6.550781 133.488281 33.566406 106.128906 66.886719 106.128906 C 70.257812 106.128906 73.5 106.503906 76.742188 107.066406 C 82.671875 88.828125 99.644531 75.648438 119.609375 75.648438 C 122.355469 75.648438 124.972656 75.898438 127.597656 76.398438 C 130.964844 45.917969 156.484375 22.183594 187.496094 22.183594 C 209.144531 22.183594 228.109375 33.738281 238.71875 51.101562 C 243.335938 58.660156 246.394531 67.277344 247.394531 76.523438 C 249.949219 75.960938 252.632812 75.648438 255.378906 75.648438 C 274.28125 75.648438 289.820312 89.828125 292.5 108.316406 C 297.496094 106.941406 302.734375 106.128906 308.101562 106.128906 C 341.417969 106.128906 368.433594 133.488281 368.433594 167.21875"/><path fill="#F1ED4D" d="M 306.042969 203.320312 L 306.042969 353.230469 L 68.945312 353.230469 L 68.945312 178.339844 L 118.859375 178.339844 L 131.339844 203.320312 L 306.042969 203.320312"/><path fill="#F5EC74" d="M 257.996094 203.320312 L 108.253906 353.230469 L 68.945312 353.230469 L 68.945312 178.339844 L 118.859375 178.339844 L 131.339844 203.320312 L 257.996094 203.320312"/><path fill="#C2202B" d="M 262.367188 165.84375 L 212.449219 103.382812 L 162.535156 165.84375 L 193.734375 165.84375 L 193.734375 253.289062 L 231.167969 253.289062 L 231.167969 165.84375 L 262.367188 165.84375"/><path fill="#CEC420" d="M 237.410156 334.492188 L 224.929688 334.492188 L 224.929688 322 L 237.410156 322 L 237.410156 334.492188"/><path fill="#CEC420" d="M 262.367188 334.492188 L 249.886719 334.492188 L 249.886719 322 L 262.367188 322 L 262.367188 334.492188"/><path fill="#CEC420" d="M 287.324219 334.492188 L 274.84375 334.492188 L 274.84375 322 L 287.324219 322 L 287.324219 334.492188"/><path fill="#CEC420" d="M 168.773438 278.277344 L 93.902344 278.277344 L 93.902344 228.308594 L 168.773438 228.308594 L 168.773438 278.277344"/><path fill="#CEC420" d="M 175.011719 309.507812 L 125.097656 309.507812 L 125.097656 297.015625 L 175.011719 297.015625 L 175.011719 309.507812"/><path fill="#CEC420" d="M 175.011719 334.492188 L 87.664062 334.492188 L 87.664062 322 L 175.011719 322 L 175.011719 334.492188"/><path fill="#CEC420" d="M 112.621094 309.507812 L 87.664062 309.507812 L 87.664062 297.015625 L 112.621094 297.015625 L 112.621094 309.507812"/><g clip-path="url(#a)"><path fill="#100F0D" d="M 312.28125 221.847656 L 312.28125 203.320312 C 312.28125 199.871094 309.488281 197.074219 306.042969 197.074219 L 237.410156 197.074219 L 237.410156 172.089844 L 262.367188 172.089844 C 264.761719 172.089844 266.953125 170.710938 267.992188 168.550781 C 269.027344 166.386719 268.738281 163.816406 267.238281 161.941406 L 217.324219 99.476562 C 214.960938 96.515625 209.945312 96.515625 207.578125 99.476562 L 157.664062 161.941406 C 156.164062 163.816406 155.871094 166.386719 156.910156 168.550781 C 157.953125 170.710938 160.136719 172.089844 162.535156 172.089844 L 187.496094 172.089844 L 187.496094 197.074219 L 135.195312 197.074219 L 124.441406 175.542969 C 123.382812 173.425781 121.226562 172.089844 118.859375 172.089844 L 68.945312 172.089844 C 65.5 172.089844 62.707031 174.882812 62.707031 178.339844 L 62.707031 221.847656 C 34.832031 219.683594 12.789062 196.042969 12.789062 167.234375 C 12.789062 136.996094 37.046875 112.402344 66.863281 112.402344 C 69.585938 112.402344 72.46875 112.667969 75.6875 113.203125 C 78.726562 113.746094 81.683594 111.921875 82.644531 108.984375 C 87.941406 92.765625 102.804688 81.871094 119.640625 81.871094 C 121.800781 81.871094 124.039062 82.082031 126.488281 82.523438 C 128.191406 82.835938 129.9375 82.417969 131.324219 81.375 C 132.707031 80.34375 133.597656 78.78125 133.789062 77.0625 C 136.863281 49.339844 159.953125 28.429688 187.496094 28.429688 C 215.09375 28.429688 238.191406 49.386719 241.214844 77.179688 C 241.410156 78.933594 242.335938 80.535156 243.773438 81.566406 C 245.203125 82.597656 247.019531 82.960938 248.742188 82.605469 C 250.992188 82.121094 253.214844 81.871094 255.347656 81.871094 C 270.769531 81.871094 284.085938 93.617188 286.320312 109.195312 C 286.574219 110.964844 287.574219 112.539062 289.070312 113.527344 C 290.5625 114.515625 292.394531 114.800781 294.128906 114.332031 C 298.851562 113.050781 303.554688 112.402344 308.121094 112.402344 C 337.9375 112.402344 362.195312 136.996094 362.195312 167.234375 C 362.195312 196.042969 340.15625 219.683594 312.28125 221.847656 Z M 224.929688 165.84375 L 224.929688 247.042969 L 199.972656 247.042969 L 199.972656 165.84375 C 199.972656 162.394531 197.179688 159.597656 193.734375 159.597656 L 175.519531 159.597656 L 212.449219 113.378906 L 249.386719 159.597656 L 231.167969 159.597656 C 227.722656 159.597656 224.929688 162.394531 224.929688 165.84375 Z M 308.121094 99.910156 C 304.53125 99.910156 300.882812 100.226562 297.222656 100.863281 C 291.414062 81.667969 273.1875 68.070312 252.628906 69.46875 C 246.296875 38.535156 219.332031 15.933594 187.496094 15.933594 C 155.683594 15.933594 128.703125 38.535156 122.367188 69.457031 C 100.613281 68.15625 81.222656 80.753906 72.65625 100.203125 C 70.660156 100.011719 68.742188 99.910156 66.863281 99.910156 C 30.167969 99.910156 0.3125 130.113281 0.3125 167.234375 C 0.3125 202.933594 27.949219 232.148438 62.707031 234.339844 L 62.707031 353.230469 C 62.707031 356.679688 65.5 359.476562 68.945312 359.476562 L 130.734375 359.476562 L 130.734375 346.984375 L 75.183594 346.984375 L 75.183594 184.585938 L 115 184.585938 L 125.757812 206.117188 C 126.816406 208.230469 128.972656 209.566406 131.339844 209.566406 L 187.496094 209.566406 L 187.496094 253.289062 C 187.496094 256.742188 190.289062 259.539062 193.734375 259.539062 L 231.167969 259.539062 C 234.613281 259.539062 237.410156 256.742188 237.410156 253.289062 L 237.410156 209.566406 L 299.804688 209.566406 L 299.804688 222.0625 L 299.601562 222.0625 L 299.601562 234.554688 L 299.804688 234.554688 L 299.804688 346.984375 L 168.371094 346.984375 L 168.371094 359.476562 L 306.042969 359.476562 C 309.488281 359.476562 312.28125 356.679688 312.28125 353.230469 L 312.28125 234.339844 C 347.035156 232.148438 374.675781 202.933594 374.675781 167.234375 C 374.675781 130.113281 344.816406 99.910156 308.121094 99.910156"/></g><g clip-path="url(#b)"><path fill="#100F0D" d="M 155.894531 359.476562 L 155.894531 346.984375 L 143.214844 346.984375 L 143.214844 359.476562 L 155.894531 359.476562"/></g><path fill="#100F0D" d="M 224.929688 322 L 224.929688 334.492188 L 237.410156 334.492188 L 237.410156 322 L 224.929688 322"/><path fill="#100F0D" d="M 249.886719 322 L 249.886719 334.492188 L 262.367188 334.492188 L 262.367188 322 L 249.886719 322"/><path fill="#100F0D" d="M 274.84375 322 L 274.84375 334.492188 L 287.324219 334.492188 L 287.324219 322 L 274.84375 322"/><path fill="#100F0D" d="M 162.535156 272.03125 L 100.140625 272.03125 L 100.140625 234.554688 L 162.535156 234.554688 Z M 175.011719 228.308594 C 175.011719 224.851562 172.222656 222.0625 168.773438 222.0625 L 93.902344 222.0625 C 90.457031 222.0625 87.664062 224.851562 87.664062 228.308594 L 87.664062 278.277344 C 87.664062 281.726562 90.457031 284.523438 93.902344 284.523438 L 168.773438 284.523438 C 172.222656 284.523438 175.011719 281.726562 175.011719 278.277344 L 175.011719 228.308594"/><path fill="#100F0D" d="M 125.097656 309.507812 L 175.011719 309.507812 L 175.011719 297.015625 L 125.097656 297.015625 L 125.097656 309.507812"/><path fill="#100F0D" d="M 87.664062 334.492188 L 175.011719 334.492188 L 175.011719 322 L 87.664062 322 L 87.664062 334.492188"/><path fill="#100F0D" d="M 87.664062 309.507812 L 112.621094 309.507812 L 112.621094 297.015625 L 87.664062 297.015625 L 87.664062 309.507812"/></svg>