<svg xmlns="http://www.w3.org/2000/svg" width="375" viewBox="0 0 375 375" height="375" version="1.0"><defs><clipPath id="a"><path d="M 50 0 L 325.171875 0 L 325.171875 375 L 50 375 Z M 50 0"/></clipPath></defs><path fill="#D6E4E8" d="M 318.839844 368.75 L 56.253906 368.75 L 56.253906 6.25 L 281.328125 6.25 L 318.839844 43.75 Z M 318.839844 368.75"/><path fill="#BACED3" d="M 281.328125 6.25 L 281.328125 43.75 L 318.839844 43.75 Z M 281.328125 6.25"/><path fill="#62B5E8" d="M 100.015625 187.5 L 100.015625 87.5 L 187.546875 43.75 L 275.078125 87.5 L 275.078125 187.5 L 187.546875 231.25 Z M 100.015625 187.5"/><g clip-path="url(#a)"><path d="M 323.261719 39.332031 L 285.75 1.832031 C 285.164062 1.246094 284.484375 0.792969 283.71875 0.476562 C 282.953125 0.160156 282.15625 0 281.328125 0 L 56.253906 0 C 55.839844 0 55.433594 0.0390625 55.03125 0.121094 C 54.628906 0.199219 54.238281 0.320312 53.859375 0.476562 C 53.480469 0.632812 53.121094 0.824219 52.777344 1.054688 C 52.4375 1.28125 52.121094 1.539062 51.832031 1.832031 C 51.539062 2.121094 51.28125 2.4375 51.054688 2.777344 C 50.824219 3.117188 50.632812 3.480469 50.476562 3.859375 C 50.320312 4.238281 50.199219 4.628906 50.121094 5.03125 C 50.039062 5.433594 50 5.839844 50 6.25 L 50 368.75 C 50 369.160156 50.039062 369.566406 50.121094 369.96875 C 50.199219 370.371094 50.320312 370.761719 50.476562 371.140625 C 50.632812 371.519531 50.824219 371.882812 51.054688 372.222656 C 51.28125 372.5625 51.539062 372.878906 51.832031 373.167969 C 52.121094 373.460938 52.4375 373.71875 52.777344 373.945312 C 53.121094 374.175781 53.480469 374.367188 53.859375 374.523438 C 54.238281 374.679688 54.628906 374.800781 55.03125 374.878906 C 55.433594 374.960938 55.839844 375 56.253906 375 L 318.839844 375 C 319.253906 375 319.660156 374.960938 320.0625 374.878906 C 320.464844 374.800781 320.855469 374.679688 321.234375 374.523438 C 321.613281 374.367188 321.972656 374.175781 322.316406 373.945312 C 322.65625 373.71875 322.972656 373.460938 323.261719 373.167969 C 323.550781 372.878906 323.8125 372.5625 324.039062 372.222656 C 324.269531 371.882812 324.460938 371.519531 324.617188 371.140625 C 324.773438 370.761719 324.894531 370.371094 324.972656 369.96875 C 325.054688 369.566406 325.09375 369.160156 325.09375 368.75 L 325.09375 43.75 C 325.09375 42.921875 324.933594 42.125 324.617188 41.359375 C 324.300781 40.59375 323.847656 39.917969 323.261719 39.332031 Z M 287.582031 21.335938 L 303.75 37.5 L 287.582031 37.5 Z M 62.503906 362.5 L 62.503906 12.5 L 275.078125 12.5 L 275.078125 43.75 C 275.078125 44.160156 275.117188 44.566406 275.195312 44.96875 C 275.277344 45.371094 275.394531 45.761719 275.550781 46.140625 C 275.710938 46.519531 275.902344 46.882812 276.128906 47.222656 C 276.359375 47.5625 276.617188 47.878906 276.90625 48.167969 C 277.199219 48.460938 277.515625 48.71875 277.855469 48.945312 C 278.195312 49.175781 278.558594 49.367188 278.9375 49.523438 C 279.316406 49.679688 279.707031 49.800781 280.109375 49.878906 C 280.511719 49.960938 280.917969 50 281.328125 50 L 312.589844 50 L 312.589844 362.5 Z M 62.503906 362.5"/></g><path d="M 277.871094 81.90625 L 190.339844 38.15625 C 189.460938 37.71875 188.53125 37.496094 187.546875 37.496094 C 186.5625 37.496094 185.632812 37.71875 184.753906 38.15625 L 97.222656 81.90625 C 96.703125 82.164062 96.226562 82.492188 95.800781 82.882812 C 95.371094 83.273438 95.003906 83.71875 94.699219 84.210938 C 94.394531 84.707031 94.160156 85.230469 94.003906 85.789062 C 93.84375 86.347656 93.765625 86.917969 93.765625 87.5 L 93.765625 187.5 C 93.761719 188.082031 93.839844 188.65625 93.996094 189.21875 C 94.152344 189.78125 94.382812 190.308594 94.691406 190.804688 C 94.996094 191.304688 95.363281 191.75 95.792969 192.144531 C 96.222656 192.535156 96.699219 192.863281 97.222656 193.125 L 184.753906 236.875 C 185.632812 237.3125 186.5625 237.535156 187.546875 237.535156 C 188.53125 237.535156 189.460938 237.3125 190.339844 236.875 L 277.871094 193.125 C 278.394531 192.863281 278.871094 192.535156 279.300781 192.144531 C 279.730469 191.75 280.097656 191.304688 280.402344 190.804688 C 280.710938 190.308594 280.941406 189.78125 281.097656 189.21875 C 281.253906 188.65625 281.332031 188.082031 281.328125 187.5 L 281.328125 87.5 C 281.328125 86.917969 281.25 86.347656 281.089844 85.789062 C 280.933594 85.230469 280.699219 84.707031 280.394531 84.210938 C 280.089844 83.71875 279.722656 83.273438 279.292969 82.882812 C 278.863281 82.492188 278.390625 82.164062 277.871094 81.90625 Z M 268.824219 183.636719 L 187.546875 224.261719 L 106.269531 183.636719 L 106.269531 91.363281 L 187.546875 50.738281 L 268.824219 91.363281 Z M 268.824219 183.636719"/><path d="M 143.78125 136.023438 L 130.652344 109.707031 C 130.34375 109.066406 129.9375 108.496094 129.433594 107.996094 C 128.925781 107.496094 128.355469 107.09375 127.714844 106.785156 C 127.070312 106.480469 126.398438 106.289062 125.691406 106.214844 C 124.984375 106.140625 124.285156 106.183594 123.59375 106.347656 C 122.902344 106.507812 122.257812 106.78125 121.65625 107.164062 C 121.058594 107.546875 120.539062 108.015625 120.101562 108.578125 C 119.664062 109.136719 119.332031 109.753906 119.101562 110.425781 C 118.875 111.097656 118.765625 111.789062 118.773438 112.5 L 118.773438 168.75 L 131.277344 168.75 L 131.277344 138.976562 L 144.4375 165.292969 C 144.699219 165.8125 145.023438 166.289062 145.414062 166.714844 C 145.808594 167.144531 146.25 167.511719 146.746094 167.816406 C 147.238281 168.121094 147.765625 168.355469 148.324219 168.511719 C 148.882812 168.671875 149.453125 168.75 150.035156 168.75 C 150.519531 168.75 151 168.695312 151.472656 168.585938 C 152.15625 168.425781 152.796875 168.15625 153.390625 167.777344 C 153.984375 167.398438 154.5 166.933594 154.9375 166.382812 C 155.375 165.828125 155.710938 165.21875 155.941406 164.554688 C 156.171875 163.890625 156.285156 163.203125 156.285156 162.5 L 156.285156 106.25 L 143.78125 106.25 Z M 143.78125 136.023438"/><path d="M 168.789062 112.5 L 168.789062 168.75 L 181.292969 168.75 L 181.292969 143.75 L 200.050781 143.75 L 200.050781 131.25 L 181.292969 131.25 L 181.292969 118.75 L 206.304688 118.75 L 206.304688 106.25 L 175.042969 106.25 C 174.632812 106.25 174.226562 106.289062 173.824219 106.371094 C 173.421875 106.449219 173.027344 106.570312 172.648438 106.726562 C 172.269531 106.882812 171.910156 107.074219 171.570312 107.304688 C 171.226562 107.53125 170.910156 107.789062 170.621094 108.082031 C 170.332031 108.371094 170.070312 108.6875 169.84375 109.027344 C 169.617188 109.367188 169.421875 109.730469 169.265625 110.109375 C 169.109375 110.488281 168.992188 110.878906 168.910156 111.28125 C 168.832031 111.683594 168.789062 112.089844 168.789062 112.5 Z M 168.789062 112.5"/><path d="M 231.3125 168.75 L 243.816406 168.75 L 243.816406 118.75 L 256.320312 118.75 L 256.320312 106.25 L 218.808594 106.25 L 218.808594 118.75 L 231.3125 118.75 Z M 231.3125 168.75"/><path d="M 236.402344 240.117188 L 226.222656 247.382812 L 254.886719 287.5 L 226.222656 327.617188 L 236.402344 334.882812 L 267.660156 291.132812 C 268.039062 290.601562 268.328125 290.027344 268.527344 289.40625 C 268.726562 288.785156 268.824219 288.152344 268.824219 287.5 C 268.824219 286.847656 268.726562 286.214844 268.527344 285.59375 C 268.328125 284.972656 268.039062 284.398438 267.660156 283.867188 Z M 236.402344 240.117188"/><path d="M 138.691406 240.117188 L 107.433594 283.867188 C 107.054688 284.398438 106.765625 284.972656 106.566406 285.59375 C 106.367188 286.214844 106.269531 286.847656 106.269531 287.5 C 106.269531 288.152344 106.367188 288.785156 106.566406 289.40625 C 106.765625 290.027344 107.054688 290.601562 107.433594 291.132812 L 138.691406 334.882812 L 148.871094 327.617188 L 120.207031 287.5 L 148.871094 247.382812 Z M 138.691406 240.117188"/><path d="M 163.054688 328.796875 L 200.546875 241.285156 L 212.035156 246.203125 L 174.542969 333.714844 Z M 163.054688 328.796875"/></svg>