<svg xmlns="http://www.w3.org/2000/svg" width="375" viewBox="0 0 375 375" height="375" version="1.0"><defs><clipPath id="a"><path d="M 48.28125 0 L 326.53125 0 L 326.53125 375 L 48.28125 375 Z M 48.28125 0"/></clipPath></defs><path fill="#969FAA" d="M 272.027344 6.046875 C 285.390625 6.046875 296.203125 16.871094 296.203125 30.242188 L 296.203125 54.433594 L 78.609375 54.433594 L 78.609375 30.242188 C 78.609375 16.871094 89.421875 6.046875 102.785156 6.046875 L 272.027344 6.046875"/><path fill="#969FAA" d="M 296.203125 296.371094 L 296.203125 344.757812 C 296.203125 358.128906 285.390625 368.953125 272.027344 368.953125 L 102.785156 368.953125 C 89.421875 368.953125 78.609375 358.128906 78.609375 344.757812 L 78.609375 296.371094 L 296.203125 296.371094"/><path fill="#69D6F4" d="M 296.203125 66.53125 L 296.203125 296.371094 L 78.609375 296.371094 L 78.609375 54.433594 L 296.203125 54.433594 L 296.203125 66.53125"/><path fill="#CCD1D9" d="M 320.382812 139.113281 L 320.382812 151.210938 C 320.382812 157.847656 314.949219 163.304688 308.292969 163.304688 L 296.203125 163.304688 L 296.203125 127.015625 L 308.292969 127.015625 C 314.949219 127.015625 320.382812 132.472656 320.382812 139.113281"/><path fill="#CCD1D9" d="M 320.382812 78.628906 L 320.382812 90.726562 C 320.382812 97.363281 314.949219 102.824219 308.292969 102.824219 L 296.203125 102.824219 L 296.203125 66.53125 L 308.292969 66.53125 C 314.949219 66.53125 320.382812 71.988281 320.382812 78.628906"/><path fill="#CCD1D9" d="M 78.609375 66.53125 L 78.609375 114.917969 L 66.519531 114.917969 C 59.863281 114.917969 54.429688 109.460938 54.429688 102.824219 L 54.429688 78.628906 C 54.429688 71.988281 59.863281 66.53125 66.519531 66.53125 L 78.609375 66.53125"/><path fill="#E6E9ED" d="M 217.628906 326.613281 C 217.628906 331.644531 215.574219 336.179688 212.316406 339.441406 C 209.058594 342.703125 204.523438 344.757812 199.496094 344.757812 L 175.316406 344.757812 C 165.28125 344.757812 157.183594 336.652344 157.183594 326.613281 C 157.183594 323.28125 159.898438 320.566406 163.230469 320.566406 L 211.582031 320.566406 C 214.914062 320.566406 217.628906 323.28125 217.628906 326.613281"/><path fill="#E6E9ED" d="M 187.40625 90.726562 C 234.132812 90.726562 272.027344 128.644531 272.027344 175.402344 C 272.027344 222.160156 234.132812 260.082031 187.40625 260.082031 C 140.679688 260.082031 102.785156 222.160156 102.785156 175.402344 C 102.785156 128.644531 140.679688 90.726562 187.40625 90.726562"/><path fill="#FFEAA7" d="M 235.761719 199.597656 L 235.761719 211.695312 L 199.140625 200.683594 L 194.960938 177.765625 C 193.992188 172.308594 191.324219 167.253906 187.40625 163.304688 C 183.488281 167.253906 180.820312 172.308594 179.851562 177.765625 L 175.929688 199.40625 L 139.050781 211.695312 L 139.050781 199.597656 L 178.648438 120.304688 C 180.347656 117.023438 183.722656 114.917969 187.40625 114.917969 C 191.089844 114.917969 194.464844 117.023438 196.164062 120.304688 L 235.761719 199.597656"/><path fill="#FCD770" d="M 199.140625 200.683594 L 205.539062 235.886719 L 169.273438 235.886719 L 175.929688 199.40625 L 179.851562 177.765625 C 180.820312 172.308594 183.488281 167.253906 187.40625 163.304688 C 191.324219 167.253906 193.992188 172.308594 194.960938 177.765625 L 199.140625 200.683594"/><path d="M 199.496094 338.710938 L 175.316406 338.710938 C 168.660156 338.710938 163.230469 333.277344 163.230469 326.613281 L 211.582031 326.613281 C 211.582031 333.277344 206.152344 338.710938 199.496094 338.710938 Z M 211.582031 314.515625 L 163.230469 314.515625 C 156.570312 314.515625 151.140625 319.949219 151.140625 326.613281 C 151.140625 339.960938 161.976562 350.804688 175.316406 350.804688 L 199.496094 350.804688 C 212.835938 350.804688 223.671875 339.960938 223.671875 326.613281 C 223.671875 319.949219 218.242188 314.515625 211.582031 314.515625"/><path d="M 272.027344 36.289062 C 275.355469 36.289062 278.070312 33.574219 278.070312 30.242188 C 278.070312 26.910156 275.355469 24.195312 272.027344 24.195312 C 268.699219 24.195312 265.980469 26.910156 265.980469 30.242188 C 265.980469 33.574219 268.699219 36.289062 272.027344 36.289062"/><path d="M 247.847656 36.289062 C 251.179688 36.289062 253.894531 33.574219 253.894531 30.242188 C 253.894531 26.910156 251.179688 24.195312 247.847656 24.195312 C 244.519531 24.195312 241.804688 26.910156 241.804688 30.242188 C 241.804688 33.574219 244.519531 36.289062 247.847656 36.289062"/><path d="M 217.628906 24.195312 L 157.183594 24.195312 L 157.183594 36.289062 L 217.628906 36.289062 L 217.628906 24.195312"/><path d="M 187.40625 96.773438 C 230.730469 96.773438 265.980469 132.046875 265.980469 175.402344 C 265.980469 218.757812 230.730469 254.03125 187.40625 254.03125 C 144.082031 254.03125 108.832031 218.757812 108.832031 175.402344 C 108.832031 132.046875 144.082031 96.773438 187.40625 96.773438 Z M 187.40625 266.128906 C 237.390625 266.128906 278.070312 225.445312 278.070312 175.402344 C 278.070312 125.363281 237.390625 84.675781 187.40625 84.675781 C 137.421875 84.675781 96.742188 125.363281 96.742188 175.402344 C 96.742188 225.445312 137.421875 266.128906 187.40625 266.128906"/><path d="M 145.097656 203.304688 L 145.097656 201.015625 L 184.078125 123.046875 C 185.328125 120.472656 189.484375 120.472656 190.734375 123.046875 L 229.714844 201.015625 L 229.714844 203.566406 L 204.429688 195.980469 L 200.933594 176.703125 C 199.707031 169.96875 196.519531 163.851562 191.679688 159.03125 L 187.40625 154.753906 L 183.132812 159.03125 C 178.292969 163.851562 175.105469 169.96875 173.878906 176.703125 L 170.59375 194.800781 Z M 176.523438 229.839844 L 185.777344 178.851562 C 186.109375 177.058594 186.652344 175.332031 187.40625 173.703125 C 188.160156 175.332031 188.703125 177.058594 189.035156 178.851562 L 198.289062 229.839844 Z M 162.023438 241.933594 L 212.789062 241.933594 L 206.863281 209.332031 L 241.804688 219.820312 L 241.804688 198.179688 L 201.574219 117.636719 C 198.855469 112.226562 193.425781 108.871094 187.40625 108.871094 C 181.386719 108.871094 175.957031 112.226562 173.238281 117.636719 L 133.007812 198.179688 L 133.007812 220.082031 L 168.140625 208.363281 L 162.023438 241.933594"/><g clip-path="url(#a)"><path d="M 308.292969 133.066406 C 311.621094 133.066406 314.335938 135.78125 314.335938 139.113281 L 314.335938 151.210938 C 314.335938 154.539062 311.621094 157.257812 308.292969 157.257812 L 302.25 157.257812 L 302.25 133.066406 Z M 272.027344 362.902344 L 102.785156 362.902344 C 92.773438 362.902344 84.652344 354.777344 84.652344 344.757812 L 84.652344 302.417969 L 290.160156 302.417969 L 290.160156 344.757812 C 290.160156 354.777344 282.039062 362.902344 272.027344 362.902344 Z M 66.519531 108.871094 C 63.191406 108.871094 60.476562 106.152344 60.476562 102.824219 L 60.476562 78.628906 C 60.476562 75.296875 63.191406 72.582031 66.519531 72.582031 L 72.5625 72.582031 L 72.5625 108.871094 Z M 290.160156 60.484375 L 290.160156 290.324219 L 84.652344 290.324219 L 84.652344 60.484375 Z M 102.785156 12.097656 L 272.027344 12.097656 C 282.039062 12.097656 290.160156 20.222656 290.160156 30.242188 L 290.160156 48.386719 L 84.652344 48.386719 L 84.652344 30.242188 C 84.652344 20.222656 92.773438 12.097656 102.785156 12.097656 Z M 308.292969 72.582031 C 311.621094 72.582031 314.335938 75.296875 314.335938 78.628906 L 314.335938 90.726562 C 314.335938 94.058594 311.621094 96.773438 308.292969 96.773438 L 302.25 96.773438 L 302.25 72.582031 Z M 308.292969 108.871094 C 318.304688 108.871094 326.425781 100.742188 326.425781 90.726562 L 326.425781 78.628906 C 326.425781 68.613281 318.304688 60.484375 308.292969 60.484375 L 302.25 60.484375 L 302.25 30.242188 C 302.25 13.5625 288.695312 0 272.027344 0 L 102.785156 0 C 86.117188 0 72.5625 13.5625 72.5625 30.242188 L 72.5625 60.484375 L 66.519531 60.484375 C 56.507812 60.484375 48.386719 68.613281 48.386719 78.628906 L 48.386719 102.824219 C 48.386719 112.839844 56.507812 120.96875 66.519531 120.96875 L 72.5625 120.96875 L 72.5625 344.757812 C 72.5625 361.4375 86.117188 375 102.785156 375 L 272.027344 375 C 288.695312 375 302.25 361.4375 302.25 344.757812 L 302.25 169.355469 L 308.292969 169.355469 C 318.304688 169.355469 326.425781 161.226562 326.425781 151.210938 L 326.425781 139.113281 C 326.425781 129.09375 318.304688 120.96875 308.292969 120.96875 L 302.25 120.96875 L 302.25 108.871094 L 308.292969 108.871094"/></g></svg>