<svg xmlns="http://www.w3.org/2000/svg" width="1440" viewBox="0 0 1440 810" height="810" version="1.0"><path fill="#198754" d="M 795.195312 1.921875 C 810.21875 0.234375 825.351562 0.929688 840.417969 -0.0820312 C 857.121094 0.0546875 873.699219 2.460938 890.40625 2.882812 C 890.976562 2.203125 892.148438 0.839844 892.742188 0.15625 C 895.839844 2.515625 899.292969 4.550781 903.371094 3.441406 C 907.664062 3.824219 911.953125 4.191406 916.246094 4.761719 C 916.9375 4.339844 918.300781 3.542969 918.996094 3.140625 C 929.492188 5.164062 940.457031 4.988281 950.519531 8.984375 C 963.230469 9.3125 975.46875 13.113281 987.582031 16.65625 C 993.027344 14.855469 998.203125 18.019531 1003.382812 19.339844 C 1011.277344 21.59375 1019.074219 24.242188 1026.8125 27.050781 C 1047.578125 32.402344 1067.628906 40.214844 1086.804688 49.808594 C 1087.464844 49.28125 1088.792969 48.234375 1089.453125 47.710938 C 1091.390625 50.15625 1093.097656 53.453125 1096.832031 52.925781 C 1102.375 52.390625 1106.003906 56.589844 1109.261719 60.371094 C 1110.398438 59.957031 1111.5625 59.535156 1112.746094 59.132812 C 1116.621094 62.484375 1121.816406 64.015625 1125.164062 68.007812 C 1133.234375 71.773438 1140.246094 77.910156 1149.136719 79.710938 C 1157.796875 81.734375 1164.691406 87.734375 1171.820312 92.699219 C 1184.386719 100.847656 1194.886719 111.65625 1206.601562 120.914062 C 1211.050781 128.746094 1220.011719 132.457031 1223.703125 140.777344 C 1224.484375 140.953125 1226.058594 141.28125 1226.84375 141.457031 C 1228.148438 149.882812 1236.117188 153.75 1241.941406 158.824219 C 1248.777344 162.960938 1251.476562 170.964844 1253.742188 178.175781 C 1257.421875 184.144531 1261.097656 190.40625 1266.976562 194.503906 C 1269.90625 200.722656 1274.320312 206.273438 1275.78125 213.128906 C 1278.296875 225.019531 1284.132812 235.808594 1289.75 246.484375 C 1289.851562 252.710938 1292.9375 258.199219 1294.859375 263.976562 C 1295.675781 268.539062 1295.832031 273.265625 1297.398438 277.695312 C 1298.101562 287.027344 1299.410156 296.316406 1299.109375 305.703125 C 1300.402344 306.609375 1301.691406 307.527344 1302.984375 308.457031 C 1302.070312 307.949219 1300.246094 306.902344 1299.320312 306.382812 C 1297.753906 319.386719 1295.765625 332.464844 1291.175781 344.792969 C 1293.429688 345.476562 1295.730469 346.226562 1297.890625 347.238281 C 1296.25 346.972656 1292.972656 346.4375 1291.316406 346.15625 C 1287.84375 354.003906 1285.230469 362.285156 1284.621094 370.902344 C 1281.414062 373.582031 1280.242188 377.679688 1278.621094 381.378906 C 1279.125 381.816406 1280.140625 382.6875 1280.644531 383.125 C 1277.109375 385.351562 1275.640625 389.273438 1274.332031 393.015625 C 1271.582031 400.929688 1267.5 408.273438 1263.734375 415.714844 C 1266.417969 414.421875 1269.140625 413.167969 1271.914062 411.984375 C 1270.363281 413.324219 1268.789062 414.613281 1267.203125 415.867188 C 1266.226562 416.273438 1264.308594 417.09375 1263.332031 417.507812 C 1256.480469 428.929688 1250.1875 440.667969 1242.914062 451.824219 C 1233.714844 467.714844 1221.230469 481.257812 1209.496094 495.261719 C 1192.273438 514.164062 1173.40625 531.691406 1152.453125 546.390625 C 1134.035156 561.492188 1112.835938 572.546875 1093.378906 586.148438 C 1081.59375 593.125 1070.78125 601.738281 1058.214844 607.371094 C 1046.371094 612.671875 1035.441406 619.714844 1023.433594 624.578125 C 1012.761719 630.300781 1002.191406 636.335938 990.722656 640.375 C 976.09375 647.113281 961.65625 654.261719 947.273438 661.476562 C 919.1875 673.199219 891.132812 685.125 862.320312 695.03125 C 855.480469 697.804688 848.507812 700.226562 841.320312 701.882812 C 828.300781 704.5 816.949219 711.945312 804.226562 715.519531 C 796.257812 718.238281 787.851562 719.375 780.007812 722.441406 C 775.335938 724.285156 769.875 724.550781 766.230469 728.40625 C 750.335938 732.464844 734.609375 737.207031 718.5625 740.734375 C 705.386719 745.164062 690.980469 745.410156 678.382812 751.558594 C 674.105469 753.167969 669.398438 752.957031 665.074219 754.367188 C 652.625 758.207031 639.433594 758.097656 626.828125 761.101562 C 621.316406 762.457031 615.597656 762.847656 610.019531 761.695312 C 609.039062 762.097656 607.089844 762.875 606.109375 763.28125 C 605.113281 763.25 603.167969 763.171875 602.171875 763.140625 C 597.378906 768.5625 589.859375 767.585938 583.375 768.199219 C 571.503906 768.59375 559.804688 770.71875 547.914062 770.71875 C 527.027344 774.683594 505.621094 770.605469 484.65625 773.792969 C 483.859375 773.65625 482.238281 773.375 481.4375 773.234375 C 468.964844 773.589844 456.679688 770.339844 444.175781 771.15625 C 441.4375 772.070312 438.542969 772.070312 435.757812 771.457031 C 422.683594 769.03125 409.292969 769.03125 396.195312 766.734375 C 386.207031 765.109375 376.144531 764.097656 366.210938 762.335938 C 340.039062 755.59375 313.277344 750.707031 288.046875 740.714844 C 263.867188 732.8125 241.359375 720.484375 220.4375 706.175781 C 213.847656 699.792969 205.058594 696.148438 199.21875 688.941406 C 194.769531 683.472656 188.027344 680.523438 183.804688 674.867188 C 177.320312 666.730469 169.511719 659.609375 163.945312 650.734375 C 154.757812 636.71875 146.199219 621.828125 142.363281 605.363281 C 137.9375 585.5 137.078125 564.808594 139.800781 544.644531 C 140.496094 527.507812 144.488281 510.730469 148.253906 494.078125 C 148.933594 482.941406 155.472656 472.914062 154.96875 461.640625 C 158.019531 454.304688 159.8125 446.546875 161.910156 438.910156 C 166.996094 431.65625 166.234375 422.222656 170.660156 414.6875 C 170.59375 414.175781 170.4375 413.191406 170.359375 412.679688 C 178.519531 388.074219 187.484375 363.402344 202.023438 341.730469 C 207.21875 332.0625 213.34375 322.929688 218.585938 313.304688 C 220.507812 309.382812 224.238281 306.976562 227.203125 303.960938 C 231.714844 298.011719 234.386719 290.828125 239.597656 285.371094 C 250.269531 271.644531 262.351562 259.140625 273.851562 246.136719 C 277.222656 234.769531 286.492188 226.273438 295.230469 218.796875 C 295.53125 217.835938 296.082031 215.898438 296.363281 214.917969 C 297.109375 214.625 298.59375 214.027344 299.34375 213.753906 C 305.390625 207.976562 313.625 205.050781 318.890625 198.386719 C 325.238281 193.421875 332.785156 190.125 338.660156 184.511719 C 344.207031 179.453125 349.925781 174.519531 356.742188 171.242188 C 365.582031 166.917969 373.117188 160.480469 381.65625 155.652344 C 388.09375 151.972656 396.296875 151.796875 401.617188 146.183594 C 405.730469 141.757812 410.582031 138.023438 416.648438 136.785156 C 420.414062 133.542969 424.316406 130.15625 429.164062 128.726562 C 448.152344 124.890625 462.066406 109.703125 480.457031 104.191406 C 495.910156 98.109375 509.957031 88.808594 525.910156 84 C 537.941406 79.050781 550.285156 74.949219 562.890625 71.742188 C 572.949219 67.347656 583.878906 65.078125 594.886719 65.425781 C 600.441406 65.636719 605.257812 62.375 609.617188 59.324219 C 612.835938 58.28125 616.03125 57.074219 619.363281 56.359375 C 619.6875 57.285156 620.355469 59.152344 620.667969 60.078125 C 637.925781 56.539062 655.316406 52.667969 673.027344 52.804688 C 687.011719 53.484375 700.992188 54.078125 714.972656 54.738281 C 720.484375 60.125 728.941406 58.503906 734.867188 62.675781 C 737.113281 69.035156 733.613281 75.941406 731.640625 82.046875 C 725.367188 81.230469 719.511719 78.4375 713.140625 78.191406 C 708.925781 77.953125 704.703125 77.832031 700.554688 77.082031 C 679.253906 75.492188 657.738281 76.207031 636.707031 80.167969 C 619.417969 83.476562 602.015625 86.507812 585.152344 91.738281 C 568.976562 96.015625 552.375 99.171875 536.914062 105.8125 C 520.105469 111.8125 504.273438 120.128906 487.972656 127.371094 C 477.828125 133.105469 466.617188 136.695312 456.761719 142.96875 C 433.101562 157.117188 407.808594 168.554688 385.300781 184.582031 C 370.011719 194.257812 354.296875 203.414062 340.089844 214.675781 C 325.339844 224.925781 313.257812 238.378906 299.589844 249.9375 C 281.214844 268.210938 264.945312 288.523438 250.144531 309.785156 C 235.652344 328.679688 223.085938 348.894531 209.710938 368.558594 C 197.023438 390.242188 186.332031 413.136719 178.328125 436.96875 C 171.234375 454.984375 168.304688 474.234375 162.691406 492.699219 C 158.890625 505.050781 157.671875 517.984375 154.566406 530.46875 C 153.851562 549.058594 158.859375 567.714844 168.167969 583.777344 C 176.292969 600.8125 189.226562 614.796875 201.730469 628.679688 C 216.339844 640.917969 230.945312 653.316406 247.128906 663.519531 C 276.367188 681.550781 309.355469 692.292969 342.324219 701.234375 C 355.191406 705.839844 368.980469 706.203125 382.195312 709.417969 C 394.015625 712.679688 406.414062 712.011719 418.359375 714.59375 C 438.652344 717.488281 459.1875 717.910156 479.605469 719.53125 C 494.109375 719.980469 508.617188 721.554688 523.101562 719.980469 C 540.558594 719.789062 558.0625 719.566406 575.441406 717.835938 C 611.550781 713.039062 647.78125 708.613281 683.332031 700.488281 C 724.105469 692.640625 764.015625 680.890625 803.578125 668.316406 C 820.277344 663.589844 836.042969 656.121094 852.886719 651.816406 C 869.117188 644.964844 886.148438 640.226562 902.378906 633.296875 C 913.398438 629.328125 924.683594 625.90625 935 620.261719 C 953.496094 612.359375 972 604.476562 990.667969 596.992188 C 1001.8125 590.40625 1014.347656 586.671875 1025.46875 580.078125 C 1037.203125 575.195312 1047.800781 568.007812 1059.558594 563.1875 C 1076.121094 556.136719 1090.347656 544.878906 1105.929688 536.050781 C 1120.75 527.070312 1136.046875 518.746094 1149.871094 508.203125 C 1159.304688 500.929688 1170.023438 495.351562 1178.515625 486.910156 C 1190.789062 475.363281 1205.347656 466.195312 1216.015625 452.976562 C 1220.636719 447.050781 1226.617188 442.289062 1230.785156 435.996094 C 1239.167969 424.101562 1250.480469 414.019531 1255.679688 400.144531 C 1264.363281 385.199219 1270.796875 368.601562 1272.242188 351.265625 C 1272.730469 341.292969 1272.015625 331.335938 1270.136719 321.554688 C 1270.550781 313.671875 1267.445312 306.34375 1265.757812 298.808594 C 1260.160156 276.507812 1253.410156 254.46875 1244.535156 233.25 C 1238.140625 215.792969 1229.335938 199.257812 1218.894531 183.917969 C 1212.042969 175.199219 1206.480469 165.453125 1198.566406 157.605469 C 1178.003906 135.019531 1152.765625 117.390625 1127.21875 100.894531 C 1117.855469 94.632812 1107.515625 90.105469 1097.53125 85.007812 C 1077.269531 72.175781 1054.550781 63.980469 1031.988281 56.292969 C 977.679688 33.050781 918.109375 26.714844 859.703125 23.140625 C 848.105469 23.085938 836.515625 21.554688 824.9375 22.757812 C 779.886719 23.472656 734.957031 27.855469 690.386719 34.371094 C 660.265625 39.425781 630.117188 44.765625 600.777344 53.398438 C 560.585938 63.703125 521.148438 76.707031 481.648438 89.164062 C 476.96875 89.648438 473.714844 93.3125 469.476562 94.867188 C 452.492188 99.953125 436.398438 107.488281 419.632812 113.242188 C 410.355469 115.980469 402.351562 122.296875 392.519531 123.179688 C 383.488281 130.761719 371.316406 132.214844 361.707031 138.753906 C 357.425781 141.769531 351.636719 141.511719 347.65625 145.101562 C 346.910156 144.855469 345.410156 144.386719 344.660156 144.160156 C 344.503906 149.234375 338.695312 149.808594 335.261719 151.941406 C 323.304688 156.523438 312.789062 165.3125 299.570312 166.074219 C 300.027344 166.882812 300.953125 168.464844 301.402344 169.269531 C 294.617188 168.027344 287.820312 170.867188 283.285156 175.917969 C 279.484375 177.707031 275.753906 179.75 271.671875 180.8125 C 269.132812 181.542969 268.070312 178.300781 266.410156 177.082031 C 272.585938 176.15625 278.722656 174.429688 283.460938 170.125 C 284.714844 169.511719 285.988281 168.921875 287.285156 168.328125 C 291.878906 162.816406 298.875 160.480469 305.167969 157.496094 C 319.570312 150.367188 334.335938 143.8125 347.972656 135.285156 C 361.707031 129.113281 374.738281 121.371094 388.875 116.105469 C 395.460938 113.3125 401.40625 109.164062 408.277344 107.015625 C 408.535156 106.023438 409.046875 104 409.304688 103.003906 C 415.757812 99.640625 423.007812 98.246094 429.535156 95.054688 C 442.574219 87.1875 456.972656 81.925781 470.832031 75.683594 C 482.5 71.652344 494.355469 68.164062 505.914062 63.894531 C 509.902344 62.203125 513.378906 59.363281 517.703125 58.492188 C 524.867188 56.640625 531.472656 53.21875 538.535156 51.039062 C 545.320312 48.691406 552.550781 48.03125 559.390625 45.828125 C 583.476562 37.457031 608.207031 30.761719 633.308594 26.179688 C 644.429688 25.09375 655.15625 21.574219 665.699219 18.066406 C 675.710938 18.554688 684.464844 12.519531 694.332031 12.070312 C 706.03125 10.777344 717.65625 8.875 729.304688 7.1875 C 739.59375 6.773438 749.808594 5.390625 760.058594 4.503906 C 771.707031 3.140625 783.425781 0.492188 795.195312 1.921875"/><g fill="#198754"><g><g><path d="M 59.296875 -56.359375 L 62.734375 -32.78125 L 67.765625 -54.015625 L 103.125 -178.75 L 123.015625 -178.75 L 157.515625 -54.015625 L 162.421875 -32.40625 L 166.234375 -56.46875 L 193.984375 -178.75 L 217.671875 -178.75 L 174.34375 0 L 152.84375 0 L 116.015625 -130.265625 L 113.203125 -143.890625 L 110.375 -130.265625 L 72.1875 0 L 50.703125 0 L 7.484375 -178.75 L 31.0625 -178.75 Z M 59.296875 -56.359375" transform="translate(385.614 447.124)"/></g></g></g><g fill="#198754"><g><g><path d="M 99.203125 0 C 97.890625 -2.613281 96.828125 -7.28125 96.015625 -14 C 85.453125 -3.03125 72.84375 2.453125 58.1875 2.453125 C 45.09375 2.453125 34.347656 -1.25 25.953125 -8.65625 C 17.566406 -16.0625 13.375 -25.453125 13.375 -36.828125 C 13.375 -50.660156 18.632812 -61.398438 29.15625 -69.046875 C 39.675781 -76.703125 54.472656 -80.53125 73.546875 -80.53125 L 95.640625 -80.53125 L 95.640625 -90.96875 C 95.640625 -98.914062 93.265625 -105.238281 88.515625 -109.9375 C 83.765625 -114.644531 76.769531 -117 67.53125 -117 C 59.425781 -117 52.628906 -114.953125 47.140625 -110.859375 C 41.660156 -106.765625 38.921875 -101.816406 38.921875 -96.015625 L 16.078125 -96.015625 C 16.078125 -102.640625 18.429688 -109.039062 23.140625 -115.21875 C 27.847656 -121.394531 34.234375 -126.285156 42.296875 -129.890625 C 50.359375 -133.492188 59.21875 -135.296875 68.875 -135.296875 C 84.175781 -135.296875 96.164062 -131.46875 104.84375 -123.8125 C 113.519531 -116.164062 118.023438 -105.628906 118.359375 -92.203125 L 118.359375 -31.0625 C 118.359375 -18.863281 119.910156 -9.164062 123.015625 -1.96875 L 123.015625 0 Z M 61.515625 -17.3125 C 68.628906 -17.3125 75.378906 -19.148438 81.765625 -22.828125 C 88.148438 -26.515625 92.773438 -31.304688 95.640625 -37.203125 L 95.640625 -64.453125 L 77.84375 -64.453125 C 50.007812 -64.453125 36.09375 -56.3125 36.09375 -40.03125 C 36.09375 -32.90625 38.46875 -27.335938 43.21875 -23.328125 C 47.96875 -19.316406 54.066406 -17.3125 61.515625 -17.3125 Z M 61.515625 -17.3125" transform="translate(608.668 447.124)"/></g></g></g><g fill="#198754"><g><g><path d="M 61.015625 -30.8125 L 93.921875 -132.84375 L 117.125 -132.84375 L 69.484375 0 L 52.171875 0 L 4.046875 -132.84375 L 27.25 -132.84375 Z M 61.015625 -30.8125" transform="translate(745.423 447.124)"/></g></g></g><g fill="#198754"><g><g><path d="M 72.3125 2.453125 C 54.300781 2.453125 39.648438 -3.457031 28.359375 -15.28125 C 17.066406 -27.113281 11.421875 -42.929688 11.421875 -62.734375 L 11.421875 -66.90625 C 11.421875 -80.082031 13.9375 -91.847656 18.96875 -102.203125 C 24 -112.554688 31.035156 -120.660156 40.078125 -126.515625 C 49.128906 -132.367188 58.929688 -135.296875 69.484375 -135.296875 C 86.753906 -135.296875 100.175781 -129.609375 109.75 -118.234375 C 119.332031 -106.859375 124.125 -90.566406 124.125 -69.359375 L 124.125 -59.90625 L 34.125 -59.90625 C 34.457031 -46.8125 38.285156 -36.234375 45.609375 -28.171875 C 52.929688 -20.109375 62.242188 -16.078125 73.546875 -16.078125 C 81.566406 -16.078125 88.359375 -17.710938 93.921875 -20.984375 C 99.484375 -24.265625 104.351562 -28.609375 108.53125 -34.015625 L 122.40625 -23.203125 C 111.269531 -6.097656 94.570312 2.453125 72.3125 2.453125 Z M 69.484375 -116.640625 C 60.316406 -116.640625 52.625 -113.300781 46.40625 -106.625 C 40.1875 -99.957031 36.34375 -90.609375 34.875 -78.578125 L 101.40625 -78.578125 L 101.40625 -80.296875 C 100.75 -91.835938 97.640625 -100.78125 92.078125 -107.125 C 86.515625 -113.46875 78.984375 -116.640625 69.484375 -116.640625 Z M 69.484375 -116.640625" transform="translate(867.2 447.124)"/></g></g></g><g fill="#198754"><g><g><path d="M 94.53125 -35.234375 C 94.53125 -41.367188 92.21875 -46.132812 87.59375 -49.53125 C 82.96875 -52.9375 74.90625 -55.863281 63.40625 -58.3125 C 51.90625 -60.769531 42.78125 -63.71875 36.03125 -67.15625 C 29.28125 -70.59375 24.285156 -74.679688 21.046875 -79.421875 C 17.816406 -84.171875 16.203125 -89.820312 16.203125 -96.375 C 16.203125 -107.257812 20.804688 -116.46875 30.015625 -124 C 39.222656 -131.53125 50.988281 -135.296875 65.3125 -135.296875 C 80.375 -135.296875 92.585938 -131.40625 101.953125 -123.625 C 111.328125 -115.851562 116.015625 -105.910156 116.015625 -93.796875 L 93.1875 -93.796875 C 93.1875 -100.015625 90.546875 -105.375 85.265625 -109.875 C 79.984375 -114.382812 73.332031 -116.640625 65.3125 -116.640625 C 57.050781 -116.640625 50.585938 -114.835938 45.921875 -111.234375 C 41.253906 -107.628906 38.921875 -102.921875 38.921875 -97.109375 C 38.921875 -91.628906 41.085938 -87.492188 45.421875 -84.703125 C 49.765625 -81.921875 57.601562 -79.257812 68.9375 -76.71875 C 80.269531 -74.1875 89.457031 -71.160156 96.5 -67.640625 C 103.539062 -64.128906 108.757812 -59.894531 112.15625 -54.9375 C 115.550781 -49.988281 117.25 -43.953125 117.25 -36.828125 C 117.25 -24.960938 112.5 -15.445312 103 -8.28125 C 93.507812 -1.125 81.191406 2.453125 66.046875 2.453125 C 55.410156 2.453125 46 0.570312 37.8125 -3.1875 C 29.625 -6.957031 23.21875 -12.21875 18.59375 -18.96875 C 13.96875 -25.71875 11.65625 -33.023438 11.65625 -40.890625 L 34.375 -40.890625 C 34.78125 -33.273438 37.828125 -27.234375 43.515625 -22.765625 C 49.210938 -18.304688 56.722656 -16.078125 66.046875 -16.078125 C 74.640625 -16.078125 81.535156 -17.816406 86.734375 -21.296875 C 91.929688 -24.773438 94.53125 -29.421875 94.53125 -35.234375 Z M 94.53125 -35.234375" transform="translate(1000.395 447.124)"/></g></g></g></svg>