<svg xmlns="http://www.w3.org/2000/svg" width="1440" viewBox="0 0 1440 810" height="810" version="1.0"><defs><clipPath id="a"><path d="M 289 3 L 1108.957031 3 L 1108.957031 809 L 289 809 Z M 289 3"/></clipPath></defs><g clip-path="url(#a)"><path fill="#FFC107" d="M 771.320312 7.089844 C 776.125 0.527344 785.300781 4.351562 791.984375 4.550781 C 797.390625 3.984375 802.402344 6.15625 807.640625 7.089844 C 819.484375 5.289062 832.222656 3.648438 843.691406 8.203125 C 847.695312 9.789062 852.003906 8.027344 856.203125 8.128906 C 859.308594 8.433594 862.289062 8.714844 865.488281 8.996094 C 865.429688 8.253906 865.328125 6.792969 865.273438 6.066406 C 879.210938 8.554688 893.277344 11.203125 906.582031 16.304688 C 911.117188 18.070312 915.984375 18.242188 920.859375 18.542969 C 934.601562 20.21875 945.507812 29.78125 958.761719 33.027344 C 964.546875 35.039062 968.234375 40.617188 974.203125 42.367188 C 983.148438 47.800781 991.035156 54.644531 999.203125 61.144531 C 1005.082031 69.132812 1013.589844 74.65625 1019.78125 82.402344 C 1029.097656 94.335938 1037.640625 106.902344 1047.398438 118.496094 C 1053.769531 125.832031 1057.773438 134.800781 1063.882812 142.335938 C 1071.234375 154.335938 1076.425781 167.515625 1082.285156 180.296875 C 1092.164062 201.996094 1098.730469 225.296875 1101.425781 248.996094 C 1104.410156 260.90625 1103.902344 273.257812 1106.28125 285.273438 C 1106.480469 298.386719 1106.425781 311.640625 1108.363281 324.664062 C 1106.96875 335.375 1109.003906 346.140625 1108.328125 356.867188 C 1108.382812 369.398438 1105.789062 381.765625 1105.769531 394.277344 C 1106.390625 402.398438 1103.652344 410.429688 1102.363281 418.382812 C 1099.558594 432.5 1099.222656 447.523438 1091.757812 460.238281 C 1090.328125 471.414062 1082.265625 480.304688 1080.183594 491.335938 C 1076.710938 495.167969 1073.269531 499.105469 1071.078125 503.8125 C 1067.300781 511.5625 1061.246094 517.917969 1057.863281 525.859375 C 1051.613281 534.679688 1045.648438 543.730469 1039.085938 552.328125 C 1031.871094 560.992188 1026.824219 571.46875 1017.753906 578.460938 C 999.839844 597.871094 984.191406 619.367188 964.035156 636.660156 C 949.761719 651.921875 934.265625 666.148438 917.101562 678.128906 C 893.960938 695.949219 869.503906 712.046875 843.972656 726.21875 C 831.957031 734.089844 819.054688 740.371094 806.171875 746.617188 C 793.625 752.949219 781.171875 759.480469 768.117188 764.691406 C 759.363281 768.707031 749.828125 771.109375 742.101562 777.023438 C 733.332031 779.386719 724.546875 781.625 716.175781 785.175781 C 709.511719 788.546875 700.226562 786.375 696.222656 793.925781 C 681.789062 796.332031 667.691406 800.335938 653.132812 801.867188 C 637.636719 805.925781 621.613281 807.960938 605.625 807.214844 C 600.773438 808.523438 595.761719 809.667969 590.808594 808.503906 C 584.203125 806.863281 577.570312 809.28125 570.988281 807.890625 C 562.800781 806.601562 554.488281 806.546875 546.285156 805.699219 C 539.542969 805.078125 533.558594 801.589844 526.921875 800.632812 C 520.023438 799.027344 512.859375 798.335938 506.242188 795.765625 C 492.5 789.359375 476.953125 787.679688 463.835938 779.757812 C 456.425781 775.03125 447.851562 772.484375 440.792969 767.214844 C 437.652344 764.972656 434.371094 762.996094 430.863281 761.511719 C 430.117188 761.050781 428.636719 760.132812 427.898438 759.691406 C 417.976562 752.578125 406.789062 746.84375 399.585938 736.628906 C 395.457031 733.027344 395.253906 727.632812 396.011719 722.621094 C 395.851562 720.304688 395.707031 717.996094 395.671875 715.71875 C 392.570312 713.832031 390.964844 710.5625 388.738281 707.917969 C 380.253906 702.589844 368.21875 707.335938 361.070312 699.429688 C 356.921875 696.09375 355.472656 690.800781 353.640625 686.085938 C 340.789062 670.078125 334.296875 650.460938 327.046875 631.59375 C 324.769531 625.4375 324.296875 618.867188 322.8125 612.554688 C 318.558594 596.320312 317.574219 579.480469 314.355469 563.054688 C 310.917969 549.851562 305.554688 537.183594 302.429688 523.878906 C 301.175781 513.269531 295.992188 503.597656 295.304688 492.886719 C 292.53125 481.824219 292.144531 470.40625 290.710938 459.152344 C 289.25 453.167969 290.996094 446.96875 289.546875 440.992188 C 287.699219 418.5625 291.472656 396.269531 293.378906 374.003906 C 297.296875 354.46875 299.398438 334.367188 306.789062 315.714844 C 309.136719 308.25 311.199219 300.679688 314.167969 293.410156 C 322.441406 284.039062 324.488281 271.15625 331.265625 260.851562 C 339.578125 245.796875 353.074219 234.609375 361.488281 219.609375 C 369.078125 204.765625 383.195312 195.136719 393.660156 182.550781 C 397.3125 178.847656 400.511719 174.222656 405.660156 172.4375 C 412.472656 169.527344 417.433594 163.703125 421.5625 157.71875 C 428.703125 156.363281 433.597656 150.628906 439.84375 147.378906 C 444.269531 144.980469 447.695312 141.273438 451.085938 137.585938 C 458.542969 129.449219 469.539062 126.15625 477.921875 119.144531 C 486.605469 111.632812 497.125 106.777344 506.242188 99.804688 C 520.574219 89.339844 536.71875 81.894531 552 72.945312 C 576.8125 59.496094 602.449219 47.675781 628.621094 37.085938 C 638.871094 33.558594 649.582031 30.863281 659.164062 25.617188 C 659.425781 26.09375 659.992188 27.050781 660.273438 27.539062 C 673.632812 22.355469 687.648438 19.191406 701.445312 15.4375 C 706.4375 13.320312 712.453125 13.851562 716.867188 10.320312 C 735.097656 10.707031 753.074219 6.914062 771.320312 7.089844 Z M 749.601562 39.722656 C 738.308594 40.933594 726.34375 40.457031 716.039062 45.898438 C 709.511719 48.308594 698.765625 49.054688 699.59375 58.546875 C 694.441406 62.675781 688.144531 65.027344 683.144531 69.292969 C 675.328125 75.539062 664.492188 74.429688 656.042969 79.40625 C 645.714844 85.210938 634.460938 89.167969 624.542969 95.660156 C 609.6875 104.871094 594.28125 113.25 580.300781 123.804688 C 573.140625 130.421875 565.234375 136.160156 557.03125 141.382812 C 553.75 143.410156 551.261719 146.375 549.019531 149.429688 C 545.914062 150.929688 542.753906 152.445312 540.597656 155.164062 C 535.890625 160.457031 529.273438 163.53125 524.667969 168.929688 C 504.058594 187.121094 485.667969 207.628906 466.683594 227.46875 C 453.496094 241.9375 441.730469 257.625 429.484375 272.886719 C 421.046875 285.148438 411.292969 296.496094 404.144531 309.574219 C 383.582031 340.773438 365.355469 373.878906 353.886719 409.5625 C 341.183594 443.425781 332.53125 479.128906 331.285156 515.371094 C 331.707031 531.152344 327.949219 547.398438 333.378906 562.703125 C 338.128906 581.492188 349.40625 597.5 357.980469 614.617188 C 358.636719 614.917969 359.9375 615.53125 360.59375 615.855469 C 361.882812 622.613281 367.140625 627.363281 371.078125 632.667969 C 386.847656 652.417969 407.761719 666.992188 428.105469 681.625 C 438.925781 688.664062 450.160156 695 461.550781 701.105469 C 467.933594 704.582031 474.976562 707.179688 480.359375 712.257812 C 478.394531 712.542969 474.464844 713.105469 472.503906 713.390625 C 474.425781 715.042969 476.367188 716.726562 478.347656 718.449219 C 475.894531 719.511719 473.617188 718.152344 471.621094 716.953125 C 467.050781 716.195312 462.515625 715.382812 457.910156 715.4375 C 443.667969 710.878906 430.152344 704 418.722656 694.308594 C 411.769531 691.695312 407.371094 685.292969 400.71875 682.226562 C 393.714844 679.011719 389.515625 671.546875 382.335938 668.878906 C 381.90625 669.148438 381.046875 669.691406 380.617188 669.960938 C 388.828125 677.882812 397.277344 685.574219 405.804688 693.164062 C 409.898438 696.992188 415.226562 699.308594 418.949219 703.59375 C 419.742188 703.890625 421.328125 704.511719 422.128906 704.828125 C 429.027344 711.410156 437.953125 715.121094 445.738281 720.496094 C 450.042969 723.570312 454.875 725.722656 459.832031 727.609375 C 493.675781 743.796875 530.347656 755.496094 568.09375 756.714844 C 581.398438 757.308594 594.742188 758.597656 608.09375 757.398438 C 624.574219 756.164062 641.324219 756.230469 657.433594 752.035156 C 712.894531 743.777344 765.132812 721.457031 814.519531 695.6875 C 829.347656 689.089844 842.386719 679.117188 857.082031 672.285156 C 869.628906 661.46875 885.566406 655.574219 898.042969 644.648438 C 905.398438 638.582031 913.695312 633.710938 920.699219 627.203125 C 926.59375 621.480469 933.753906 617.386719 940.074219 612.203125 C 949.09375 603.042969 959.429688 595.203125 967.53125 585.132812 C 983.941406 568.050781 999.417969 550.101562 1014.507812 531.890625 C 1022.640625 522.871094 1030.4375 513.539062 1037.742188 503.8125 C 1049.867188 485.035156 1063.648438 467.214844 1073.089844 446.847656 C 1083.058594 427.136719 1089.875 405.5 1091.15625 383.394531 C 1094.898438 354.574219 1091.796875 325.488281 1089.0625 296.765625 C 1085.988281 272.582031 1080.609375 248.476562 1070.941406 226.066406 C 1068.625 216.996094 1063.5625 209.042969 1059.234375 200.871094 C 1054.6875 191.289062 1049.957031 181.722656 1044.078125 172.863281 C 1036.210938 162.980469 1030.84375 151.226562 1021.894531 142.175781 C 1014.859375 132.84375 1007.605469 123.625 999.417969 115.285156 C 989.214844 107.128906 980.765625 96.914062 969.398438 90.277344 C 959.375 84.472656 950.539062 76.585938 939.558594 72.628906 C 927.332031 67.832031 915.722656 61.214844 902.734375 58.636719 C 895.238281 57.492188 888.8125 53.09375 881.539062 51.316406 C 873.65625 48.984375 865.363281 48.863281 857.457031 46.8125 C 837.09375 42.007812 816.320312 38.886719 795.378906 38.839844 C 780.109375 37.199219 764.847656 39.011719 749.601562 39.722656 Z M 489.285156 149.253906 C 478.679688 154.742188 469.839844 162.933594 460.203125 169.867188 C 450.394531 176.890625 441.675781 185.253906 432.886719 193.457031 C 418.738281 203.851562 406.246094 216.484375 395.480469 230.339844 C 388.511719 236.9375 382.824219 244.707031 377.289062 252.488281 C 357.980469 276.628906 343.355469 304.230469 331.726562 332.761719 C 315.699219 376.3125 311.660156 423.238281 312.964844 469.296875 C 313.652344 470.917969 315.011719 474.164062 315.699219 475.792969 C 318.207031 465.574219 319.023438 455.054688 321.082031 444.75 C 321.578125 433.15625 326.183594 422.410156 328.164062 411.078125 C 329.714844 403.769531 333.117188 397.050781 335.164062 389.867188 C 345.664062 356.109375 359.609375 322.988281 380.300781 294.132812 C 388.117188 283.9375 393.554688 272.199219 400.875 261.664062 C 414.078125 244.265625 425.601562 225.503906 440.511719 209.414062 C 461.96875 183.488281 486.144531 160.035156 509.964844 136.335938 C 501.355469 137.832031 496.695312 145.671875 489.285156 149.253906 Z M 356.355469 637.632812 L 356.464844 639.148438 C 360.097656 641.015625 359.484375 634.578125 356.355469 637.632812 Z M 358.726562 644.601562 C 364.757812 653.230469 373.332031 659.882812 378.625 669.039062 C 379.542969 669.003906 381.410156 668.914062 382.335938 668.878906 C 382.789062 668.636719 383.691406 668.140625 384.148438 667.894531 C 374.871094 660.53125 368.761719 650.28125 361.371094 641.230469 C 360.414062 642.339844 359.53125 643.472656 358.726562 644.601562"/></g><g fill="#FFC107"><g><g><path d="M 135.953125 -150.171875 L 81.796875 -150.171875 L 81.796875 0 L 59.703125 0 L 59.703125 -150.171875 L 5.671875 -150.171875 L 5.671875 -168.453125 L 135.953125 -168.453125 Z M 135.953125 -150.171875" transform="translate(483.43 483.693)"/></g></g></g><g fill="#FFC107"><g><g><path d="M 149.140625 -78.796875 C 149.140625 -62.285156 146.359375 -47.878906 140.796875 -35.578125 C 135.242188 -23.273438 127.378906 -13.882812 117.203125 -7.40625 C 107.023438 -0.925781 95.144531 2.3125 81.5625 2.3125 C 68.300781 2.3125 56.539062 -0.941406 46.28125 -7.453125 C 36.019531 -13.972656 28.054688 -23.269531 22.390625 -35.34375 C 16.722656 -47.414062 13.8125 -61.394531 13.65625 -77.28125 L 13.65625 -89.4375 C 13.65625 -105.632812 16.46875 -119.941406 22.09375 -132.359375 C 27.726562 -144.773438 35.691406 -154.28125 45.984375 -160.875 C 56.285156 -167.46875 68.070312 -170.765625 81.34375 -170.765625 C 94.832031 -170.765625 106.722656 -167.503906 117.015625 -160.984375 C 127.316406 -154.472656 135.242188 -145.023438 140.796875 -132.640625 C 146.359375 -120.265625 149.140625 -105.863281 149.140625 -89.4375 Z M 127.03125 -89.671875 C 127.03125 -109.648438 123.019531 -124.976562 115 -135.65625 C 106.976562 -146.34375 95.757812 -151.6875 81.34375 -151.6875 C 67.300781 -151.6875 56.25 -146.34375 48.1875 -135.65625 C 40.125 -124.976562 35.976562 -110.148438 35.75 -91.171875 L 35.75 -78.796875 C 35.75 -59.429688 39.816406 -44.210938 47.953125 -33.140625 C 56.085938 -22.078125 67.289062 -16.546875 81.5625 -16.546875 C 95.914062 -16.546875 107.023438 -21.769531 114.890625 -32.21875 C 122.753906 -42.675781 126.800781 -57.660156 127.03125 -77.171875 Z M 127.03125 -89.671875" transform="translate(624.796 483.693)"/></g></g></g><g fill="#FFC107"><g><g><path d="M 149.015625 0 L 126.6875 0 L 41.890625 -129.8125 L 41.890625 0 L 19.546875 0 L 19.546875 -168.453125 L 41.890625 -168.453125 L 126.921875 -38.0625 L 126.921875 -168.453125 L 149.015625 -168.453125 Z M 149.015625 0" transform="translate(787.68 483.693)"/></g></g></g></svg>