<svg xmlns="http://www.w3.org/2000/svg" width="375" viewBox="0 0 375 375" height="375" version="1.0"><defs><clipPath id="a"><path d="M 51.082031 25.847656 L 374.992188 25.847656 L 374.992188 348.992188 L 51.082031 348.992188 Z M 51.082031 25.847656"/></clipPath></defs><g clip-path="url(#a)"><path fill="#FFCF36" d="M 374.996094 187.417969 C 374.996094 276.652344 302.613281 348.992188 213.328125 348.992188 C 124.039062 348.992188 51.660156 276.652344 51.660156 187.417969 C 51.660156 98.183594 124.039062 25.84375 213.328125 25.84375 C 302.613281 25.84375 374.996094 98.183594 374.996094 187.417969"/></g><path d="M 239.769531 306.1875 L 211.128906 306.1875 C 207.59375 306.1875 204.722656 303.324219 204.722656 299.789062 L 204.722656 299.660156 C 204.722656 296.125 207.59375 293.261719 211.128906 293.261719 L 239.644531 293.261719 C 241.25 293.261719 242.554688 291.957031 242.554688 290.347656 L 242.554688 290.160156 C 242.554688 288.554688 241.25 287.25 239.644531 287.25 L 236.121094 287.25 C 227.445312 287.25 220.40625 280.214844 220.40625 271.539062 L 220.40625 271.222656 C 220.40625 262.476562 227.5 255.386719 236.253906 255.386719 L 239.644531 255.386719 C 241.25 255.386719 242.554688 254.078125 242.554688 252.472656 L 242.554688 252.285156 C 242.554688 250.679688 241.25 249.375 239.644531 249.375 L 211.128906 249.375 C 207.59375 249.375 204.722656 246.507812 204.722656 242.972656 L 204.722656 242.84375 C 204.722656 239.3125 207.59375 236.445312 211.128906 236.445312 L 239.769531 236.445312 C 248.453125 236.445312 255.488281 243.476562 255.488281 252.15625 L 255.488281 252.472656 C 255.488281 261.222656 248.394531 268.3125 239.644531 268.3125 L 236.253906 268.3125 C 234.644531 268.3125 233.339844 269.617188 233.339844 271.222656 L 233.339844 271.414062 C 233.339844 273.015625 234.644531 274.320312 236.253906 274.320312 L 239.644531 274.320312 C 248.394531 274.320312 255.488281 281.414062 255.488281 290.160156 L 255.488281 290.480469 C 255.488281 299.15625 248.453125 306.1875 239.769531 306.1875"/><path d="M 103.199219 117.207031 L 93.816406 117.207031 L 93.816406 107.832031 L 103.199219 107.832031 L 103.199219 117.207031"/><path d="M 112.582031 117.207031 L 103.199219 117.207031 L 103.199219 107.832031 L 112.582031 107.832031 L 112.582031 117.207031"/><path d="M 121.964844 117.207031 L 112.582031 117.207031 L 112.582031 107.832031 L 121.964844 107.832031 L 121.964844 117.207031"/><path d="M 131.34375 117.207031 L 121.964844 117.207031 L 121.964844 107.832031 L 131.34375 107.832031 L 131.34375 117.207031"/><path d="M 140.722656 117.207031 L 131.34375 117.207031 L 131.34375 107.832031 L 140.722656 107.832031 L 140.722656 117.207031"/><path d="M 150.109375 117.207031 L 140.722656 117.207031 L 140.722656 107.832031 L 150.109375 107.832031 L 150.109375 117.207031"/><path d="M 159.488281 117.207031 L 150.109375 117.207031 L 150.109375 107.832031 L 159.488281 107.832031 L 159.488281 117.207031"/><path d="M 168.871094 117.207031 L 159.488281 117.207031 L 159.488281 107.832031 L 168.871094 107.832031 L 168.871094 117.207031"/><path d="M 178.253906 117.207031 L 168.871094 117.207031 L 168.871094 107.832031 L 178.253906 107.832031 L 178.253906 117.207031"/><path d="M 187.632812 117.207031 L 178.253906 117.207031 L 178.253906 107.832031 L 187.632812 107.832031 L 187.632812 117.207031"/><path d="M 197.015625 117.207031 L 187.632812 117.207031 L 187.632812 107.832031 L 197.015625 107.832031 L 197.015625 117.207031"/><path d="M 206.398438 117.207031 L 197.015625 117.207031 L 197.015625 107.832031 L 206.398438 107.832031 L 206.398438 117.207031"/><path d="M 215.78125 117.207031 L 206.398438 117.207031 L 206.398438 107.832031 L 215.78125 107.832031 L 215.78125 117.207031"/><path d="M 225.160156 117.207031 L 215.78125 117.207031 L 215.78125 107.832031 L 225.160156 107.832031 L 225.160156 117.207031"/><path d="M 234.542969 117.207031 L 225.160156 117.207031 L 225.160156 107.832031 L 234.542969 107.832031 L 234.542969 117.207031"/><path d="M 243.925781 117.207031 L 234.542969 117.207031 L 234.542969 107.832031 L 243.925781 107.832031 L 243.925781 117.207031"/><path d="M 253.308594 117.207031 L 243.925781 117.207031 L 243.925781 107.832031 L 253.308594 107.832031 L 253.308594 117.207031"/><path d="M 262.6875 117.207031 L 253.308594 117.207031 L 253.308594 107.832031 L 262.6875 107.832031 L 262.6875 117.207031"/><path d="M 272.070312 117.207031 L 262.6875 117.207031 L 262.6875 107.832031 L 272.070312 107.832031 L 272.070312 117.207031"/><path d="M 281.453125 117.207031 L 272.070312 117.207031 L 272.070312 107.832031 L 281.453125 107.832031 L 281.453125 117.207031"/><path d="M 290.835938 117.207031 L 281.453125 117.207031 L 281.453125 107.832031 L 290.835938 107.832031 L 290.835938 117.207031"/><path d="M 300.214844 117.207031 L 290.835938 117.207031 L 290.835938 107.832031 L 300.214844 107.832031 L 300.214844 117.207031"/><path d="M 309.597656 117.207031 L 300.214844 117.207031 L 300.214844 107.832031 L 309.597656 107.832031 L 309.597656 117.207031"/><path d="M 318.980469 117.207031 L 309.597656 117.207031 L 309.597656 107.832031 L 318.980469 107.832031 L 318.980469 117.207031"/><path d="M 328.359375 117.207031 L 318.980469 117.207031 L 318.980469 107.832031 L 328.359375 107.832031 L 328.359375 117.207031"/><path d="M 337.742188 117.207031 L 328.359375 117.207031 L 328.359375 107.832031 L 337.742188 107.832031 L 337.742188 117.207031"/><path d="M 347.125 117.207031 L 337.742188 117.207031 L 337.742188 107.832031 L 347.125 107.832031 L 347.125 117.207031"/><path d="M 356.503906 117.207031 L 347.125 117.207031 L 347.125 107.832031 L 356.503906 107.832031 L 356.503906 117.207031"/><path d="M 365.890625 117.207031 L 356.503906 117.207031 L 356.503906 107.832031 L 365.890625 107.832031 L 365.890625 117.207031"/><path d="M 103.199219 126.585938 L 93.816406 126.585938 L 93.816406 117.207031 L 103.199219 117.207031 L 103.199219 126.585938"/><path d="M 112.582031 126.585938 L 103.199219 126.585938 L 103.199219 117.207031 L 112.582031 117.207031 L 112.582031 126.585938"/><path d="M 121.964844 126.585938 L 112.582031 126.585938 L 112.582031 117.207031 L 121.964844 117.207031 L 121.964844 126.585938"/><path d="M 131.34375 126.585938 L 121.964844 126.585938 L 121.964844 117.207031 L 131.34375 117.207031 L 131.34375 126.585938"/><path d="M 140.722656 126.585938 L 131.34375 126.585938 L 131.34375 117.207031 L 140.722656 117.207031 L 140.722656 126.585938"/><path d="M 150.109375 126.585938 L 140.722656 126.585938 L 140.722656 117.207031 L 150.109375 117.207031 L 150.109375 126.585938"/><path d="M 159.488281 126.585938 L 150.109375 126.585938 L 150.109375 117.207031 L 159.488281 117.207031 L 159.488281 126.585938"/><path d="M 168.871094 126.585938 L 159.488281 126.585938 L 159.488281 117.207031 L 168.871094 117.207031 L 168.871094 126.585938"/><path d="M 178.253906 126.585938 L 168.871094 126.585938 L 168.871094 117.207031 L 178.253906 117.207031 L 178.253906 126.585938"/><path d="M 187.632812 126.585938 L 178.253906 126.585938 L 178.253906 117.207031 L 187.632812 117.207031 L 187.632812 126.585938"/><path d="M 197.015625 126.585938 L 187.632812 126.585938 L 187.632812 117.207031 L 197.015625 117.207031 L 197.015625 126.585938"/><path d="M 206.398438 126.585938 L 197.015625 126.585938 L 197.015625 117.207031 L 206.398438 117.207031 L 206.398438 126.585938"/><path d="M 215.78125 126.585938 L 206.398438 126.585938 L 206.398438 117.207031 L 215.78125 117.207031 L 215.78125 126.585938"/><path d="M 225.160156 126.585938 L 215.78125 126.585938 L 215.78125 117.207031 L 225.160156 117.207031 L 225.160156 126.585938"/><path d="M 18.765625 117.207031 L 9.378906 117.207031 L 9.378906 107.832031 L 18.765625 107.832031 L 18.765625 117.207031"/><path d="M 28.144531 117.207031 L 18.765625 117.207031 L 18.765625 107.832031 L 28.144531 107.832031 L 28.144531 117.207031"/><path d="M 37.527344 117.207031 L 28.144531 117.207031 L 28.144531 107.832031 L 37.527344 107.832031 L 37.527344 117.207031"/><path d="M 46.910156 117.207031 L 37.527344 117.207031 L 37.527344 107.832031 L 46.910156 107.832031 L 46.910156 117.207031"/><path d="M 56.289062 117.207031 L 46.910156 117.207031 L 46.910156 107.832031 L 56.289062 107.832031 L 56.289062 117.207031"/><path d="M 65.671875 117.207031 L 56.289062 117.207031 L 56.289062 107.832031 L 65.671875 107.832031 L 65.671875 117.207031"/><path d="M 75.054688 117.207031 L 65.671875 117.207031 L 65.671875 107.832031 L 75.054688 107.832031 L 75.054688 117.207031"/><path d="M 84.433594 117.207031 L 75.054688 117.207031 L 75.054688 107.832031 L 84.433594 107.832031 L 84.433594 117.207031"/><path d="M 93.816406 117.207031 L 84.433594 117.207031 L 84.433594 107.832031 L 93.816406 107.832031 L 93.816406 117.207031"/><path d="M 9.378906 126.585938 L 0 126.585938 L 0 117.207031 L 9.378906 117.207031 L 9.378906 126.585938"/><path d="M 18.765625 126.585938 L 9.378906 126.585938 L 9.378906 117.207031 L 18.765625 117.207031 L 18.765625 126.585938"/><path d="M 18.765625 135.960938 L 9.378906 135.960938 L 9.378906 126.585938 L 18.765625 126.585938 L 18.765625 135.960938"/><path d="M 28.144531 126.585938 L 18.765625 126.585938 L 18.765625 117.207031 L 28.144531 117.207031 L 28.144531 126.585938"/><path d="M 84.433594 126.585938 L 75.054688 126.585938 L 75.054688 117.207031 L 84.433594 117.207031 L 84.433594 126.585938"/><path d="M 93.816406 126.585938 L 84.433594 126.585938 L 84.433594 117.207031 L 93.816406 117.207031 L 93.816406 126.585938"/><path d="M 234.542969 126.585938 L 225.160156 126.585938 L 225.160156 117.207031 L 234.542969 117.207031 L 234.542969 126.585938"/><path d="M 243.925781 126.585938 L 234.542969 126.585938 L 234.542969 117.207031 L 243.925781 117.207031 L 243.925781 126.585938"/><path d="M 253.308594 126.585938 L 243.925781 126.585938 L 243.925781 117.207031 L 253.308594 117.207031 L 253.308594 126.585938"/><path d="M 262.6875 126.585938 L 253.308594 126.585938 L 253.308594 117.207031 L 262.6875 117.207031 L 262.6875 126.585938"/><path d="M 272.070312 126.585938 L 262.6875 126.585938 L 262.6875 117.207031 L 272.070312 117.207031 L 272.070312 126.585938"/><path d="M 281.453125 126.585938 L 272.070312 126.585938 L 272.070312 117.207031 L 281.453125 117.207031 L 281.453125 126.585938"/><path d="M 290.835938 126.585938 L 281.453125 126.585938 L 281.453125 117.207031 L 290.835938 117.207031 L 290.835938 126.585938"/><path d="M 300.214844 126.585938 L 290.835938 126.585938 L 290.835938 117.207031 L 300.214844 117.207031 L 300.214844 126.585938"/><path d="M 309.597656 126.585938 L 300.214844 126.585938 L 300.214844 117.207031 L 309.597656 117.207031 L 309.597656 126.585938"/><path d="M 318.980469 126.585938 L 309.597656 126.585938 L 309.597656 117.207031 L 318.980469 117.207031 L 318.980469 126.585938"/><path d="M 328.359375 126.585938 L 318.980469 126.585938 L 318.980469 117.207031 L 328.359375 117.207031 L 328.359375 126.585938"/><path d="M 337.742188 126.585938 L 328.359375 126.585938 L 328.359375 117.207031 L 337.742188 117.207031 L 337.742188 126.585938"/><path d="M 347.125 126.585938 L 337.742188 126.585938 L 337.742188 117.207031 L 347.125 117.207031 L 347.125 126.585938"/><path d="M 356.503906 126.585938 L 347.125 126.585938 L 347.125 117.207031 L 356.503906 117.207031 L 356.503906 126.585938"/><path d="M 365.890625 126.585938 L 356.503906 126.585938 L 356.503906 117.207031 L 365.890625 117.207031 L 365.890625 126.585938"/><path d="M 103.199219 135.960938 L 93.816406 135.960938 L 93.816406 126.585938 L 103.199219 126.585938 L 103.199219 135.960938"/><path d="M 112.582031 135.960938 L 103.199219 135.960938 L 103.199219 126.585938 L 112.582031 126.585938 L 112.582031 135.960938"/><path d="M 121.964844 135.960938 L 112.582031 135.960938 L 112.582031 126.585938 L 121.964844 126.585938 L 121.964844 135.960938"/><path d="M 131.34375 135.960938 L 121.964844 135.960938 L 121.964844 126.585938 L 131.34375 126.585938 L 131.34375 135.960938"/><path d="M 140.722656 135.960938 L 131.34375 135.960938 L 131.34375 126.585938 L 140.722656 126.585938 L 140.722656 135.960938"/><path d="M 150.109375 135.960938 L 140.722656 135.960938 L 140.722656 126.585938 L 150.109375 126.585938 L 150.109375 135.960938"/><path d="M 159.488281 135.960938 L 150.109375 135.960938 L 150.109375 126.585938 L 159.488281 126.585938 L 159.488281 135.960938"/><path d="M 168.871094 135.960938 L 159.488281 135.960938 L 159.488281 126.585938 L 168.871094 126.585938 L 168.871094 135.960938"/><path d="M 178.253906 135.960938 L 168.871094 135.960938 L 168.871094 126.585938 L 178.253906 126.585938 L 178.253906 135.960938"/><path d="M 187.632812 135.960938 L 178.253906 135.960938 L 178.253906 126.585938 L 187.632812 126.585938 L 187.632812 135.960938"/><path fill="#636363" d="M 197.015625 135.960938 L 187.632812 135.960938 L 187.632812 126.585938 L 197.015625 126.585938 L 197.015625 135.960938"/><path d="M 206.398438 135.960938 L 197.015625 135.960938 L 197.015625 126.585938 L 206.398438 126.585938 L 206.398438 135.960938"/><path fill="#636363" d="M 215.78125 135.960938 L 206.398438 135.960938 L 206.398438 126.585938 L 215.78125 126.585938 L 215.78125 135.960938"/><path d="M 225.160156 135.960938 L 215.78125 135.960938 L 215.78125 126.585938 L 225.160156 126.585938 L 225.160156 135.960938"/><path d="M 243.925781 135.960938 L 234.542969 135.960938 L 234.542969 126.585938 L 243.925781 126.585938 L 243.925781 135.960938"/><path d="M 253.308594 135.960938 L 243.925781 135.960938 L 243.925781 126.585938 L 253.308594 126.585938 L 253.308594 135.960938"/><path d="M 262.6875 135.960938 L 253.308594 135.960938 L 253.308594 126.585938 L 262.6875 126.585938 L 262.6875 135.960938"/><path d="M 272.070312 135.960938 L 262.6875 135.960938 L 262.6875 126.585938 L 272.070312 126.585938 L 272.070312 135.960938"/><path d="M 281.453125 135.960938 L 272.070312 135.960938 L 272.070312 126.585938 L 281.453125 126.585938 L 281.453125 135.960938"/><path d="M 290.835938 135.960938 L 281.453125 135.960938 L 281.453125 126.585938 L 290.835938 126.585938 L 290.835938 135.960938"/><path d="M 300.214844 135.960938 L 290.835938 135.960938 L 290.835938 126.585938 L 300.214844 126.585938 L 300.214844 135.960938"/><path d="M 309.597656 135.960938 L 300.214844 135.960938 L 300.214844 126.585938 L 309.597656 126.585938 L 309.597656 135.960938"/><path d="M 318.980469 135.960938 L 309.597656 135.960938 L 309.597656 126.585938 L 318.980469 126.585938 L 318.980469 135.960938"/><path fill="#636363" d="M 328.359375 135.960938 L 318.980469 135.960938 L 318.980469 126.585938 L 328.359375 126.585938 L 328.359375 135.960938"/><path d="M 337.742188 135.960938 L 328.359375 135.960938 L 328.359375 126.585938 L 337.742188 126.585938 L 337.742188 135.960938"/><path fill="#636363" d="M 347.125 135.960938 L 337.742188 135.960938 L 337.742188 126.585938 L 347.125 126.585938 L 347.125 135.960938"/><path d="M 356.503906 135.960938 L 347.125 135.960938 L 347.125 126.585938 L 356.503906 126.585938 L 356.503906 135.960938"/><path d="M 365.890625 135.960938 L 356.503906 135.960938 L 356.503906 126.585938 L 365.890625 126.585938 L 365.890625 135.960938"/><path d="M 112.582031 145.339844 L 103.199219 145.339844 L 103.199219 135.960938 L 112.582031 135.960938 L 112.582031 145.339844"/><path d="M 121.964844 145.339844 L 112.582031 145.339844 L 112.582031 135.960938 L 121.964844 135.960938 L 121.964844 145.339844"/><path d="M 131.34375 145.339844 L 121.964844 145.339844 L 121.964844 135.960938 L 131.34375 135.960938 L 131.34375 145.339844"/><path d="M 140.722656 145.339844 L 131.34375 145.339844 L 131.34375 135.960938 L 140.722656 135.960938 L 140.722656 145.339844"/><path d="M 150.109375 145.339844 L 140.722656 145.339844 L 140.722656 135.960938 L 150.109375 135.960938 L 150.109375 145.339844"/><path d="M 159.488281 145.339844 L 150.109375 145.339844 L 150.109375 135.960938 L 159.488281 135.960938 L 159.488281 145.339844"/><path d="M 168.871094 145.339844 L 159.488281 145.339844 L 159.488281 135.960938 L 168.871094 135.960938 L 168.871094 145.339844"/><path d="M 178.253906 145.339844 L 168.871094 145.339844 L 168.871094 135.960938 L 178.253906 135.960938 L 178.253906 145.339844"/><path fill="#636363" d="M 187.632812 145.339844 L 178.253906 145.339844 L 178.253906 135.960938 L 187.632812 135.960938 L 187.632812 145.339844"/><path d="M 197.015625 145.339844 L 187.632812 145.339844 L 187.632812 135.960938 L 197.015625 135.960938 L 197.015625 145.339844"/><path fill="#636363" d="M 206.398438 145.339844 L 197.015625 145.339844 L 197.015625 135.960938 L 206.398438 135.960938 L 206.398438 145.339844"/><path d="M 215.78125 145.339844 L 206.398438 145.339844 L 206.398438 135.960938 L 215.78125 135.960938 L 215.78125 145.339844"/><path d="M 225.160156 145.339844 L 215.78125 145.339844 L 215.78125 135.960938 L 225.160156 135.960938 L 225.160156 145.339844"/><path d="M 243.925781 145.339844 L 234.542969 145.339844 L 234.542969 135.960938 L 243.925781 135.960938 L 243.925781 145.339844"/><path d="M 253.308594 145.339844 L 243.925781 145.339844 L 243.925781 135.960938 L 253.308594 135.960938 L 253.308594 145.339844"/><path d="M 262.6875 145.339844 L 253.308594 145.339844 L 253.308594 135.960938 L 262.6875 135.960938 L 262.6875 145.339844"/><path d="M 272.070312 145.339844 L 262.6875 145.339844 L 262.6875 135.960938 L 272.070312 135.960938 L 272.070312 145.339844"/><path d="M 281.453125 145.339844 L 272.070312 145.339844 L 272.070312 135.960938 L 281.453125 135.960938 L 281.453125 145.339844"/><path d="M 290.835938 145.339844 L 281.453125 145.339844 L 281.453125 135.960938 L 290.835938 135.960938 L 290.835938 145.339844"/><path d="M 300.214844 145.339844 L 290.835938 145.339844 L 290.835938 135.960938 L 300.214844 135.960938 L 300.214844 145.339844"/><path d="M 309.597656 145.339844 L 300.214844 145.339844 L 300.214844 135.960938 L 309.597656 135.960938 L 309.597656 145.339844"/><path fill="#636363" d="M 318.980469 145.339844 L 309.597656 145.339844 L 309.597656 135.960938 L 318.980469 135.960938 L 318.980469 145.339844"/><path d="M 328.359375 145.339844 L 318.980469 145.339844 L 318.980469 135.960938 L 328.359375 135.960938 L 328.359375 145.339844"/><path fill="#636363" d="M 337.742188 145.339844 L 328.359375 145.339844 L 328.359375 135.960938 L 337.742188 135.960938 L 337.742188 145.339844"/><path d="M 347.125 145.339844 L 337.742188 145.339844 L 337.742188 135.960938 L 347.125 135.960938 L 347.125 145.339844"/><path d="M 356.503906 145.339844 L 347.125 145.339844 L 347.125 135.960938 L 356.503906 135.960938 L 356.503906 145.339844"/><path d="M 112.582031 154.714844 L 103.199219 154.714844 L 103.199219 145.339844 L 112.582031 145.339844 L 112.582031 154.714844"/><path d="M 121.964844 154.714844 L 112.582031 154.714844 L 112.582031 145.339844 L 121.964844 145.339844 L 121.964844 154.714844"/><path d="M 131.34375 154.714844 L 121.964844 154.714844 L 121.964844 145.339844 L 131.34375 145.339844 L 131.34375 154.714844"/><path d="M 140.722656 154.714844 L 131.34375 154.714844 L 131.34375 145.339844 L 140.722656 145.339844 L 140.722656 154.714844"/><path d="M 150.109375 154.714844 L 140.722656 154.714844 L 140.722656 145.339844 L 150.109375 145.339844 L 150.109375 154.714844"/><path d="M 159.488281 154.714844 L 150.109375 154.714844 L 150.109375 145.339844 L 159.488281 145.339844 L 159.488281 154.714844"/><path d="M 168.871094 154.714844 L 159.488281 154.714844 L 159.488281 145.339844 L 168.871094 145.339844 L 168.871094 154.714844"/><path fill="#636363" d="M 178.253906 154.714844 L 168.871094 154.714844 L 168.871094 145.339844 L 178.253906 145.339844 L 178.253906 154.714844"/><path d="M 187.632812 154.714844 L 178.253906 154.714844 L 178.253906 145.339844 L 187.632812 145.339844 L 187.632812 154.714844"/><path fill="#636363" d="M 197.015625 154.714844 L 187.632812 154.714844 L 187.632812 145.339844 L 197.015625 145.339844 L 197.015625 154.714844"/><path d="M 206.398438 154.714844 L 197.015625 154.714844 L 197.015625 145.339844 L 206.398438 145.339844 L 206.398438 154.714844"/><path d="M 215.78125 154.714844 L 206.398438 154.714844 L 206.398438 145.339844 L 215.78125 145.339844 L 215.78125 154.714844"/><path d="M 253.308594 154.714844 L 243.925781 154.714844 L 243.925781 145.339844 L 253.308594 145.339844 L 253.308594 154.714844"/><path d="M 262.6875 154.714844 L 253.308594 154.714844 L 253.308594 145.339844 L 262.6875 145.339844 L 262.6875 154.714844"/><path d="M 272.070312 154.714844 L 262.6875 154.714844 L 262.6875 145.339844 L 272.070312 145.339844 L 272.070312 154.714844"/><path d="M 281.453125 154.714844 L 272.070312 154.714844 L 272.070312 145.339844 L 281.453125 145.339844 L 281.453125 154.714844"/><path d="M 290.835938 154.714844 L 281.453125 154.714844 L 281.453125 145.339844 L 290.835938 145.339844 L 290.835938 154.714844"/><path d="M 300.214844 154.714844 L 290.835938 154.714844 L 290.835938 145.339844 L 300.214844 145.339844 L 300.214844 154.714844"/><path fill="#636363" d="M 309.597656 154.714844 L 300.214844 154.714844 L 300.214844 145.339844 L 309.597656 145.339844 L 309.597656 154.714844"/><path d="M 318.980469 154.714844 L 309.597656 154.714844 L 309.597656 145.339844 L 318.980469 145.339844 L 318.980469 154.714844"/><path fill="#636363" d="M 328.359375 154.714844 L 318.980469 154.714844 L 318.980469 145.339844 L 328.359375 145.339844 L 328.359375 154.714844"/><path d="M 337.742188 154.714844 L 328.359375 154.714844 L 328.359375 145.339844 L 337.742188 145.339844 L 337.742188 154.714844"/><path d="M 347.125 154.714844 L 337.742188 154.714844 L 337.742188 145.339844 L 347.125 145.339844 L 347.125 154.714844"/><path d="M 356.503906 154.714844 L 347.125 154.714844 L 347.125 145.339844 L 356.503906 145.339844 L 356.503906 154.714844"/><path d="M 121.964844 164.089844 L 112.582031 164.089844 L 112.582031 154.714844 L 121.964844 154.714844 L 121.964844 164.089844"/><path d="M 131.34375 164.089844 L 121.964844 164.089844 L 121.964844 154.714844 L 131.34375 154.714844 L 131.34375 164.089844"/><path d="M 140.722656 164.089844 L 131.34375 164.089844 L 131.34375 154.714844 L 140.722656 154.714844 L 140.722656 164.089844"/><path d="M 150.109375 164.089844 L 140.722656 164.089844 L 140.722656 154.714844 L 150.109375 154.714844 L 150.109375 164.089844"/><path d="M 159.488281 164.089844 L 150.109375 164.089844 L 150.109375 154.714844 L 159.488281 154.714844 L 159.488281 164.089844"/><path fill="#636363" d="M 168.871094 164.089844 L 159.488281 164.089844 L 159.488281 154.714844 L 168.871094 154.714844 L 168.871094 164.089844"/><path d="M 178.253906 164.089844 L 168.871094 164.089844 L 168.871094 154.714844 L 178.253906 154.714844 L 178.253906 164.089844"/><path d="M 187.632812 164.089844 L 178.253906 164.089844 L 178.253906 154.714844 L 187.632812 154.714844 L 187.632812 164.089844"/><path d="M 197.015625 164.089844 L 187.632812 164.089844 L 187.632812 154.714844 L 197.015625 154.714844 L 197.015625 164.089844"/><path d="M 206.398438 164.089844 L 197.015625 164.089844 L 197.015625 154.714844 L 206.398438 154.714844 L 206.398438 164.089844"/><path d="M 262.6875 164.089844 L 253.308594 164.089844 L 253.308594 154.714844 L 262.6875 154.714844 L 262.6875 164.089844"/><path d="M 272.070312 164.089844 L 262.6875 164.089844 L 262.6875 154.714844 L 272.070312 154.714844 L 272.070312 164.089844"/><path d="M 281.453125 164.089844 L 272.070312 164.089844 L 272.070312 154.714844 L 281.453125 154.714844 L 281.453125 164.089844"/><path d="M 290.835938 164.089844 L 281.453125 164.089844 L 281.453125 154.714844 L 290.835938 154.714844 L 290.835938 164.089844"/><path d="M 300.214844 164.089844 L 290.835938 164.089844 L 290.835938 154.714844 L 300.214844 154.714844 L 300.214844 164.089844"/><path d="M 309.597656 164.089844 L 300.214844 164.089844 L 300.214844 154.714844 L 309.597656 154.714844 L 309.597656 164.089844"/><path fill="#636363" d="M 318.980469 164.089844 L 309.597656 164.089844 L 309.597656 154.714844 L 318.980469 154.714844 L 318.980469 164.089844"/><path d="M 328.359375 164.089844 L 318.980469 164.089844 L 318.980469 154.714844 L 328.359375 154.714844 L 328.359375 164.089844"/><path d="M 337.742188 164.089844 L 328.359375 164.089844 L 328.359375 154.714844 L 337.742188 154.714844 L 337.742188 164.089844"/><path d="M 347.125 164.089844 L 337.742188 164.089844 L 337.742188 154.714844 L 347.125 154.714844 L 347.125 164.089844"/><path d="M 140.722656 173.464844 L 131.34375 173.464844 L 131.34375 164.089844 L 140.722656 164.089844 L 140.722656 173.464844"/><path d="M 150.109375 173.464844 L 140.722656 173.464844 L 140.722656 164.089844 L 150.109375 164.089844 L 150.109375 173.464844"/><path d="M 159.488281 173.464844 L 150.109375 173.464844 L 150.109375 164.089844 L 159.488281 164.089844 L 159.488281 173.464844"/><path d="M 168.871094 173.464844 L 159.488281 173.464844 L 159.488281 164.089844 L 168.871094 164.089844 L 168.871094 173.464844"/><path d="M 178.253906 173.464844 L 168.871094 173.464844 L 168.871094 164.089844 L 178.253906 164.089844 L 178.253906 173.464844"/><path d="M 187.632812 173.464844 L 178.253906 173.464844 L 178.253906 164.089844 L 187.632812 164.089844 L 187.632812 173.464844"/><path d="M 197.015625 173.464844 L 187.632812 173.464844 L 187.632812 164.089844 L 197.015625 164.089844 L 197.015625 173.464844"/><path d="M 272.070312 173.464844 L 262.6875 173.464844 L 262.6875 164.089844 L 272.070312 164.089844 L 272.070312 173.464844"/><path d="M 281.453125 173.464844 L 272.070312 173.464844 L 272.070312 164.089844 L 281.453125 164.089844 L 281.453125 173.464844"/><path d="M 290.835938 173.464844 L 281.453125 173.464844 L 281.453125 164.089844 L 290.835938 164.089844 L 290.835938 173.464844"/><path d="M 300.214844 173.464844 L 290.835938 173.464844 L 290.835938 164.089844 L 300.214844 164.089844 L 300.214844 173.464844"/><path d="M 309.597656 173.464844 L 300.214844 173.464844 L 300.214844 164.089844 L 309.597656 164.089844 L 309.597656 173.464844"/><path d="M 318.980469 173.464844 L 309.597656 173.464844 L 309.597656 164.089844 L 318.980469 164.089844 L 318.980469 173.464844"/><path d="M 328.359375 173.464844 L 318.980469 173.464844 L 318.980469 164.089844 L 328.359375 164.089844 L 328.359375 173.464844"/></svg>