<svg xmlns="http://www.w3.org/2000/svg" width="1440" viewBox="0 0 1440 810" height="810" version="1.0"><defs><clipPath id="a"><path d="M 1079 348 L 1203.945312 348 L 1203.945312 360 L 1079 360 Z M 1079 348"/></clipPath></defs><path fill="#C7EDE6" d="M 1127.089844 480.488281 C 1139.855469 456.242188 1147.164062 428.679688 1147.164062 399.375 C 1147.164062 324.890625 1100.394531 261.484375 1034.695312 236.496094 C 1034.695312 236.417969 1034.707031 236.339844 1034.707031 236.25 C 1034.707031 105.773438 928.972656 0 798.542969 0 C 688.511719 0 596.328125 75.386719 570.101562 177.265625 C 553.503906 171.808594 535.8125 168.75 517.394531 168.75 C 430.890625 168.75 359.691406 233.921875 349.941406 317.835938 C 291.417969 330.222656 247.492188 382.152344 247.492188 444.375 C 247.492188 515.824219 305.398438 573.75 376.820312 573.75 C 378.808594 573.75 380.777344 573.613281 382.734375 573.503906 C 382.691406 575.472656 382.441406 577.394531 382.441406 579.375 C 382.441406 706.746094 485.65625 810 612.984375 810 C 685.375 810 749.902344 776.566406 792.175781 724.34375 C 816.671875 749.375 850.722656 765 888.507812 765 C 940.800781 765 986.054688 735.1875 1008.457031 691.671875 C 1020.289062 695.441406 1032.871094 697.5 1045.953125 697.5 C 1114.269531 697.5 1169.65625 642.09375 1169.65625 573.75 C 1169.65625 536.5 1153.125 503.179688 1127.089844 480.488281 Z M 1127.089844 480.488281"/><path fill="#FFF" d="M 476.964844 708.75 L 365.574219 708.75 C 362.46875 708.75 359.949219 706.230469 359.949219 703.125 C 359.949219 700.019531 362.46875 697.5 365.574219 697.5 L 476.964844 697.5 C 480.070312 697.5 482.585938 700.019531 482.585938 703.125 C 482.585938 706.230469 480.078125 708.75 476.964844 708.75 Z M 476.964844 708.75"/><path fill="#FFF" d="M 511.769531 708.75 L 500.523438 708.75 C 497.421875 708.75 494.902344 706.230469 494.902344 703.125 C 494.902344 700.019531 497.421875 697.5 500.523438 697.5 L 511.769531 697.5 C 514.875 697.5 517.394531 700.019531 517.394531 703.125 C 517.394531 706.230469 514.886719 708.75 511.769531 708.75 Z M 511.769531 708.75"/><path fill="#FFF" d="M 567.898438 731.25 L 466.785156 731.25 C 463.683594 731.25 461.164062 728.730469 461.164062 725.625 C 461.164062 722.519531 463.683594 720 466.785156 720 L 567.898438 720 C 571.003906 720 573.523438 722.519531 573.523438 725.625 C 573.523438 728.730469 571.003906 731.25 567.898438 731.25 Z M 567.898438 731.25"/><path fill="#FFF" d="M 444.296875 731.25 L 433.050781 731.25 C 429.945312 731.25 427.425781 728.730469 427.425781 725.625 C 427.425781 722.519531 429.945312 720 433.050781 720 L 444.296875 720 C 447.398438 720 449.917969 722.519531 449.917969 725.625 C 449.917969 728.730469 447.410156 731.25 444.296875 731.25 Z M 444.296875 731.25"/><path fill="#FFF" d="M 410.558594 731.25 L 388.066406 731.25 C 384.960938 731.25 382.441406 728.730469 382.441406 725.625 C 382.441406 722.519531 384.960938 720 388.066406 720 L 410.558594 720 C 413.660156 720 416.179688 722.519531 416.179688 725.625 C 416.179688 728.730469 413.671875 731.25 410.558594 731.25 Z M 410.558594 731.25"/><path fill="#FFF" d="M 478.03125 753.75 L 455.542969 753.75 C 452.4375 753.75 449.917969 751.230469 449.917969 748.125 C 449.917969 745.019531 452.4375 742.5 455.542969 742.5 L 478.03125 742.5 C 481.136719 742.5 483.65625 745.019531 483.65625 748.125 C 483.65625 751.230469 481.136719 753.75 478.03125 753.75 Z M 478.03125 753.75"/><path fill="#FFF" d="M 511.769531 652.5 C 509.78125 652.5 502.515625 652.5 500.523438 652.5 C 497.421875 652.5 494.902344 655.019531 494.902344 658.125 C 494.902344 661.230469 497.421875 663.75 500.523438 663.75 C 502.515625 663.75 509.78125 663.75 511.769531 663.75 C 514.875 663.75 517.394531 661.230469 517.394531 658.125 C 517.394531 655.019531 514.875 652.5 511.769531 652.5 Z M 511.769531 652.5"/><path fill="#FFF" d="M 511.769531 675 C 509.78125 675 457.53125 675 455.542969 675 C 452.4375 675 449.917969 677.519531 449.917969 680.625 C 449.917969 683.730469 452.4375 686.25 455.542969 686.25 C 457.53125 686.25 509.78125 686.25 511.769531 686.25 C 514.875 686.25 517.394531 683.730469 517.394531 680.625 C 517.394531 677.519531 514.875 675 511.769531 675 Z M 511.769531 675"/><path fill="#FFF" d="M 568 697.5 C 566.007812 697.5 536.253906 697.5 534.261719 697.5 C 531.160156 697.5 528.640625 700.019531 528.640625 703.125 C 528.640625 706.230469 531.160156 708.75 534.261719 708.75 C 536.253906 708.75 566.007812 708.75 568 708.75 C 571.105469 708.75 573.625 706.230469 573.625 703.125 C 573.625 700.019531 571.105469 697.5 568 697.5 Z M 568 697.5"/><path fill="#FFF" d="M 1096.558594 337.5 L 984.097656 337.5 C 980.996094 337.5 978.476562 334.980469 978.476562 331.875 C 978.476562 328.769531 980.996094 326.25 984.097656 326.25 L 1096.558594 326.25 C 1099.664062 326.25 1102.179688 328.769531 1102.179688 331.875 C 1102.179688 334.980469 1099.664062 337.5 1096.558594 337.5 Z M 1096.558594 337.5"/><path fill="#FFF" d="M 1141.542969 337.5 L 1119.050781 337.5 C 1115.945312 337.5 1113.425781 334.980469 1113.425781 331.875 C 1113.425781 328.769531 1115.945312 326.25 1119.050781 326.25 L 1141.542969 326.25 C 1144.644531 326.25 1147.164062 328.769531 1147.164062 331.875 C 1147.164062 334.980469 1144.644531 337.5 1141.542969 337.5 Z M 1141.542969 337.5"/><g clip-path="url(#a)"><path fill="#FFF" d="M 1197.773438 360 L 1085.3125 360 C 1082.207031 360 1079.6875 357.480469 1079.6875 354.375 C 1079.6875 351.269531 1082.207031 348.75 1085.3125 348.75 L 1197.773438 348.75 C 1200.875 348.75 1203.394531 351.269531 1203.394531 354.375 C 1203.394531 357.480469 1200.886719 360 1197.773438 360 Z M 1197.773438 360"/></g><path fill="#FFF" d="M 1062.820312 360 L 1051.574219 360 C 1048.472656 360 1045.953125 357.480469 1045.953125 354.375 C 1045.953125 351.269531 1048.472656 348.75 1051.574219 348.75 L 1062.820312 348.75 C 1065.925781 348.75 1068.445312 351.269531 1068.445312 354.375 C 1068.445312 357.480469 1065.925781 360 1062.820312 360 Z M 1062.820312 360"/><path fill="#FFF" d="M 1027.675781 360 L 1006.589844 360 C 1003.488281 360 1000.96875 357.480469 1000.96875 354.375 C 1000.96875 351.269531 1003.488281 348.75 1006.589844 348.75 L 1027.675781 348.75 C 1030.78125 348.75 1033.300781 351.269531 1033.300781 354.375 C 1033.300781 357.480469 1030.78125 360 1027.675781 360 Z M 1027.675781 360"/><path fill="#FFF" d="M 1130.296875 315 L 1074.066406 315 C 1070.960938 315 1068.445312 312.480469 1068.445312 309.375 C 1068.445312 306.269531 1070.960938 303.75 1074.066406 303.75 L 1130.296875 303.75 C 1133.398438 303.75 1135.917969 306.269531 1135.917969 309.375 C 1135.917969 312.480469 1133.410156 315 1130.296875 315 Z M 1130.296875 315"/><path fill="#FFF" d="M 1096.558594 382.5 L 1074.066406 382.5 C 1070.960938 382.5 1068.445312 379.980469 1068.445312 376.875 C 1068.445312 373.769531 1070.960938 371.25 1074.066406 371.25 L 1096.558594 371.25 C 1099.664062 371.25 1102.179688 373.769531 1102.179688 376.875 C 1102.179688 379.980469 1099.664062 382.5 1096.558594 382.5 Z M 1096.558594 382.5"/><path fill="#FDFCEF" d="M 493.496094 433.125 C 493.496094 433.125 534.429688 433.125 562.378906 433.125 C 590.324219 433.125 612.984375 410.457031 612.984375 382.5 C 612.984375 356.253906 592.945312 334.921875 567.382812 332.382812 C 567.628906 330.34375 568 328.355469 568 326.25 C 568 298.292969 545.339844 275.625 517.394531 275.625 C 501.222656 275.625 486.996094 283.34375 477.730469 295.15625 C 476.15625 265.5 451.839844 241.875 421.804688 241.875 C 390.753906 241.875 365.574219 267.0625 365.574219 298.125 C 365.574219 303.140625 366.441406 307.914062 367.675781 312.546875 C 360.457031 303.804688 349.671875 298.125 337.457031 298.125 C 317.429688 298.125 301.089844 313.144531 298.605469 332.492188 C 296.570312 332.246094 294.578125 331.875 292.476562 331.875 C 264.527344 331.875 241.867188 354.542969 241.867188 382.5 C 241.867188 410.457031 264.527344 433.125 292.476562 433.125 C 320.421875 433.125 399.3125 433.125 399.3125 433.125 L 459.757812 433.125 L 459.757812 438.75 L 493.496094 438.75 Z M 493.496094 433.125"/><path fill="#472B29" d="M 421.804688 236.25 C 387.695312 236.25 359.949219 264.003906 359.949219 298.125 C 359.949219 298.304688 359.949219 298.472656 359.949219 298.652344 C 353.179688 294.660156 345.445312 292.5 337.457031 292.5 C 316.867188 292.5 299.097656 306.6875 294.070312 326.304688 C 293.542969 326.273438 293.015625 326.25 292.476562 326.25 C 261.46875 326.25 236.246094 351.484375 236.246094 382.5 C 236.246094 413.515625 261.46875 438.75 292.476562 438.75 L 459.757812 438.75 C 462.863281 438.75 465.382812 436.230469 465.382812 433.125 C 465.382812 430.019531 462.863281 427.5 459.757812 427.5 L 292.476562 427.5 C 267.667969 427.5 247.492188 407.316406 247.492188 382.5 C 247.492188 357.683594 267.667969 337.5 292.476562 337.5 C 293.792969 337.5 295.0625 337.691406 296.332031 337.859375 L 297.917969 338.074219 C 298.15625 338.109375 298.378906 338.117188 298.617188 338.117188 C 301.382812 338.117188 303.8125 336.039062 304.183594 333.203125 C 306.332031 316.40625 320.636719 303.75 337.457031 303.75 C 347.410156 303.75 356.835938 308.261719 363.335938 316.125 C 364.4375 317.453125 366.046875 318.171875 367.675781 318.171875 C 368.554688 318.171875 369.429688 317.96875 370.242188 317.542969 C 372.589844 316.339844 373.773438 313.648438 373.097656 311.097656 C 371.804688 306.203125 371.195312 302.085938 371.195312 298.125 C 371.195312 270.214844 393.902344 247.5 421.804688 247.5 C 448.578125 247.5 470.6875 268.558594 472.117188 295.457031 C 472.242188 297.796875 473.804688 299.8125 476.042969 300.519531 C 476.605469 300.703125 477.179688 300.792969 477.75 300.792969 C 479.4375 300.792969 481.082031 300.015625 482.160156 298.632812 C 490.832031 287.582031 503.664062 281.25 517.394531 281.25 C 542.203125 281.25 562.378906 301.433594 562.378906 326.25 C 562.378906 327.566406 562.1875 328.835938 562.015625 330.109375 L 561.804688 331.695312 C 561.625 333.203125 562.050781 334.710938 562.996094 335.890625 C 563.941406 337.074219 565.324219 337.828125 566.820312 337.972656 C 589.941406 340.277344 607.359375 359.425781 607.359375 382.5 C 607.359375 407.316406 587.1875 427.5 562.378906 427.5 L 493.496094 427.5 C 490.390625 427.5 487.875 430.019531 487.875 433.125 C 487.875 436.230469 490.390625 438.75 493.496094 438.75 L 562.378906 438.75 C 593.382812 438.75 618.605469 413.515625 618.605469 382.5 C 618.605469 355.535156 599.613281 332.855469 573.589844 327.632812 C 573.613281 327.171875 573.625 326.710938 573.625 326.25 C 573.625 295.234375 548.398438 270 517.394531 270 C 504.167969 270 491.605469 274.679688 481.597656 283.09375 C 474.871094 256.050781 450.535156 236.25 421.804688 236.25 Z M 421.804688 236.25"/><path fill="#472B29" d="M 404.933594 315 C 389.15625 315 375.59375 326.238281 372.175781 341.335938 C 368.046875 338.839844 363.335938 337.5 358.546875 337.5 C 345.027344 337.5 333.828125 347.589844 332.082031 360.765625 C 329.800781 360.246094 327.628906 360 325.503906 360 C 308.308594 360 293.890625 373.5 292.6875 390.734375 C 292.585938 392.289062 293.757812 393.636719 295.296875 393.75 C 295.367188 393.75 295.433594 393.75 295.5 393.75 C 296.960938 393.75 298.199219 392.613281 298.300781 391.140625 C 299.300781 376.839844 311.246094 365.625 325.503906 365.625 C 328.078125 365.625 330.789062 366.097656 333.804688 367.054688 C 334.050781 367.132812 334.308594 367.167969 334.558594 367.167969 C 335.175781 367.167969 335.792969 366.941406 336.3125 366.558594 C 337.03125 366.042969 337.457031 365.117188 337.457031 364.21875 C 337.457031 352.585938 346.917969 343.125 358.546875 343.125 C 363.570312 343.125 368.496094 345.015625 372.390625 348.445312 C 372.917969 348.90625 373.582031 349.15625 374.246094 349.15625 C 374.605469 349.15625 374.953125 349.085938 375.289062 348.941406 C 376.28125 348.546875 376.953125 347.625 377.035156 346.554688 C 378.203125 332.011719 390.449219 320.625 404.933594 320.625 C 407.273438 320.625 409.714844 321.007812 412.605469 321.828125 C 412.863281 321.90625 413.132812 321.941406 413.390625 321.941406 C 414.617188 321.941406 415.71875 321.121094 416.078125 319.894531 C 416.507812 318.398438 415.640625 316.84375 414.144531 316.417969 C 410.75 315.449219 407.8125 315 404.933594 315 Z M 404.933594 315"/><path fill="#472B29" d="M 561.0625 331.875 C 546.148438 331.875 532.855469 341.964844 528.742188 356.421875 C 528.3125 357.917969 529.179688 359.472656 530.675781 359.898438 C 530.945312 359.964844 531.203125 360 531.449219 360 C 532.675781 360 533.800781 359.191406 534.148438 357.953125 C 537.578125 345.914062 548.644531 337.5 561.0625 337.5 C 562.378906 337.5 563.648438 337.65625 564.90625 337.828125 C 565.042969 337.847656 565.167969 337.859375 565.300781 337.859375 C 566.660156 337.859375 567.875 336.824219 568.066406 335.417969 C 568.28125 333.878906 567.203125 332.460938 565.660156 332.257812 C 564.152344 332.054688 562.625 331.875 561.0625 331.875 Z M 561.0625 331.875"/><path fill="#F6CCA4" d="M 560.320312 654.582031 C 560.320312 654.582031 510.734375 534.046875 510.734375 386.730469 C 510.734375 239.410156 684.273438 118.878906 771.035156 132.277344 C 857.796875 145.664062 979.691406 338.75 956.960938 547.449219 C 952.835938 585.394531 919.773438 667.980469 919.773438 667.980469 L 635.722656 667.980469 C 573.746094 626.679688 531.394531 549.675781 531.394531 549.675781"/><path fill="#472B29" d="M 919.773438 675.84375 L 635.710938 675.84375 C 634.160156 675.84375 632.640625 675.382812 631.347656 674.527344 C 595.214844 650.441406 565.910156 615.128906 547.171875 588.8125 C 557.800781 627.433594 567.371094 651.046875 567.585938 651.578125 C 569.226562 655.605469 567.324219 660.207031 563.300781 661.859375 C 559.25 663.535156 554.664062 661.601562 553.019531 657.574219 C 552.515625 656.359375 502.851562 533.902344 502.851562 386.730469 C 502.851562 318.488281 539.796875 247.65625 604.199219 192.410156 C 660.53125 144.089844 726.511719 117.359375 772.214844 124.492188 C 864.914062 138.792969 988.070312 334.351562 964.777344 548.300781 C 960.574219 586.878906 928.441406 667.496094 927.058594 670.894531 C 925.890625 673.875 922.988281 675.84375 919.773438 675.84375 Z M 638.117188 660.09375 L 914.398438 660.09375 C 921.492188 641.847656 945.726562 577.800781 949.125 546.582031 C 971.132812 344.496094 854.648438 153.136719 769.832031 140.039062 C 729.03125 133.773438 666.617188 159.59375 614.457031 204.355469 C 553.550781 256.613281 518.621094 323.089844 518.621094 386.730469 C 518.621094 444.972656 526.558594 499.242188 536.039062 543.308594 C 536.949219 543.972656 537.726562 544.828125 538.300781 545.871094 C 538.703125 546.613281 579.570312 620.066406 638.117188 660.09375 Z M 638.117188 660.09375"/><path fill="#F4989E" d="M 704.425781 338.613281 C 704.425781 338.613281 665.683594 286.941406 614.042969 299.859375 C 562.398438 312.773438 575.300781 377.359375 575.300781 403.199219 C 575.300781 429.03125 601.121094 441.957031 639.863281 429.03125 C 678.605469 416.113281 704.425781 338.613281 704.425781 338.613281 Z M 704.425781 338.613281"/><path fill="#F4989E" d="M 833.550781 235.269531 C 833.550781 235.269531 749.871094 277.628906 781.898438 325.6875 C 807.71875 364.445312 836.238281 373.589844 862.058594 373.589844 C 887.878906 373.589844 923.933594 364.445312 911.023438 338.601562 C 898.113281 312.773438 859.371094 235.269531 833.550781 235.269531 Z M 833.550781 235.269531"/><path fill="#472B29" d="M 781.910156 331.3125 C 780.097656 331.3125 778.320312 330.433594 777.230469 328.804688 C 769.886719 317.789062 767.425781 306.125 769.921875 294.140625 C 770.550781 291.09375 773.574219 289.125 776.566406 289.777344 C 779.613281 290.40625 781.558594 293.390625 780.929688 296.425781 C 779.050781 305.484375 780.898438 314.019531 786.597656 322.558594 C 788.320312 325.136719 787.621094 328.636719 785.035156 330.355469 C 784.066406 331.007812 782.976562 331.3125 781.910156 331.3125 Z M 781.910156 331.3125"/><path fill="#472B29" d="M 862.058594 379.226562 C 835.53125 379.226562 813.308594 369.664062 794.144531 350 C 791.984375 347.78125 792.03125 344.214844 794.257812 342.046875 C 796.460938 339.886719 800.027344 339.929688 802.207031 342.15625 C 819.367188 359.765625 838.398438 367.976562 862.058594 367.976562 C 879.367188 367.976562 900.699219 363.609375 906.613281 354.027344 C 908.773438 350.515625 908.582031 346.296875 905.984375 341.132812 C 866.207031 261.515625 845.402344 242.359375 834.785156 240.984375 C 829.1875 244.023438 806.796875 256.769531 792.445312 274.320312 C 790.476562 276.738281 786.9375 277.085938 784.539062 275.109375 C 782.132812 273.140625 781.785156 269.605469 783.753906 267.199219 C 801.691406 245.25 829.828125 230.871094 831.007812 230.265625 C 831.796875 229.871094 832.660156 229.65625 833.550781 229.65625 C 859.539062 229.65625 891.285156 286.546875 916.050781 336.105469 C 921.539062 347.109375 919.152344 355.140625 916.183594 359.953125 C 907.402344 374.164062 882.46875 379.226562 862.058594 379.226562 Z M 862.058594 379.226562"/><path fill="#472B29" d="M 652.300781 597.25 C 652.300781 597.25 691.164062 546.738281 691.210938 495.066406 C 691.253906 446.738281 716.457031 363.285156 792.1875 393.804688 C 855.953125 419.5 897.640625 455.164062 910.550781 480.992188 C 923.460938 506.824219 911.539062 531.789062 872.796875 531.789062 C 834.066406 531.789062 744.132812 646.839844 652.300781 597.25 Z M 652.300781 597.25"/><path fill="#472B29" d="M 700.746094 615.339844 C 684.035156 615.339844 666.898438 611.515625 649.632812 602.203125 C 648.183594 601.414062 647.148438 600.042969 646.800781 598.421875 C 646.464844 596.800781 646.84375 595.125 647.847656 593.820312 C 648.21875 593.324219 685.554688 544.164062 685.597656 495.066406 C 685.621094 467.371094 694.617188 414.4375 728.222656 391.746094 C 746.5625 379.359375 768.808594 378.316406 794.289062 388.585938 C 864.871094 417.039062 903.746094 454.804688 915.589844 478.484375 C 922.785156 492.875 923.011719 507.429688 916.230469 518.421875 C 908.660156 530.664062 893.242188 537.414062 872.808594 537.414062 C 861.890625 537.414062 844.054688 549.496094 823.394531 563.480469 C 789.667969 586.316406 746.800781 615.339844 700.746094 615.339844 Z M 660.722656 595.171875 C 717.707031 621.507812 774.925781 582.714844 817.085938 554.152344 C 840.183594 538.503906 858.4375 526.152344 872.796875 526.152344 C 889.195312 526.152344 901.207031 521.300781 906.660156 512.503906 C 911.417969 504.789062 911.023438 494.492188 905.523438 483.515625 C 893.691406 459.84375 853.410156 424.542969 790.085938 399.015625 C 768.265625 390.238281 749.554688 390.902344 734.507812 401.074219 C 708.652344 418.523438 696.855469 462.039062 696.832031 495.066406 C 696.800781 538.59375 670.878906 580.445312 660.722656 595.171875 Z M 660.722656 595.171875"/><path fill="#472B29" d="M 704.425781 344.238281 C 702.152344 344.238281 700.003906 342.84375 699.160156 340.59375 C 659.8125 235.621094 527.335938 234.40625 526.007812 234.40625 C 522.902344 234.40625 520.386719 231.886719 520.386719 228.78125 C 520.386719 225.675781 522.902344 223.15625 526.007812 223.15625 C 527.425781 223.15625 667.640625 224.449219 709.6875 336.644531 C 710.789062 339.558594 709.316406 342.796875 706.402344 343.890625 C 705.75 344.125 705.078125 344.238281 704.425781 344.238281 Z M 704.425781 344.238281"/><path fill="#472B29" d="M 743.449219 292.566406 C 740.34375 292.566406 737.824219 290.046875 737.824219 286.941406 C 737.824219 285.886719 739.195312 180.855469 857.617188 136.429688 C 860.507812 135.304688 863.769531 136.8125 864.859375 139.714844 C 865.960938 142.628906 864.488281 145.867188 861.574219 146.957031 C 750.351562 188.695312 749.070312 285.964844 749.070312 286.941406 C 749.070312 290.046875 746.550781 292.566406 743.449219 292.566406 Z M 743.449219 292.566406"/><path fill="#472B29" d="M 741.34375 281.058594 C 738.792969 281.058594 736.488281 279.328125 735.878906 276.738281 C 718.761719 205.007812 752.445312 168.390625 753.882812 166.859375 C 756.03125 164.609375 759.550781 164.519531 761.8125 166.636719 C 764.0625 168.75 764.175781 172.304688 762.058594 174.578125 C 760.800781 175.925781 731.191406 208.640625 746.820312 274.117188 C 747.542969 277.144531 745.675781 280.171875 742.660156 280.902344 C 742.210938 281.015625 741.773438 281.058594 741.34375 281.058594 Z M 741.34375 281.058594"/><path fill="#FDFDFD" d="M 795.347656 446.253906 C 832.335938 446.253906 822.742188 410.027344 821.808594 406.742188 C 812.644531 402.152344 803.085938 397.675781 792.660156 393.503906 C 773.957031 386.019531 758.359375 385.222656 745.425781 388.96875 C 745.347656 389.023438 745.257812 389.046875 745.179688 389.105469 C 745.179688 389.113281 756.617188 446.253906 795.347656 446.253906 Z M 795.347656 446.253906"/><path fill="#472B29" d="M 795.347656 451.878906 C 752.488281 451.878906 740.175781 392.738281 739.667969 390.21875 C 739.230469 388.058594 740.109375 385.820312 741.90625 384.535156 C 742.4375 384.175781 743.246094 383.75 743.863281 383.570312 C 758.898438 379.226562 776.027344 380.789062 794.75 388.292969 C 804.222656 392.085938 813.609375 396.347656 824.316406 401.714844 C 825.722656 402.421875 826.769531 403.683594 827.207031 405.191406 C 828.242188 408.792969 832.929688 427.398438 823.214844 440.324219 C 817.445312 447.984375 808.066406 451.878906 795.347656 451.878906 Z M 752.007812 393.210938 C 755.773438 406.496094 768.121094 440.628906 795.347656 440.628906 C 804.34375 440.628906 810.6875 438.242188 814.21875 433.550781 C 819.527344 426.511719 817.972656 415.417969 816.960938 410.613281 C 807.492188 405.933594 799.046875 402.132812 790.578125 398.722656 C 776.363281 393.050781 763.441406 391.183594 752.007812 393.210938 Z M 752.007812 393.210938"/><path fill="#FDFDFD" d="M 872.292969 532.371094 C 879.578125 532.371094 885.652344 531.214844 891.117188 529.546875 C 886.179688 517.816406 868.683594 481.09375 846.875 491.996094 C 821.054688 504.910156 821.855469 554.164062 821.855469 554.164062 C 821.855469 554.164062 806.121094 517.835938 780.289062 530.753906 C 754.46875 543.667969 756.078125 596.957031 756.078125 596.957031 C 756.078125 596.957031 743.167969 545.289062 717.335938 558.203125 C 691.515625 571.117188 677.457031 606.554688 677.457031 606.554688 C 678.3125 606.960938 679.234375 607.230469 680.097656 607.613281 C 760.890625 626.1875 837.464844 532.371094 872.292969 532.371094 Z M 872.292969 532.371094"/><path fill="#472B29" d="M 701.601562 615.65625 C 694.066406 615.65625 686.476562 614.867188 678.851562 613.101562 L 676.941406 612.40625 C 676.296875 612.167969 675.667969 611.921875 675.0625 611.640625 C 672.386719 610.367188 671.148438 607.230469 672.238281 604.472656 C 672.847656 602.945312 687.398438 566.886719 714.828125 553.164062 C 721.441406 549.855469 728.222656 549.652344 734.449219 552.5 C 742.085938 556.019531 747.96875 563.703125 752.277344 571.65625 C 754.996094 554.558594 761.65625 533.777344 777.78125 525.710938 C 785.484375 521.863281 793.15625 521.28125 800.644531 524.023438 C 807.550781 526.546875 813.171875 531.574219 817.433594 536.671875 C 819.695312 519.953125 826.117188 496.078125 844.359375 486.957031 C 850.476562 483.90625 856.785156 483.535156 863.105469 485.863281 C 879.308594 491.859375 890.859375 514.429688 896.300781 527.355469 C 896.921875 528.828125 896.886719 530.484375 896.210938 531.921875 C 895.527344 533.375 894.277344 534.464844 892.75 534.925781 C 885.867188 537.019531 879.367188 537.984375 872.292969 537.984375 C 861.40625 537.984375 843.605469 550.101562 822.980469 564.121094 C 790.308594 586.359375 747.238281 615.65625 701.601562 615.65625 Z M 685.214844 603.066406 C 707.011719 607.273438 728.703125 602.765625 749.429688 594.144531 C 746.339844 584.234375 739.265625 567.101562 729.738281 562.726562 C 726.601562 561.285156 723.441406 561.441406 719.855469 563.230469 C 702.117188 572.109375 690.140625 593.03125 685.214844 603.066406 Z M 791.277344 533.609375 C 788.519531 533.609375 785.722656 534.328125 782.808594 535.792969 C 767.222656 543.578125 762.632812 571.578125 761.8125 588.519531 C 781.179688 578.9375 799.519531 566.503906 816.117188 555.210938 C 814.117188 551.195312 807.066406 538.335938 796.777344 534.601562 C 794.953125 533.9375 793.121094 533.609375 791.277344 533.609375 Z M 854.929688 495.628906 C 853.085938 495.628906 851.261719 496.089844 849.382812 497.035156 C 833.449219 505.011719 828.578125 531.890625 827.644531 547.414062 C 845.617188 535.421875 860.304688 526.757812 872.292969 526.757812 C 876.058594 526.757812 879.625 526.433594 883.222656 525.734375 C 878.535156 515.96875 869.605469 500.289062 859.191406 496.441406 C 857.730469 495.890625 856.324219 495.628906 854.929688 495.628906 Z M 854.929688 495.628906"/><path fill="#FDFDFD" d="M 743.167969 467.785156 C 766.761719 455.984375 746.136719 399.769531 742.378906 390.105469 C 721.496094 397.597656 707.988281 417.328125 700.21875 440.019531 C 701.21875 442.328125 718.121094 480.308594 743.167969 467.785156 Z M 743.167969 467.785156"/><path fill="#472B29" d="M 733.101562 475.953125 C 730.054688 475.953125 726.996094 475.402344 723.96875 474.300781 C 706.550781 467.953125 696.171875 444.859375 695.054688 442.25 C 694.496094 440.964844 694.4375 439.515625 694.898438 438.199219 C 704.355469 410.589844 720.113281 392.128906 740.480469 384.816406 C 743.359375 383.804688 746.519531 385.234375 747.621094 388.078125 C 754.007812 404.539062 772.765625 459.28125 745.675781 472.828125 C 741.503906 474.90625 737.296875 475.953125 733.101562 475.953125 Z M 706.28125 439.738281 C 709.980469 447.457031 718.132812 460.179688 727.828125 463.726562 C 732.03125 465.277344 736.25 464.941406 740.648438 462.757812 C 753.558594 456.300781 749.125 425.476562 739.164062 397.585938 C 721.730469 406.269531 711.769531 424.585938 706.28125 439.738281 Z M 706.28125 439.738281"/><path fill="#472B29" d="M 507.316406 603.066406 C 505.203125 603.066406 503.15625 601.863281 502.210938 599.792969 C 481.382812 554.570312 476.660156 429.648438 500.152344 358.921875 C 501.132812 355.984375 504.269531 354.363281 507.273438 355.363281 C 510.21875 356.34375 511.804688 359.527344 510.824219 362.484375 C 488.46875 429.761719 492.832031 552.566406 512.421875 595.101562 C 513.714844 597.925781 512.492188 601.265625 509.667969 602.5625 C 508.914062 602.910156 508.117188 603.066406 507.316406 603.066406 Z M 507.316406 603.066406"/><path fill="#472B29" d="M 562.804688 655.15625 C 560.710938 655.15625 558.710938 653.984375 557.742188 651.984375 C 534.375 603.527344 502.4375 499.554688 510.253906 411.671875 C 510.523438 408.566406 513.457031 406.28125 516.347656 406.5625 C 519.441406 406.832031 521.734375 409.578125 521.453125 412.660156 C 513.828125 498.285156 545.035156 599.769531 567.863281 647.089844 C 569.214844 649.890625 568.046875 653.253906 565.257812 654.605469 C 564.46875 654.984375 563.625 655.15625 562.804688 655.15625 Z M 562.804688 655.15625"/><path fill="#1F212B" d="M 619.988281 381.984375 C 619.988281 382.667969 619.957031 383.347656 619.890625 384.03125 C 619.824219 384.710938 619.722656 385.386719 619.589844 386.058594 C 619.457031 386.730469 619.289062 387.390625 619.089844 388.046875 C 618.890625 388.703125 618.664062 389.34375 618.402344 389.976562 C 618.140625 390.609375 617.847656 391.226562 617.523438 391.832031 C 617.203125 392.433594 616.851562 393.019531 616.46875 393.589844 C 616.089844 394.15625 615.683594 394.707031 615.25 395.234375 C 614.816406 395.765625 614.355469 396.269531 613.875 396.753906 C 613.390625 397.238281 612.882812 397.699219 612.355469 398.132812 C 611.828125 398.566406 611.277344 398.972656 610.707031 399.351562 C 610.140625 399.734375 609.554688 400.085938 608.949219 400.40625 C 608.347656 400.730469 607.730469 401.023438 607.097656 401.285156 C 606.464844 401.546875 605.824219 401.777344 605.167969 401.972656 C 604.515625 402.171875 603.851562 402.339844 603.179688 402.472656 C 602.511719 402.605469 601.835938 402.707031 601.152344 402.773438 C 600.472656 402.839844 599.789062 402.875 599.105469 402.875 C 598.421875 402.875 597.738281 402.839844 597.058594 402.773438 C 596.378906 402.707031 595.703125 402.605469 595.03125 402.472656 C 594.363281 402.339844 593.699219 402.171875 593.042969 401.972656 C 592.390625 401.777344 591.746094 401.546875 591.113281 401.285156 C 590.484375 401.023438 589.863281 400.730469 589.261719 400.40625 C 588.660156 400.085938 588.074219 399.734375 587.503906 399.351562 C 586.933594 398.972656 586.386719 398.566406 585.859375 398.132812 C 585.328125 397.699219 584.824219 397.238281 584.339844 396.753906 C 583.855469 396.269531 583.398438 395.765625 582.964844 395.234375 C 582.527344 394.707031 582.121094 394.15625 581.742188 393.589844 C 581.363281 393.019531 581.011719 392.433594 580.6875 391.832031 C 580.367188 391.226562 580.074219 390.609375 579.8125 389.976562 C 579.550781 389.34375 579.320312 388.703125 579.121094 388.046875 C 578.921875 387.390625 578.757812 386.730469 578.625 386.058594 C 578.492188 385.386719 578.390625 384.710938 578.324219 384.03125 C 578.257812 383.347656 578.222656 382.667969 578.222656 381.984375 C 578.222656 381.296875 578.257812 380.617188 578.324219 379.933594 C 578.390625 379.253906 578.492188 378.578125 578.625 377.90625 C 578.757812 377.234375 578.921875 376.574219 579.121094 375.917969 C 579.320312 375.261719 579.550781 374.621094 579.8125 373.988281 C 580.074219 373.355469 580.367188 372.738281 580.6875 372.132812 C 581.011719 371.53125 581.363281 370.945312 581.742188 370.375 C 582.121094 369.808594 582.527344 369.257812 582.964844 368.730469 C 583.398438 368.199219 583.855469 367.695312 584.339844 367.210938 C 584.824219 366.726562 585.328125 366.265625 585.859375 365.832031 C 586.386719 365.398438 586.933594 364.992188 587.503906 364.613281 C 588.074219 364.230469 588.660156 363.878906 589.261719 363.558594 C 589.863281 363.234375 590.484375 362.941406 591.113281 362.679688 C 591.746094 362.417969 592.390625 362.191406 593.042969 361.992188 C 593.699219 361.792969 594.359375 361.625 595.03125 361.492188 C 595.703125 361.359375 596.378906 361.257812 597.058594 361.191406 C 597.738281 361.125 598.421875 361.089844 599.105469 361.089844 C 599.789062 361.089844 600.472656 361.125 601.152344 361.191406 C 601.835938 361.257812 602.511719 361.359375 603.179688 361.492188 C 603.851562 361.625 604.515625 361.792969 605.167969 361.992188 C 605.824219 362.191406 606.464844 362.417969 607.097656 362.679688 C 607.730469 362.941406 608.347656 363.234375 608.949219 363.558594 C 609.554688 363.878906 610.140625 364.230469 610.707031 364.613281 C 611.277344 364.992188 611.828125 365.398438 612.355469 365.832031 C 612.882812 366.265625 613.390625 366.726562 613.875 367.210938 C 614.355469 367.695312 614.816406 368.199219 615.25 368.730469 C 615.683594 369.257812 616.089844 369.808594 616.46875 370.375 C 616.851562 370.945312 617.203125 371.53125 617.523438 372.132812 C 617.847656 372.738281 618.136719 373.355469 618.398438 373.988281 C 618.660156 374.621094 618.890625 375.261719 619.089844 375.917969 C 619.289062 376.574219 619.457031 377.234375 619.589844 377.90625 C 619.722656 378.578125 619.824219 379.253906 619.890625 379.933594 C 619.957031 380.617188 619.988281 381.296875 619.988281 381.984375 Z M 619.988281 381.984375"/><path fill="#1F212B" d="M 860.179688 277.503906 C 860.179688 278.1875 860.148438 278.871094 860.078125 279.550781 C 860.011719 280.230469 859.914062 280.910156 859.777344 281.578125 C 859.644531 282.25 859.480469 282.914062 859.28125 283.566406 C 859.082031 284.222656 858.851562 284.867188 858.589844 285.5 C 858.328125 286.128906 858.035156 286.75 857.714844 287.351562 C 857.390625 287.957031 857.039062 288.542969 856.660156 289.109375 C 856.28125 289.679688 855.875 290.226562 855.441406 290.757812 C 855.007812 291.285156 854.546875 291.792969 854.0625 292.277344 C 853.582031 292.761719 853.074219 293.21875 852.546875 293.652344 C 852.015625 294.085938 851.46875 294.492188 850.898438 294.875 C 850.332031 295.253906 849.746094 295.605469 849.140625 295.929688 C 848.539062 296.25 847.921875 296.542969 847.289062 296.804688 C 846.65625 297.066406 846.011719 297.296875 845.359375 297.496094 C 844.703125 297.695312 844.042969 297.859375 843.371094 297.992188 C 842.699219 298.128906 842.023438 298.226562 841.34375 298.292969 C 840.664062 298.363281 839.980469 298.394531 839.296875 298.394531 C 838.613281 298.394531 837.929688 298.363281 837.25 298.292969 C 836.570312 298.226562 835.894531 298.128906 835.222656 297.992188 C 834.550781 297.859375 833.890625 297.695312 833.234375 297.496094 C 832.578125 297.296875 831.9375 297.066406 831.304688 296.804688 C 830.671875 296.542969 830.054688 296.25 829.453125 295.929688 C 828.847656 295.605469 828.261719 295.253906 827.695312 294.875 C 827.125 294.492188 826.578125 294.085938 826.046875 293.652344 C 825.519531 293.21875 825.011719 292.761719 824.53125 292.277344 C 824.046875 291.792969 823.585938 291.285156 823.152344 290.757812 C 822.71875 290.226562 822.3125 289.679688 821.933594 289.109375 C 821.550781 288.542969 821.203125 287.957031 820.878906 287.351562 C 820.554688 286.75 820.265625 286.128906 820.003906 285.5 C 819.742188 284.867188 819.511719 284.222656 819.3125 283.566406 C 819.113281 282.914062 818.949219 282.25 818.8125 281.578125 C 818.679688 280.910156 818.582031 280.230469 818.511719 279.550781 C 818.445312 278.871094 818.414062 278.1875 818.414062 277.503906 C 818.414062 276.820312 818.445312 276.136719 818.511719 275.457031 C 818.582031 274.773438 818.679688 274.097656 818.8125 273.429688 C 818.949219 272.757812 819.113281 272.09375 819.3125 271.4375 C 819.511719 270.785156 819.742188 270.140625 820.003906 269.507812 C 820.265625 268.875 820.554688 268.257812 820.878906 267.65625 C 821.203125 267.050781 821.550781 266.464844 821.933594 265.898438 C 822.3125 265.328125 822.71875 264.78125 823.152344 264.25 C 823.585938 263.722656 824.046875 263.214844 824.53125 262.730469 C 825.011719 262.246094 825.519531 261.789062 826.046875 261.355469 C 826.578125 260.921875 827.125 260.511719 827.695312 260.132812 C 828.261719 259.753906 828.847656 259.402344 829.453125 259.078125 C 830.054688 258.757812 830.671875 258.464844 831.304688 258.203125 C 831.9375 257.941406 832.578125 257.710938 833.234375 257.511719 C 833.890625 257.3125 834.550781 257.148438 835.222656 257.015625 C 835.894531 256.878906 836.570312 256.78125 837.25 256.714844 C 837.929688 256.644531 838.613281 256.613281 839.296875 256.613281 C 839.980469 256.613281 840.664062 256.644531 841.34375 256.714844 C 842.023438 256.78125 842.699219 256.878906 843.371094 257.015625 C 844.042969 257.148438 844.703125 257.3125 845.359375 257.511719 C 846.011719 257.710938 846.65625 257.941406 847.289062 258.203125 C 847.921875 258.464844 848.539062 258.757812 849.140625 259.078125 C 849.746094 259.402344 850.332031 259.753906 850.898438 260.132812 C 851.46875 260.511719 852.015625 260.921875 852.546875 261.355469 C 853.074219 261.789062 853.578125 262.246094 854.0625 262.730469 C 854.546875 263.214844 855.007812 263.722656 855.441406 264.25 C 855.875 264.78125 856.28125 265.328125 856.660156 265.898438 C 857.039062 266.464844 857.390625 267.050781 857.714844 267.65625 C 858.035156 268.257812 858.328125 268.875 858.589844 269.507812 C 858.851562 270.140625 859.082031 270.785156 859.28125 271.4375 C 859.480469 272.09375 859.644531 272.757812 859.777344 273.429688 C 859.914062 274.097656 860.011719 274.773438 860.078125 275.457031 C 860.148438 276.136719 860.179688 276.820312 860.179688 277.503906 Z M 860.179688 277.503906"/><path fill="#472B29" d="M 611.78125 439.730469 C 598.195312 439.730469 587.0625 435.78125 579.527344 428.289062 C 573.09375 421.886719 569.6875 413.203125 569.6875 403.199219 C 569.6875 399.5 569.417969 394.988281 569.101562 389.925781 C 567.222656 358.75 564.085938 306.5625 612.679688 294.402344 C 667.257812 280.789062 707.246094 333.011719 708.933594 335.238281 C 710.035156 336.710938 710.351562 338.648438 709.765625 340.390625 C 709.550781 341.019531 704.527344 355.996094 695.539062 374.050781 C 694.167969 376.839844 690.761719 377.976562 688.003906 376.582031 C 685.226562 375.210938 684.09375 371.824219 685.476562 369.046875 C 691.828125 356.242188 696.203125 344.859375 698.070312 339.726562 C 690.019531 330.253906 656.71875 294.929688 615.390625 305.324219 C 575.859375 315.214844 578.550781 359.773438 580.316406 389.25 C 580.628906 394.570312 580.921875 399.320312 580.921875 403.199219 C 580.921875 410.253906 583.113281 416.015625 587.445312 420.3125 C 592.875 425.699219 601.636719 428.523438 612.105469 428.480469 C 612.117188 428.480469 612.128906 428.480469 612.140625 428.480469 C 615.222656 428.480469 617.742188 430.976562 617.761719 434.070312 C 617.785156 437.175781 615.277344 439.707031 612.175781 439.730469 C 612.050781 439.730469 611.902344 439.730469 611.78125 439.730469 Z M 611.78125 439.730469"/><path fill="#472B29" d="M 639.863281 434.65625 C 637.511719 434.65625 635.316406 433.160156 634.519531 430.808594 C 633.542969 427.859375 635.136719 424.675781 638.074219 423.6875 C 648.601562 420.175781 659.328125 410.714844 669.96875 395.550781 C 671.753906 392.996094 675.285156 392.390625 677.792969 394.175781 C 680.347656 395.953125 680.953125 399.476562 679.167969 402.007812 C 667.109375 419.1875 654.480469 430.078125 641.628906 434.363281 C 641.042969 434.566406 640.445312 434.65625 639.863281 434.65625 Z M 639.863281 434.65625"/><path fill="#472B29" d="M 640.875 635.523438 C 640.253906 635.523438 639.648438 635.320312 639.128906 634.917969 C 626.828125 625.207031 615.46875 614.621094 605.371094 603.484375 C 604.324219 602.324219 604.414062 600.546875 605.574219 599.5 C 606.71875 598.445312 608.496094 598.546875 609.554688 599.703125 C 619.4375 610.617188 630.5625 620.976562 642.628906 630.496094 C 643.84375 631.460938 644.054688 633.230469 643.089844 634.453125 C 642.527344 635.164062 641.71875 635.523438 640.875 635.523438 Z M 640.875 635.523438"/><path fill="#472B29" d="M 589.863281 582.703125 C 588.996094 582.703125 588.128906 582.300781 587.578125 581.535156 C 541.359375 517.488281 544.035156 455.578125 544.070312 454.960938 C 544.160156 453.410156 545.710938 452.285156 547.027344 452.296875 C 548.578125 452.386719 549.769531 453.703125 549.691406 455.253906 C 549.65625 455.859375 547.128906 515.890625 592.144531 578.25 C 593.046875 579.511719 592.765625 581.277344 591.503906 582.1875 C 591.019531 582.523438 590.4375 582.703125 589.863281 582.703125 Z M 589.863281 582.703125"/><path fill="#FDFCEF" d="M 1040.328125 714.375 C 1040.328125 714.375 1057.949219 714.375 1079.6875 714.375 C 1101.429688 714.375 1119.050781 696.746094 1119.050781 675 C 1119.050781 654.964844 1104.035156 638.617188 1084.695312 636.132812 C 1085.007812 634.117188 1085.3125 632.105469 1085.3125 630 C 1085.3125 608.253906 1067.691406 590.625 1045.953125 590.625 C 1034.347656 590.625 1024.023438 595.742188 1016.824219 603.730469 C 1012.507812 583.390625 994.480469 568.125 972.851562 568.125 C 948.011719 568.125 927.871094 588.273438 927.871094 613.125 C 927.871094 615.273438 928.207031 617.332031 928.5 619.402344 C 923.6875 615.53125 917.660156 613.125 911 613.125 C 897.191406 613.125 885.753906 623.105469 883.390625 636.242188 C 881.378906 635.929688 879.367188 635.625 877.261719 635.625 C 855.523438 635.625 837.902344 653.253906 837.902344 675 C 837.902344 696.746094 855.523438 714.375 877.261719 714.375 C 899 714.375 961.605469 714.375 961.605469 714.375 L 961.605469 720 L 1040.328125 720 Z M 1040.328125 714.375"/><path fill="#472B29" d="M 1060.007812 663.75 C 1058.457031 663.75 1057.199219 662.488281 1057.199219 660.9375 C 1057.199219 647.179688 1068.386719 635.984375 1082.140625 635.984375 C 1082.523438 636.085938 1090.429688 635.972656 1096.132812 637.515625 C 1097.625 637.921875 1098.515625 639.460938 1098.109375 640.957031 C 1097.707031 642.464844 1096.164062 643.355469 1094.667969 642.9375 C 1089.675781 641.585938 1082.296875 641.585938 1082.152344 641.609375 C 1071.492188 641.609375 1062.820312 650.285156 1062.820312 660.9375 C 1062.820312 662.488281 1061.5625 663.75 1060.007812 663.75 Z M 1060.007812 663.75"/><path fill="#472B29" d="M 989.722656 714.375 C 989.722656 714.746094 989.6875 715.109375 989.613281 715.472656 C 989.542969 715.835938 989.433594 716.1875 989.292969 716.527344 C 989.152344 716.867188 988.980469 717.191406 988.773438 717.5 C 988.570312 717.808594 988.335938 718.089844 988.074219 718.351562 C 987.8125 718.613281 987.53125 718.847656 987.222656 719.050781 C 986.917969 719.257812 986.59375 719.429688 986.25 719.570312 C 985.910156 719.714844 985.558594 719.820312 985.195312 719.890625 C 984.832031 719.964844 984.46875 720 984.097656 720 C 983.730469 720 983.363281 719.964844 983.003906 719.890625 C 982.640625 719.820312 982.289062 719.714844 981.949219 719.570312 C 981.605469 719.429688 981.28125 719.257812 980.976562 719.050781 C 980.667969 718.847656 980.382812 718.613281 980.121094 718.351562 C 979.863281 718.089844 979.628906 717.808594 979.421875 717.5 C 979.21875 717.191406 979.046875 716.867188 978.902344 716.527344 C 978.761719 716.1875 978.65625 715.835938 978.585938 715.472656 C 978.511719 715.109375 978.476562 714.746094 978.476562 714.375 C 978.476562 714.003906 978.511719 713.640625 978.585938 713.277344 C 978.65625 712.914062 978.761719 712.5625 978.902344 712.222656 C 979.046875 711.882812 979.21875 711.558594 979.421875 711.25 C 979.628906 710.941406 979.863281 710.660156 980.121094 710.398438 C 980.382812 710.136719 980.667969 709.902344 980.976562 709.699219 C 981.28125 709.492188 981.605469 709.320312 981.949219 709.179688 C 982.289062 709.035156 982.640625 708.929688 983.003906 708.859375 C 983.363281 708.785156 983.730469 708.75 984.097656 708.75 C 984.46875 708.75 984.832031 708.785156 985.195312 708.859375 C 985.558594 708.929688 985.910156 709.035156 986.25 709.179688 C 986.59375 709.320312 986.917969 709.492188 987.222656 709.699219 C 987.53125 709.902344 987.8125 710.136719 988.074219 710.398438 C 988.335938 710.660156 988.570312 710.941406 988.773438 711.25 C 988.980469 711.558594 989.152344 711.882812 989.292969 712.222656 C 989.433594 712.5625 989.542969 712.914062 989.613281 713.277344 C 989.6875 713.640625 989.722656 714.003906 989.722656 714.375 Z M 989.722656 714.375"/><path fill="#472B29" d="M 1079.6875 720 L 1040.328125 720 C 1037.226562 720 1034.707031 717.480469 1034.707031 714.375 C 1034.707031 711.269531 1037.226562 708.75 1040.328125 708.75 L 1079.6875 708.75 C 1098.289062 708.75 1113.425781 693.609375 1113.425781 675 C 1113.425781 658.171875 1100.777344 643.859375 1083.984375 641.710938 C 1082.476562 641.507812 1081.117188 640.722656 1080.207031 639.507812 C 1079.296875 638.292969 1078.914062 636.761719 1079.148438 635.265625 C 1079.410156 633.53125 1079.6875 631.800781 1079.6875 630 C 1079.6875 611.390625 1064.550781 596.25 1045.953125 596.25 C 1036.394531 596.25 1027.53125 600.242188 1020.996094 607.5 C 1019.589844 609.0625 1017.386719 609.726562 1015.375 609.164062 C 1013.328125 608.613281 1011.765625 606.972656 1011.324219 604.902344 C 1007.492188 586.855469 991.308594 573.75 972.851562 573.75 C 951.148438 573.75 933.492188 591.414062 933.492188 613.125 C 933.492188 614.734375 933.730469 616.273438 933.953125 617.828125 C 934.28125 620.109375 933.246094 622.753906 931.230469 623.902344 C 929.21875 625.050781 926.777344 625.230469 924.980469 623.789062 C 920.875 620.492188 916.050781 618.75 911 618.75 C 900.136719 618.75 890.847656 626.523438 888.925781 637.246094 C 888.386719 640.25 885.597656 642.261719 882.527344 641.800781 C 880.792969 641.53125 879.0625 641.25 877.261719 641.25 C 858.664062 641.25 843.523438 656.390625 843.523438 675 C 843.523438 693.609375 858.664062 708.75 877.261719 708.75 L 961.605469 708.75 C 964.710938 708.75 967.230469 711.269531 967.230469 714.375 C 967.230469 717.480469 964.710938 720 961.605469 720 L 877.261719 720 C 852.453125 720 832.277344 699.816406 832.277344 675 C 832.277344 650.183594 852.453125 630 877.261719 630 C 877.925781 630 878.566406 630.023438 879.21875 630.066406 C 883.875 616.726562 896.503906 607.5 911 607.5 C 914.925781 607.5 918.75 608.1875 922.371094 609.523438 C 924.226562 583.277344 946.15625 562.5 972.851562 562.5 C 993.445312 562.5 1011.832031 575.179688 1019.558594 593.707031 C 1027.203125 588.105469 1036.449219 585 1045.953125 585 C 1070.761719 585 1090.933594 605.183594 1090.933594 630 C 1090.933594 630.539062 1090.925781 631.070312 1090.890625 631.597656 C 1110.492188 636.636719 1124.671875 654.402344 1124.671875 675 C 1124.671875 699.816406 1104.496094 720 1079.6875 720 Z M 1079.6875 720"/><path fill="#472B29" d="M 1017.835938 708.75 C 1016.050781 708.75 1008.378906 708.75 1006.589844 708.75 C 1003.488281 708.75 1000.96875 711.269531 1000.96875 714.375 C 1000.96875 717.480469 1003.488281 720 1006.589844 720 C 1008.378906 720 1016.050781 720 1017.835938 720 C 1020.941406 720 1023.460938 717.480469 1023.460938 714.375 C 1023.460938 711.269531 1020.941406 708.75 1017.835938 708.75 Z M 1017.835938 708.75"/></svg>