<svg xmlns="http://www.w3.org/2000/svg" width="375" viewBox="0 0 375 375" height="375" version="1.0"><defs><clipPath id="a"><path d="M 0 45 L 375 45 L 375 336.71875 L 0 336.71875 Z M 0 45"/></clipPath></defs><g clip-path="url(#a)"><path fill="#FFF" d="M 127.132812 336.59375 C 83.894531 336.007812 41.46875 324.742188 3.644531 303.800781 C 1.253906 302.628906 -0.00390625 299.925781 0.640625 297.34375 C 1.277344 294.765625 3.652344 292.964844 6.308594 293.039062 C 43.769531 294.625 75.390625 289.300781 102.652344 276.898438 C 62.414062 273.613281 35.4375 254.246094 25.632812 234.253906 C 25.261719 233.480469 25.066406 232.636719 25.066406 231.78125 C 25.066406 229.058594 27.03125 226.699219 29.714844 226.210938 L 74.3125 218.394531 C 39.292969 201.003906 22.515625 175.066406 24.328125 141.085938 C 24.433594 139.21875 25.453125 137.523438 27.050781 136.554688 C 28.644531 135.582031 30.617188 135.453125 32.320312 136.214844 L 48.1875 143.292969 C 27.433594 116.699219 21.8125 81.203125 33.339844 49.503906 C 34.109375 47.195312 36.285156 45.625 38.71875 45.625 C 40.683594 45.625 42.511719 46.644531 43.542969 48.316406 C 70.742188 91.1875 117.214844 120.355469 181.878906 135.027344 C 173.320312 95.378906 191.851562 68.761719 213.273438 56.699219 C 245.867188 39.707031 286.0625 46.363281 311.429688 72.953125 L 352.007812 46.503906 C 352.9375 45.886719 354.027344 45.558594 355.140625 45.558594 C 358.25 45.558594 360.808594 48.113281 360.808594 51.222656 C 360.808594 52.390625 360.445312 53.535156 359.769531 54.488281 L 336.535156 88.472656 L 367.308594 77.140625 C 367.941406 76.90625 368.609375 76.785156 369.285156 76.785156 C 372.394531 76.785156 374.953125 79.34375 374.953125 82.449219 C 374.953125 83.914062 374.386719 85.320312 373.371094 86.375 L 336.820312 124.546875 C 338.761719 197.765625 301.386719 266.695312 238.945312 305.046875 C 205.375 325.828125 166.625 336.765625 127.132812 336.59375 Z M 31.128906 304.367188 C 101.6875 334.78125 174.113281 331.78125 232.996094 295.304688 C 292.59375 258.546875 327.882812 192.332031 325.144531 122.394531 C 325.105469 120.878906 325.679688 119.410156 326.730469 118.316406 L 347.871094 96.230469 L 323.671875 105.234375 C 323.050781 105.460938 322.394531 105.574219 321.734375 105.574219 C 318.628906 105.574219 316.070312 103.019531 316.070312 99.910156 C 316.070312 98.78125 316.40625 97.675781 317.042969 96.738281 L 334.042969 71.707031 L 313.8125 85.015625 C 311.515625 86.4375 308.507812 86.03125 306.671875 84.054688 C 285.15625 58.515625 248.515625 51.191406 218.828125 66.496094 C 194.003906 80.539062 185.164062 108.292969 195.082031 140.800781 C 195.753906 142.761719 195.292969 144.941406 193.890625 146.464844 C 192.554688 147.949219 190.523438 148.617188 188.566406 148.222656 C 121.410156 134.457031 71.820312 106.140625 40.878906 64.457031 C 33.679688 97.023438 44.335938 126.753906 73.292969 155.074219 C 74.40625 156.140625 75.035156 157.617188 75.035156 159.160156 C 75.035156 162.265625 72.476562 164.820312 69.367188 164.820312 C 68.554688 164.820312 67.746094 164.648438 67.003906 164.304688 L 35.609375 150.089844 C 37.25 179.765625 57.3125 201.289062 95.90625 215.277344 C 98.179688 216.070312 99.710938 218.222656 99.710938 220.625 C 99.710938 223.375 97.710938 225.746094 95 226.210938 L 39.859375 236.007812 C 52.78125 253.566406 82.136719 268.460938 124.242188 265.855469 C 126.789062 265.730469 129.121094 267.339844 129.910156 269.761719 C 130.730469 272.21875 129.769531 274.9375 127.585938 276.332031 C 98.53125 294.144531 65.210938 303.832031 31.128906 304.367188 Z M 31.128906 304.367188"/></g></svg>